SplineFontDB: 3.2
FontName: Transit105
FullName: Transit 105
FamilyName: Transit 105
Weight: Regular
Copyright: 
Version: 1.0.0
ItalicAngle: 0
UnderlinePosition: 0
UnderlineWidth: 0
Ascent: 1000
Descent: 0
InvalidEm: 0
LayerCount: 2
Layer: 0 0 "Back" 1
Layer: 1 0 "Fore" 0
HasVMetrics: 1
XUID: [1021 71 1502631727 8918]
FSType: 0
OS2Version: 0
OS2_WeightWidthSlopeOnly: 0
OS2_UseTypoMetrics: 0
CreationTime: 1743565335
ModificationTime: 1743567224
PfmFamily: 17
TTFWeight: 400
TTFWidth: 5
LineGap: 90
VLineGap: 90
OS2TypoAscent: 125
OS2TypoAOffset: 1
OS2TypoDescent: 0
OS2TypoDOffset: 1
OS2TypoLinegap: 90
OS2WinAscent: 125
OS2WinAOffset: 1
OS2WinDescent: 0
OS2WinDOffset: 1
HheadAscent: 125
HheadAOffset: 1
HheadDescent: 0
HheadDOffset: 1
OS2Vendor: 'PfEd'
MarkAttachClasses: 1
DEI: 91125
Encoding: Original
UnicodeInterp: none
NameList: Adobe Glyph List
DisplaySize: -48
AntiAlias: 1
FitToEm: 0
WinInfo: 0 38 12
BeginPrivate: 1
BlueValues 25 [0 0 5 5 620 620 995 995]
EndPrivate
BeginChars: 102 102

StartChar: uni0000
Encoding: 0 0 0
Width: 833
VWidth: 1024
HStem: 0 1000<0 1000>
VStem: 0 1000<0 1000>
LayerCount: 2
Fore
SplineSet
0 0 m 1
 0 1000 l 1
 1000 1000 l 1
 1000 0 l 1
 0 0 l 1
EndSplineSet
Validated: 1
EndChar

StartChar: T
Encoding: 1 84 1
Width: 833
VWidth: 1024
HStem: 5.20898 21G<338.541 404.08 429.254 494.791> 171.875 72.916<378.228 455.105> 255.209 72.916<338.541 371.771 461.561 494.791> 599.791 20G<338.541 387.396 389.058 434.271 445.936 494.791> 630.209 114.582<338.541 371.771 461.561 494.791> 755.209 72.916<378.228 455.105> 838.541 156.25<194.418 244.791 338.541 494.791 588.541 638.916> 987.061 7.73047<166.034 192.064>
VStem: 338.541 69.6895<314.125 328.125 338.541 352.541> 425.103 69.6875<314.125 328.125 338.541 352.541>
LayerCount: 2
Fore
SplineSet
494.791 70.74609 m 1xfcc0
 494.791 5.20898 l 1
 429.25389 5.20898 l 1
 494.791 70.74609 l 1xfcc0
338.541 70.74609 m 1
 404.08006 5.20898 l 1
 338.541 5.20898 l 1
 338.541 70.74609 l 1
338.541 161.45898 m 1
 494.791 161.45898 l 1
 494.791 85.50391 l 1
 416.666 7.37891 l 1
 338.541 85.50391 l 1
 338.541 161.45898 l 1
466.76951 244.79102 m 1
 494.791 244.79102 l 1
 494.791 188.74805 l 1
 466.76951 244.79102 l 1
378.2285 244.79102 m 1
 455.10546 244.79102 l 1
 491.56443 171.87499 l 1
 341.76951 171.87499 l 1
 378.2285 244.79102 l 1
338.541 244.79102 m 1
 366.56443 244.79102 l 1
 338.541 188.74805 l 1
 338.541 244.79102 l 1
416.666 321.66797 m 1
 449.89647 255.20898 l 1
 383.43553 255.20898 l 1
 416.666 321.66797 l 1
425.1035 328.12499 m 1
 494.791 328.12499 l 1
 494.791 255.20898 l 1
 461.56053 255.20898 l 1
 425.1035 328.12499 l 1
338.541 328.12499 m 1
 408.23046 328.12499 l 1
 371.77147 255.20898 l 1
 338.541 255.20898 l 1
 338.541 328.12499 l 1
482.39451 453.125 m 1
 494.791 453.125 l 1
 494.791 338.54102 l 1
 425.1035 338.54102 l 1
 482.39451 453.125 l 1
362.6035 453.125 m 1
 470.73046 453.125 l 1
 416.666 344.99805 l 1
 362.6035 453.125 l 1
338.541 453.125 m 1
 350.93943 453.125 l 1
 408.23046 338.54102 l 1
 338.541 338.54102 l 1
 338.541 453.125 l 1
445.93553 619.79101 m 1
 494.791 619.79101 l 1
 494.791 522.08204 l 1
 445.93553 619.79101 l 1
399.06053 619.79101 m 1
 434.27147 619.79058 l 1
 494.791 498.75152 l 1
 494.791 463.54056 l 1
 487.6035 463.54056 l 1
 475.93943 463.54056 l 1
 357.39451 463.54056 l 1
 345.73046 463.54056 l 1
 338.541 463.54056 l 1
 338.541 498.7793 l 1
 399.06053 619.79101 l 1
338.541 619.79101 m 1
 387.39647 619.79101 l 1
 338.541 522.08204 l 1
 338.541 619.79101 l 1
416.666 655.00196 m 1
 429.06443 630.20898 l 1
 404.26951 630.20898 l 1
 416.666 655.00196 l 1
461.56053 744.79101 m 1
 494.791 744.79101 l 1
 494.791 630.20898 l 1
 440.7285 630.20898 l 1
 422.49803 666.66601 l 1
 461.56053 744.79101 l 1
383.43553 744.79101 m 1
 449.89647 744.79101 l 1
 416.666 678.33203 l 1
 383.43553 744.79101 l 1
338.541 744.79101 m 1
 371.77147 744.79101 l 1
 410.83397 666.66601 l 1
 392.60546 630.20898 l 1
 338.541 630.20898 l 1
 338.541 744.79101 l 1
494.791 811.25196 m 1
 494.791 755.20898 l 1
 466.76951 755.20898 l 1
 494.791 811.25196 l 1
338.541 811.25196 m 1
 366.56443 755.20898 l 1
 338.541 755.20898 l 1
 338.541 811.25196 l 1
341.76951 828.125 m 1
 491.56443 828.125 l 1
 455.10546 755.20898 l 1
 378.2285 755.20898 l 1
 341.76951 828.125 l 1
716.8242 921.98437 m 1
 724.70938 910.08983 732.04332 897.80944 736.51756 884.38672 c 0
 741.41407 869.69716 743.4342 854.17768 743.95116 838.54101 c 1
 675.1035 838.54101 l 1xfec0
 696.34374 881.02148 l 1
 716.8242 921.98437 l 1
116.50975 921.98437 m 1
 136.99022 881.02148 l 1
 158.23045 838.54101 l 1
 89.382797 838.54101 l 1
 89.899762 854.17768 91.917916 869.69716 96.814437 884.38672 c 0
 101.28868 897.80944 108.62457 910.08983 116.50975 921.98437 c 1
744.791 977.91797 m 1
 744.79096 890.75977 l 1
 739.42073 905.85151 731.93988 920.16289 722.49409 933.32227 c 1
 722.76561 933.89258 l 1
 738.00975 964.35547 l 1
 744.791 977.91797 l 1
578.12499 977.91797 m 1
 578.12499 838.54101 l 1
 508.43553 838.54101 l 1
 578.12499 977.91797 l 1
255.20897 977.91797 m 1
 324.89647 838.54101 l 1
 255.20897 838.54101 l 1
 255.20897 977.91797 l 1
88.541 977.91797 m 1
 110.56834 933.89257 l 1
 110.83983 933.32227 l 1
 101.39404 920.16289 93.911243 905.8515 88.541 890.75977 c 1
 88.541 977.91797 l 1
588.541 994.19531 m 1
 599.42629 993.83823 610.23997 992.90048 620.66014 990.42383 c 0
 644.87889 984.66755 667.46917 973.38608 686.60545 957.46484 c 0
 695.39252 950.15407 703.23192 941.60538 710.39452 932.42773 c 1
 663.43943 838.54101 l 1
 588.541 838.54101 l 1
 588.541 994.19531 l 1
244.791 994.19531 m 1
 244.791 838.54101 l 1
 169.89452 838.54101 l 1
 122.93748 932.42773 l 1
 130.1001 941.60538 137.94142 950.15407 146.7285 957.46484 c 0
 156.29664 965.42546 166.72569 972.22418 177.78905 977.75586 c 0
 188.85241 983.28754 200.56444 987.54569 212.67381 990.42383 c 0
 223.09399 992.90048 233.90571 993.83823 244.791 994.19531 c 1
638.916 994.79102 m 1
 741.56446 994.79102 l 1xfdc0
 715.76564 943.19727 l 1
 715.30467 942.27344 l 1
 708.45371 950.56406 701.39486 958.69092 693.24999 965.4668 c 0
 677.22334 978.79968 658.54385 988.0274 638.916 994.79102 c 1
505.20897 994.79102 m 1
 574.89647 994.79102 l 1
 505.20897 855.41407 l 1
 505.20897 994.79102 l 1
338.541 994.79102 m 1xfec0
 494.791 994.79102 l 1
 494.791 838.54101 l 1
 338.541 838.54101 l 1
 338.541 994.79102 l 1xfec0
258.43553 994.79102 m 1xfdc0
 328.12499 994.79102 l 1
 328.12499 855.41407 l 1
 258.43553 994.79102 l 1xfdc0
91.769516 994.79102 m 1
 194.41795 994.79102 l 1xfec0
 187.26479 992.32609 179.87675 990.4374 173.12303 987.06055 c 0
 161.34497 981.17151 150.26792 973.94065 140.08201 965.4668 c 0
 131.93714 958.69092 124.88021 950.56406 118.02928 942.27344 c 1
 117.56639 943.19727 l 1
 91.769516 994.79102 l 1
EndSplineSet
Validated: 524289
EndChar

StartChar: S
Encoding: 2 83 2
Width: 833
VWidth: 1024
HStem: 5.80469 155.654<169.895 244.791 588.541 663.439> 171.875 72.916<88.541 163.439 669.895 744.791> 255.209 62.5<628.229 664.496 679.254 685.737> 255.209 29.1328<708.361 716.262> 327.582 0.54295<647.566 650.852> 338.541 114.584<588.541 744.791> 463.541 156.25<170.792 244.791 255.209 267.605 399.061 434.271 565.728 578.125 588.541 662.541> 630.209 114.582<88.541 205.105> 755.209 72.916<88.541 163.439 211.561 244.791 588.541 621.771 669.895 744.791> 838.541 156.25<171.201 244.791 338.541 494.791 588.541 662.131>
VStem: 88.541 156.25<131.534 161.459 596.049 619.113 630.209 665.418 838.541 868.466> 255.209 72.916<5.20898 18.3325 463.541 498.752> 338.541 156.25<85.5039 161.459 463.541 498.752 838.541 994.791> 505.209 72.916<5.20898 18.3325 463.541 498.779> 588.541 156.25<131.534 161.459 338.541 453.125 476.156 487.283 838.541 868.466> 669.895 74.8965<149.013 161.459 838.541 849.784>
LayerCount: 2
Fore
SplineSet
494.791 70.74609 m 1xcffc
 494.791 5.20898 l 1
 429.25389 5.20898 l 1
 494.791 70.74609 l 1xcffc
338.541 70.74609 m 1
 404.08006 5.20898 l 1
 338.541 5.20898 l 1
 338.541 70.74609 l 1
526.33983 102.29492 m 1
 574.89647 5.20898 l 1
 505.20897 5.20898 l 1
 505.20897 81.16406 l 1
 526.33983 102.29492 l 1
306.99412 102.29492 m 1
 328.12499 81.16406 l 1
 328.12499 5.20898 l 1
 258.43553 5.20898 l 1
 306.99412 102.29492 l 1
505.20897 144.58594 m 1
 521.42967 112.11328 l 1
 505.20897 95.91992 l 1
 505.20897 144.58594 l 1
328.12499 144.58594 m 1
 328.12499 95.91997 l 1
 311.90233 112.14258 l 1
 328.12499 144.58594 l 1
578.12499 154.08008 m 1
 578.12499 22.08207 l 1
 534.12499 110.10742 l 1
 578.12499 154.08008 l 1
255.20897 154.08008 m 1
 299.20701 110.08008 l 1
 255.20897 22.08203 l 1
 255.20897 154.08008 l 1
675.1035 161.45898 m 1
 743.95116 161.45898 l 1
 742.96185 131.53416 733.33877 102.92733 716.8242 78.01563 c 1
 675.1035 161.45898 l 1
588.541 161.45898 m 1
 663.43943 161.45898 l 1
 710.39452 67.57227 l 1
 680.92204 29.8084 636.34335 7.3728 588.541 5.80469 c 1
 588.541 161.45898 l 1
508.43553 161.45898 m 1
 570.74607 161.45898 l 1
 529.21483 119.92773 l 1
 508.43553 161.45898 l 1
338.541 161.45898 m 1
 494.791 161.45898 l 1
 494.791 85.50391 l 1
 416.666 7.37891 l 1
 338.541 85.50391 l 1
 338.541 161.45898 l 1
262.58592 161.45898 m 1
 324.89647 161.45898 l 1
 304.11717 119.92773 l 1
 262.58592 161.45898 l 1
169.89452 161.45898 m 1
 244.791 161.45898 l 1
 244.791 5.80469 l 1
 196.98865 7.3728 152.40996 29.8084 122.93748 67.57227 c 1
 169.89452 161.45898 l 1
89.382797 161.45898 m 1
 158.23045 161.45898 l 1
 136.99022 118.97852 l 1
 116.50975 78.01563 l 1
 99.99519 102.92733 90.372143 131.53416 89.382797 161.45898 c 1
637.45116 213.40624 m 1
 658.23045 171.87499 l 1
 595.9199 171.87499 l 1
 637.45116 213.40624 l 1
195.8828 213.40624 m 1
 237.41404 171.87499 l 1
 175.1035 171.87499 l 1
 195.8828 213.40624 l 1
668.83592 244.79102 m 1
 744.791 244.79105 l 1
 744.791 171.87502 l 1
 669.89452 171.87502 l 1xcffd
 645.23631 221.21874 l 1
 668.83592 244.79102 l 1
633.43553 244.79102 m 1
 654.08006 244.79102 l 1
 640.32616 231.03906 l 1
 633.43553 244.79102 l 1
588.541 244.79102 m 1xcffe
 621.77147 244.79101 l 1
 632.541 223.2246 l 1
 588.541 179.25391 l 1
 588.541 244.79102 l 1xcffe
211.56053 244.79102 m 1
 244.791 244.79097 l 1
 244.791 179.25386 l 1
 200.79295 223.25391 l 1
 211.56053 244.79102 l 1
179.25389 244.79102 m 1
 199.89647 244.79102 l 1
 193.00584 231.03906 l 1
 179.25389 244.79102 l 1
88.541 244.79102 m 1
 164.49608 244.79099 l 1
 188.09764 221.19141 l 1
 163.43944 171.87499 l 1
 88.541 171.87499 l 1
 88.541 244.79102 l 1
708.36131 284.3418 m 1xdffc
 708.38866 284.3418 l 1
 719.23689 275.8244 728.60054 265.73279 737.49607 255.20898 c 1xdffc
 679.25389 255.20898 l 1xeffc
 708.36131 284.3418 l 1xdffc
588.541 311.25195 m 1xcffe
 616.56443 255.20898 l 1
 588.541 255.20898 l 1
 588.541 311.25195 l 1xcffe
744.791 320.74609 m 1xcffd
 744.791 262.50589 l 1
 735.85966 272.98364 726.44532 283.03984 715.65818 291.64062 c 1
 716.25389 292.23633 l 1
 744.791 320.74609 l 1xcffd
592.50193 326.63281 m 1
 611.25375 325.76531 629.92825 323.58966 647.57029 317.70898 c 0
 666.1742 311.50768 683.46396 301.78391 699.67967 290.39258 c 1
 664.49607 255.20898 l 1
 628.2285 255.20898 l 1xeffc
 592.50193 326.63281 l 1
647.51561 328.12499 m 1
 737.41401 328.12499 l 1
 707.84565 298.55665 l 1
 707.30273 298.01367 l 1
 689.83539 310.51837 671.00582 320.86394 650.85154 327.58204 c 0
 649.78299 327.93822 648.58988 327.78631 647.51561 328.12499 c 1
588.541 453.125 m 1xcffe
 744.791 453.125 l 1
 744.791 338.54102 l 1
 588.541 338.54102 l 1
 588.541 453.125 l 1xcffe
726.31835 531.43945 m 1
 737.11153 510.3058 743.3347 487.28304 744.11327 463.54101 c 1
 638.94335 463.54101 l 1
 649.33682 467.12858 659.78845 470.68122 669.27147 476.15625 c 0
 682.12154 483.57525 694.02029 492.65213 704.61717 503.20118 c 0
 712.96145 511.50777 719.74192 521.40616 726.31835 531.43945 c 1
588.541 619.11327 m 1
 643.05785 617.31801 692.87642 588.40914 721.16404 541.66601 c 1
 692.87642 494.92288 643.05785 466.01597 588.541 464.2207 c 1
 588.541 619.11327 l 1
244.791 619.11327 m 1
 244.791 464.2207 l 1
 190.27415 466.01597 140.45753 494.92288 112.16991 541.66601 c 1
 119.03983 553.01802 126.88467 563.61027 136.06834 572.7539 c 0
 155.97585 592.57461 180.75404 606.87307 207.87303 614.20312 c 0
 219.75667 617.41519 232.21442 618.69912 244.791 619.11327 c 1
565.7285 619.79101 m 1
 578.12499 619.79106 l 1
 578.12499 463.54106 l 1
 505.20897 463.54106 l 1
 505.20897 498.7793 l 1
 565.7285 619.79101 l 1
505.20897 619.79101 m 1
 554.06443 619.79101 l 1
 505.20897 522.08204 l 1
 505.20897 619.79101 l 1
445.93553 619.79101 m 1
 494.791 619.79101 l 1
 494.791 522.08204 l 1
 445.93553 619.79101 l 1
399.06053 619.79101 m 1
 434.27147 619.79101 l 1
 494.791 498.752 l 1
 494.791 463.54106 l 1
 338.541 463.54106 l 1
 338.541 498.7793 l 1
 399.06053 619.79101 l 1
338.541 619.79101 m 1
 387.39647 619.79101 l 1
 338.541 522.08204 l 1
 338.541 619.79101 l 1
279.26951 619.79101 m 1
 328.12499 619.79101 l 1
 328.12499 522.08204 l 1
 279.26951 619.79101 l 1
255.20897 619.79101 m 1
 267.60546 619.79101 l 1
 328.12499 498.75195 l 1
 328.12499 463.54101 l 1
 255.20897 463.54101 l 1
 255.20897 619.79101 l 1
89.220688 619.79101 m 1
 194.39061 619.79101 l 1
 183.99713 616.20344 173.54551 612.65276 164.06248 607.17773 c 0
 151.21242 599.75873 139.31366 590.68186 128.71678 580.13282 c 0
 120.37251 571.82622 113.59203 561.92587 107.01561 551.89258 c 1
 96.222433 573.02623 89.999261 596.04898 89.220688 619.79101 c 1
216.76952 744.79101 m 1
 244.791 744.79101 l 1
 244.791 688.74805 l 1
 216.76952 744.79101 l 1
88.541 744.79101 m 1
 205.10545 744.79096 l 1
 244.791 665.41797 l 1
 244.791 630.20898 l 1
 88.541 630.20898 l 1
 88.541 744.79101 l 1
669.89452 828.125 m 1
 744.791 828.125 l 1
 744.791 755.20898 l 1xcffd
 633.43553 755.20898 l 1
 669.89452 828.125 l 1
588.541 828.125 m 1
 658.23045 828.125 l 1
 621.77147 755.20898 l 1
 588.541 755.20898 l 1
 588.541 828.125 l 1
175.1035 828.125 m 1
 244.791 828.125 l 1
 244.791 755.20898 l 1
 211.56053 755.20898 l 1
 175.1035 828.125 l 1
88.541 828.125 m 1
 163.43944 828.125 l 1
 199.89647 755.20898 l 1
 88.541 755.20898 l 1
 88.541 828.125 l 1
716.8242 921.98437 m 1
 733.33877 897.07268 742.96181 868.46583 743.95116 838.54101 c 1
 675.1035 838.54101 l 1
 696.34374 881.02148 l 1
 716.8242 921.98437 l 1
116.50975 921.98437 m 1
 136.99022 881.02148 l 1
 158.23045 838.54101 l 1
 89.382797 838.54101 l 1
 90.372143 868.46583 99.99519 897.07268 116.50975 921.98437 c 1
578.12499 977.91797 m 1
 578.12499 838.54101 l 1
 508.43553 838.54101 l 1
 578.12499 977.91797 l 1
255.20897 977.91797 m 1
 324.89647 838.54101 l 1
 255.20897 838.54101 l 1
 255.20897 977.91797 l 1
588.541 994.19531 m 1
 636.34335 992.6272 680.92204 970.19162 710.39452 932.42773 c 1
 663.43943 838.54101 l 1
 588.541 838.54101 l 1
 588.541 994.19531 l 1
244.791 994.19531 m 1
 244.791 838.54101 l 1
 169.89452 838.54101 l 1
 122.93748 932.42773 l 1
 152.40996 970.19162 196.98865 992.6272 244.791 994.19531 c 1
505.20897 994.79102 m 1
 574.89647 994.79102 l 1
 505.20897 855.41407 l 1
 505.20897 994.79102 l 1
338.541 994.79102 m 1
 494.791 994.79102 l 1
 494.791 838.54101 l 1
 338.541 838.54101 l 1
 338.541 994.79102 l 1
258.43553 994.79102 m 1
 328.12499 994.79102 l 1
 328.12499 855.41407 l 1
 258.43553 994.79102 l 1
EndSplineSet
Validated: 524289
EndChar

StartChar: A
Encoding: 3 65 3
Width: 833
VWidth: 1024
HStem: 5.209 7.73047<166.266 192.064> 5.80471 155.654<194.418 244.791 588.541 638.916> 171.875 72.916<88.541 163.439 669.895 744.791> 255.209 62.5<147.597 154.08 168.836 205.105 628.229 664.496 679.254 685.737> 255.209 29.1328<708.361 716.262> 327.582 0.54297<182.482 185.768> 328.125 5.68434e-14<184.744 185.818> 338.541 114.584<88.541 244.791 588.541 744.791> 463.541 156.25<194.391 244.791 255.209 267.605 399.061 434.271 565.728 578.125 588.541 638.943> 630.209 114.582<88.541 205.105 628.228 744.791> 755.209 72.916<88.541 163.439 211.561 244.791 588.541 621.771 669.895 744.791> 838.541 156.25<171.201 244.791 338.541 494.791 588.541 662.131>
VStem: 88.541 156.25<131.534 161.459 338.541 453.125 464.221 475.914 596.049 619.113 630.209 665.418 838.541 868.466> 255.209 72.916<463.541 498.752> 338.541 156.25<463.541 498.752 838.541 994.791> 505.209 72.916<463.541 498.779> 588.541 156.25<131.534 161.459 338.541 453.125 464.221 487.283 607.418 619.113 630.209 665.447 838.541 868.466> 669.895 74.8965<149.013 161.459 838.541 849.784>
LayerCount: 2
Fore
SplineSet
715.30467 57.72659 m 1xa1ff
 715.76561 56.80275 l 1
 741.56443 5.209 l 1
 638.916 5.209 l 1
 658.54385 11.97261 677.22333 21.20034 693.24999 34.53322 c 0
 701.39486 41.3091 708.45375 49.43596 715.30467 57.72659 c 1xa1ff
118.0293 57.72659 m 1
 133.44793 39.06776 151.92698 23.53751 173.12304 12.93947 c 0
 179.87676 9.56262 187.26481 7.67393 194.41797 5.209 c 1
 91.769531 5.209 l 1
 117.56641 56.80275 l 1
 118.0293 57.72659 l 1
744.79102 109.24025 m 1x21ff80
 744.79102 22.08206 l 1x21ff40
 722.76561 66.10744 l 1
 722.49412 66.67775 l 1
 731.9399 79.83706 739.42076 94.14852 744.79102 109.24025 c 1x21ff80
88.541016 109.24025 m 1
 93.911259 94.14852 101.39405 79.83713 110.83984 66.67775 c 1
 110.56836 66.10744 l 1
 95.324218 35.64455 l 1
 88.541016 22.08206 l 1
 88.541016 109.24025 l 1
675.10352 161.459 m 1x61ff
 743.95115 161.459 l 1
 742.96184 131.53418 733.33876 102.92735 716.8242 78.01565 c 1
 675.10352 161.459 l 1x61ff
588.54102 161.459 m 1x61ff80
 663.43943 161.459 l 1
 710.39452 67.5723 l 1
 680.92204 29.80841 636.34335 7.37282 588.54102 5.80471 c 1
 588.54102 161.459 l 1x61ff80
169.89453 161.459 m 1
 244.79101 161.459 l 1
 244.79101 5.80471 l 1
 208.60592 6.99172 174.09821 19.7638 146.72851 42.53518 c 0
 137.94144 49.84596 130.10011 58.39465 122.9375 67.5723 c 1
 169.89453 161.459 l 1
89.382813 161.459 m 1
 158.23047 161.459 l 1
 136.99024 118.97854 l 1
 116.50977 78.01565 l 1
 99.995202 102.92735 90.372159 131.53418 89.382813 161.459 c 1
637.45115 213.40626 m 1
 658.23046 171.87501 l 1
 595.9199 171.87501 l 1
 637.45115 213.40626 l 1
195.88281 213.40626 m 1
 237.41404 171.87501 l 1
 175.10352 171.87501 l 1
 195.88281 213.40626 l 1
668.83592 244.79104 m 1
 744.79102 244.79108 l 1
 744.79102 171.87504 l 1
 669.89452 171.87504 l 1x21ff40
 645.23632 221.21876 l 1
 668.83592 244.79104 l 1
633.43554 244.79104 m 1
 654.08006 244.79104 l 1
 640.32617 231.03909 l 1
 633.43554 244.79104 l 1
588.54102 244.79104 m 1x21ff80
 621.77147 244.79104 l 1
 632.541 223.22463 l 1
 588.54102 179.25393 l 1
 588.54102 244.79104 l 1x21ff80
211.56054 244.79104 m 1
 244.79101 244.79108 l 1
 244.79101 179.25397 l 1
 200.79295 223.25393 l 1
 211.56054 244.79104 l 1
179.25391 244.79104 m 1
 199.89648 244.79104 l 1
 193.00586 231.03909 l 1
 179.25391 244.79104 l 1
88.541016 244.79104 m 1
 164.4961 244.79099 l 1
 188.09766 221.19143 l 1
 163.43946 171.87501 l 1
 88.541016 171.87501 l 1
 88.541016 244.79104 l 1
708.36132 284.34181 m 1x29ff
 708.38865 284.34181 l 1
 719.23689 275.82441 728.60054 265.7328 737.49607 255.209 c 1x29ff
 679.25389 255.209 l 1x31ff
 708.36132 284.34181 l 1x29ff
124.97266 284.34181 m 1
 154.08007 255.209 l 1x31ff
 95.83789 255.209 l 1
 104.73342 265.7328 114.09708 275.82441 124.97266 284.34181 c 1
588.54102 311.25197 m 1x29ff80
 616.56445 255.209 l 1
 588.54102 255.209 l 1
 588.54102 311.25197 l 1x29ff80
244.79101 311.25197 m 1
 244.79101 255.209 l 1
 216.76953 255.209 l 1
 244.79101 311.25197 l 1
744.79102 320.74611 m 1
 744.79102 262.5059 l 1
 735.85967 272.98364 726.44532 283.03986 715.6582 291.64064 c 1
 716.25389 292.23635 l 1
 744.79102 320.74611 l 1
88.541016 320.74611 m 1
 117.07812 292.23631 l 1
 117.67578 291.61135 l 1
 106.88863 283.03854 97.472359 272.98361 88.541016 262.50587 c 1
 88.541016 320.74611 l 1
592.50193 326.63283 m 1
 611.25377 325.76533 629.92825 323.58968 647.57029 317.709 c 0x31ff
 666.17421 311.50768 683.46396 301.78393 699.67967 290.39259 c 1
 664.49607 255.209 l 1
 628.2285 255.209 l 1
 592.50193 326.63283 l 1
240.83202 326.63283 m 1
 205.10547 255.209 l 1
 168.83592 255.209 l 1
 133.6543 290.39259 l 1
 149.86999 301.78393 167.15977 311.50768 185.76366 317.709 c 0
 203.40572 323.58968 222.08021 325.76533 240.83202 326.63283 c 1
647.51561 328.12501 m 1x23ff
 737.41402 328.12501 l 1
 707.84568 298.55667 l 1
 707.30273 298.01369 l 1
 688.90936 311.18173 668.84907 321.38717 647.51561 328.12501 c 1x23ff
95.919922 328.12501 m 1
 185.81831 328.12501 l 1x23ff
 184.74354 327.78556 183.55159 327.93844 182.48236 327.58204 c 0x25ff
 162.3281 320.86396 143.49854 310.51837 126.0039 298.01369 c 1
 125.48828 298.55667 l 1
 95.919922 328.12501 l 1
588.54102 453.125 m 1x21ff80
 744.79102 453.125 l 1
 744.79102 338.54103 l 1
 588.54102 338.54103 l 1
 588.54102 453.125 l 1x21ff80
88.541016 453.125 m 1
 244.79101 453.125 l 1
 244.79101 338.54103 l 1
 88.541016 338.54103 l 1
 88.541016 453.125 l 1
726.31835 531.43947 m 1
 737.11154 510.30582 743.3347 487.28306 744.11327 463.54103 c 1
 638.94336 463.54103 l 1
 649.33682 467.1286 659.78845 470.68124 669.27147 476.15625 c 0
 682.12156 483.57525 694.02029 492.65215 704.61717 503.20118 c 0
 712.96146 511.50779 719.74192 521.40618 726.31835 531.43947 c 1
107.01562 531.43947 m 1
 113.59204 521.40618 120.37252 511.50779 128.7168 503.20118 c 0
 139.31367 492.65215 151.21243 483.57525 164.0625 476.15625 c 0
 173.54553 470.68124 183.99715 467.1286 194.39062 463.54103 c 1
 89.220703 463.54103 l 1
 89.626439 475.91364 90.865653 488.22964 94.048828 500.10937 c 0
 96.973905 511.02589 101.84706 521.31913 107.01562 531.43947 c 1
744.79102 569.49807 m 1
 744.79102 513.83399 l 1
 741.57511 523.18729 738.26426 532.51452 733.45311 541.23245 c 1
 733.69727 541.66602 l 1
 733.45311 542.10157 l 1
 738.26426 550.81949 741.57511 560.14476 744.79102 569.49807 c 1
88.541016 569.49807 m 1
 91.756914 560.14476 95.069701 550.81949 99.880859 542.10157 c 1
 99.636719 541.66602 l 1
 99.880859 541.23245 l 1
 95.069701 532.51452 91.756914 523.18729 88.541016 513.83399 c 1
 88.541016 569.49807 l 1
588.54102 619.11329 m 1
 601.11759 618.69911 613.57728 617.41521 625.46092 614.20314 c 0
 652.57992 606.87307 677.3581 592.57461 697.26561 572.7539 c 0
 706.44928 563.61029 714.29412 553.01803 721.16406 541.66602 c 1
 699.40214 505.70615 665.09036 479.84046 625.46092 469.12891 c 0
 613.57728 465.91685 601.11759 464.63487 588.54102 464.22071 c 1
 588.54102 619.11329 l 1
244.79101 619.11329 m 1
 244.79101 464.22071 l 1
 217.86426 465.10743 191.91928 472.08639 169.27149 485.16212 c 0
 146.06575 498.55996 126.48584 518.01009 112.16992 541.66602 c 1
 119.03984 553.01803 126.88469 563.61029 136.06836 572.7539 c 0
 146.02211 582.66426 157.20173 591.2034 169.27149 598.17189 c 0
 191.91928 611.24761 217.86426 618.22657 244.79101 619.11329 c 1
638.94336 619.79103 m 1
 744.11327 619.79103 l 1
 743.70757 607.4184 742.46831 595.10435 739.28516 583.22462 c 0
 736.36006 572.3081 731.4869 562.01293 726.31835 551.89258 c 1
 719.74192 561.92587 712.96146 571.82622 704.61717 580.13283 c 0
 694.02029 590.68186 682.12156 599.75875 669.27147 607.17775 c 0
 659.78845 612.65276 649.33682 616.20344 638.94336 619.79103 c 1
565.7285 619.79103 m 1
 578.12498 619.79103 l 1
 578.12498 463.54108 l 1
 505.20899 463.54108 l 1
 505.20899 498.77932 l 1
 565.7285 619.79103 l 1
505.20899 619.79103 m 1
 554.06443 619.79103 l 1
 505.20899 522.08204 l 1
 505.20899 619.79103 l 1
445.93554 619.79103 m 1
 494.791 619.79103 l 1
 494.791 522.08204 l 1
 445.93554 619.79103 l 1
399.06054 619.79103 m 1
 434.27149 619.79103 l 1
 494.791 498.75202 l 1
 494.791 463.54108 l 1
 338.541 463.54108 l 1
 338.541 498.77932 l 1
 399.06054 619.79103 l 1
338.541 619.79103 m 1
 387.39649 619.79103 l 1
 338.541 522.08204 l 1
 338.541 619.79103 l 1
279.26953 619.79103 m 1
 328.125 619.79103 l 1
 328.125 522.08204 l 1
 279.26953 619.79103 l 1
255.20898 619.79103 m 1
 267.60546 619.79103 l 1
 328.125 498.75197 l 1
 328.125 463.54103 l 1
 255.20898 463.54103 l 1
 255.20898 619.79103 l 1
89.220703 619.79103 m 1
 194.39062 619.79103 l 1
 169.91337 611.34207 147.1339 598.46677 128.7168 580.13283 c 0
 120.37252 571.82622 113.59204 561.92587 107.01562 551.89258 c 1
 96.222447 573.02624 89.999277 596.04898 89.220703 619.79103 c 1
628.2285 744.79103 m 1
 744.79102 744.79103 l 1
 744.79102 630.20901 l 1x21ff40
 588.54102 630.20901 l 1
 588.54102 665.44728 l 1
 628.2285 744.79103 l 1
588.54102 744.79103 m 1
 616.56445 744.79103 l 1
 588.54102 688.74807 l 1
 588.54102 744.79103 l 1
216.76953 744.79103 m 1
 244.79101 744.79103 l 1
 244.79101 688.74807 l 1
 216.76953 744.79103 l 1
88.541016 744.79103 m 1
 205.10547 744.79107 l 1
 244.79101 665.41797 l 1
 244.79101 630.209 l 1
 88.541016 630.209 l 1
 88.541016 744.79103 l 1
669.89452 828.125 m 1
 744.79102 828.125 l 1
 744.79102 755.20899 l 1x21ff80
 633.43554 755.20899 l 1
 669.89452 828.125 l 1
588.54102 828.125 m 1
 658.23046 828.125 l 1
 621.77147 755.20899 l 1
 588.54102 755.20899 l 1
 588.54102 828.125 l 1
175.10352 828.125 m 1
 244.79101 828.125 l 1
 244.79101 755.20899 l 1
 211.56054 755.20899 l 1
 175.10352 828.125 l 1
88.541016 828.125 m 1
 163.43946 828.125 l 1
 199.89648 755.20899 l 1
 88.541016 755.20899 l 1
 88.541016 828.125 l 1
716.8242 921.98438 m 1
 733.33876 897.07268 742.9618 868.46583 743.95115 838.54101 c 1
 675.10352 838.54101 l 1
 696.34374 881.02149 l 1
 716.8242 921.98438 l 1
116.50977 921.98438 m 1
 136.99024 881.02149 l 1
 158.23047 838.54101 l 1
 89.382813 838.54101 l 1
 90.372159 868.46583 99.995202 897.07268 116.50977 921.98438 c 1
578.12498 977.91797 m 1
 578.12498 838.54101 l 1
 508.43553 838.54101 l 1
 578.12498 977.91797 l 1
255.20898 977.91797 m 1
 324.89647 838.54101 l 1
 255.20898 838.54101 l 1
 255.20898 977.91797 l 1
588.54102 994.19531 m 1
 636.34335 992.6272 680.92204 970.19162 710.39452 932.42773 c 1
 663.43943 838.54101 l 1
 588.54102 838.54101 l 1
 588.54102 994.19531 l 1
244.79101 994.19531 m 1
 244.79101 838.54101 l 1
 169.89453 838.54101 l 1
 122.9375 932.42773 l 1
 152.40998 970.19162 196.98865 992.6272 244.79101 994.19531 c 1
505.20899 994.79102 m 1
 574.89649 994.79102 l 1
 505.20899 855.41407 l 1
 505.20899 994.79102 l 1
338.541 994.79102 m 1
 494.791 994.79102 l 1
 494.791 838.54101 l 1
 338.541 838.54101 l 1
 338.541 994.79102 l 1
258.43554 994.79102 m 1
 328.125 994.79102 l 1
 328.125 855.41407 l 1
 258.43554 994.79102 l 1
EndSplineSet
Validated: 524289
EndChar

StartChar: B
Encoding: 4 66 4
Width: 833
VWidth: 1024
HStem: 5.20898 7.73047<166.266 192.064> 5.80469 155.654<194.418 244.791 588.541 663.439> 171.875 72.916<88.541 163.439 669.895 744.791> 255.209 29.1328<708.361 716.262> 255.209 62.5<147.597 154.08 168.836 205.105 628.228 664.496 679.254 685.737> 327.582 0.54295<182.482 185.768 647.566 650.852> 338.541 114.584<88.541 244.791 588.541 744.791> 463.541 156.25<194.391 244.791 255.209 267.605 399.061 434.271 565.728 578.125 588.541 638.943> 630.209 114.582<88.541 205.105 628.228 744.791> 755.209 72.916<88.541 163.439 211.561 244.791 588.541 621.771 669.895 744.791> 838.541 156.25<194.418 244.791 338.541 494.791 588.541 662.131>
VStem: 88.541 156.25<131.534 161.459 338.541 453.125 464.221 475.914 596.049 619.113 630.209 665.418 838.541 854.178> 255.209 72.916<5.20898 18.3325 463.541 498.752> 338.541 156.25<85.5039 161.459 463.541 498.752 838.541 994.791> 505.209 72.916<5.20898 18.3325 463.541 498.779> 588.541 156.25<131.534 161.459 338.541 453.125 464.221 487.283 596.049 619.113 630.209 665.447 838.541 868.466> 669.895 74.8965<149.013 161.459 838.541 849.784>
LayerCount: 2
Fore
SplineSet
118.02928 57.72656 m 1xa7fe
 133.44791 39.06774 151.92697 23.53748 173.12303 12.93945 c 0
 179.87675 9.56259 187.26479 7.67391 194.41795 5.20898 c 1
 91.769516 5.20898 l 1
 117.56639 56.80273 l 1
 118.02928 57.72656 l 1xa7fe
494.791 70.74609 m 1
 494.791 5.20898 l 1
 429.25389 5.20898 l 1
 494.791 70.74609 l 1
338.541 70.74609 m 1
 404.08006 5.20898 l 1
 338.541 5.20898 l 1
 338.541 70.74609 l 1
526.33983 102.29492 m 1
 574.89647 5.20898 l 1
 505.20897 5.20898 l 1
 505.20897 81.16406 l 1
 526.33983 102.29492 l 1
306.99412 102.29492 m 1
 328.12499 81.16406 l 1
 328.12499 5.20898 l 1
 258.43553 5.20898 l 1
 306.99412 102.29492 l 1
88.541 109.24023 m 1
 93.911243 94.14849 101.39404 79.8371 110.83983 66.67773 c 1
 110.56834 66.10742 l 1
 95.324203 35.64453 l 1
 88.541 22.08203 l 1
 88.541 109.24023 l 1
505.20897 144.58594 m 1
 521.42967 112.11328 l 1
 505.20897 95.91992 l 1
 505.20897 144.58594 l 1
328.12499 144.58594 m 1
 328.12499 95.91997 l 1
 311.90233 112.14258 l 1
 328.12499 144.58594 l 1
578.12499 154.08008 m 1
 578.12499 22.08207 l 1
 534.12499 110.10742 l 1
 578.12499 154.08008 l 1
255.20897 154.08008 m 1
 299.20701 110.08008 l 1
 255.20897 22.08203 l 1
 255.20897 154.08008 l 1
675.1035 161.45898 m 1
 743.95116 161.45898 l 1
 742.96185 131.53416 733.33877 102.92733 716.8242 78.01563 c 1
 675.1035 161.45898 l 1
588.541 161.45898 m 1x67ff
 663.43943 161.45898 l 1
 710.39452 67.57227 l 1
 680.92204 29.8084 636.34335 7.3728 588.541 5.80469 c 1
 588.541 161.45898 l 1x67ff
508.43553 161.45898 m 1
 570.74607 161.45898 l 1
 529.21483 119.92773 l 1
 508.43553 161.45898 l 1
338.541 161.45898 m 1
 494.791 161.45898 l 1
 494.791 85.50391 l 1
 416.666 7.37891 l 1
 338.541 85.50391 l 1
 338.541 161.45898 l 1
262.58592 161.45898 m 1
 324.89647 161.45898 l 1
 304.11717 119.92773 l 1
 262.58592 161.45898 l 1
169.89452 161.45898 m 1
 244.791 161.45898 l 1
 244.791 5.80469 l 1
 221.25582 6.57673 198.37247 11.95242 177.78905 22.24414 c 0
 166.72569 27.77581 156.29664 34.57455 146.7285 42.53516 c 0
 137.94142 49.84594 130.1001 58.39463 122.93748 67.57227 c 1
 169.89452 161.45898 l 1
89.382797 161.45898 m 1
 158.23045 161.45898 l 1
 136.99022 118.97852 l 1
 116.50975 78.01563 l 1
 99.99519 102.92733 90.372143 131.53416 89.382797 161.45898 c 1
637.45116 213.40624 m 1
 658.23045 171.87499 l 1
 595.9199 171.87499 l 1
 637.45116 213.40624 l 1
195.8828 213.40624 m 1
 237.41404 171.87499 l 1
 175.1035 171.87499 l 1
 195.8828 213.40624 l 1
668.83592 244.79102 m 1
 744.791 244.79105 l 1
 744.791 171.87502 l 1
 669.89452 171.87502 l 1x27fe80
 645.23631 221.21874 l 1
 668.83592 244.79102 l 1
633.43553 244.79102 m 1
 654.08006 244.79102 l 1
 640.32616 231.03906 l 1
 633.43553 244.79102 l 1
588.541 244.79102 m 1
 621.77147 244.79101 l 1
 632.541 223.2246 l 1
 588.541 179.25391 l 1
 588.541 244.79102 l 1
211.56053 244.79102 m 1
 244.791 244.79097 l 1
 244.791 179.25386 l 1
 200.79295 223.25391 l 1
 211.56053 244.79102 l 1
179.25389 244.79102 m 1
 199.89647 244.79102 l 1
 193.00584 231.03906 l 1
 179.25389 244.79102 l 1
88.541 244.79102 m 1
 164.49608 244.79099 l 1
 188.09764 221.19141 l 1
 163.43944 171.87499 l 1
 88.541 171.87499 l 1
 88.541 244.79102 l 1
708.36131 284.3418 m 1x37fe
 708.38866 284.3418 l 1
 719.23689 275.8244 728.60054 265.73279 737.49607 255.20898 c 1
 679.25389 255.20898 l 1
 708.36131 284.3418 l 1x37fe
124.97264 284.3418 m 1
 154.08006 255.20898 l 1
 95.837875 255.20898 l 1
 104.73341 265.73279 114.09706 275.8244 124.97264 284.3418 c 1
588.541 311.25195 m 1x37ff
 616.56443 255.20898 l 1
 588.541 255.20898 l 1
 588.541 311.25195 l 1x37ff
244.791 311.25195 m 1
 244.791 255.20898 l 1
 216.76952 255.20898 l 1
 244.791 311.25195 l 1
744.791 320.74609 m 1
 744.791 262.50589 l 1
 735.85966 272.98364 726.44532 283.03984 715.65818 291.64062 c 1
 716.25389 292.23633 l 1
 744.791 320.74609 l 1
88.541 320.74609 m 1
 117.07811 292.23629 l 1
 117.67577 291.61133 l 1
 106.88862 283.03852 97.472344 272.98361 88.541 262.50586 c 1
 88.541 320.74609 l 1
592.50193 326.63281 m 1
 611.25375 325.76531 629.92825 323.58966 647.57029 317.70898 c 0
 666.1742 311.50768 683.46396 301.78391 699.67967 290.39258 c 1
 664.49607 255.20898 l 1
 628.2285 255.20898 l 1x2ffe
 592.50193 326.63281 l 1
240.83201 326.63281 m 1
 205.10545 255.20898 l 1
 168.83592 255.20898 l 1
 133.65428 290.39258 l 1
 149.86999 301.78391 167.15975 311.50768 185.76366 317.70898 c 0
 203.4057 323.58966 222.08019 325.76531 240.83201 326.63281 c 1
647.51561 328.12499 m 1
 737.41401 328.12499 l 1
 707.84565 298.55665 l 1
 707.30273 298.01367 l 1
 689.83539 310.51837 671.00582 320.86394 650.85154 327.58204 c 0
 649.78299 327.93822 648.58988 327.78631 647.51561 328.12499 c 1
95.919906 328.12499 m 1
 185.8183 328.12499 l 1
 184.74354 327.78555 183.55159 327.93843 182.48237 327.58204 c 0
 162.32809 320.86394 143.49853 310.51837 126.00389 298.01367 c 1
 125.48826 298.55665 l 1
 95.919906 328.12499 l 1
588.541 453.125 m 1x27ff
 744.791 453.125 l 1
 744.791 338.54102 l 1
 588.541 338.54102 l 1
 588.541 453.125 l 1x27ff
88.541 453.125 m 1
 244.791 453.125 l 1
 244.791 338.54102 l 1
 88.541 338.54102 l 1
 88.541 453.125 l 1
726.31835 531.43945 m 1
 737.11153 510.3058 743.3347 487.28304 744.11327 463.54101 c 1
 638.94335 463.54101 l 1
 649.33682 467.12858 659.78845 470.68122 669.27147 476.15625 c 0
 692.24004 489.41716 711.39014 508.66432 726.31835 531.43945 c 1
107.01561 531.43945 m 1
 113.59203 521.40616 120.37251 511.50777 128.71678 503.20118 c 0
 139.31366 492.65213 151.21242 483.57525 164.06248 476.15625 c 0
 173.54551 470.68122 183.99713 467.12858 194.39061 463.54101 c 1
 89.220688 463.54101 l 1
 89.626423 475.91362 90.865637 488.22963 94.048812 500.10937 c 0
 96.973889 511.02587 101.84705 521.31912 107.01561 531.43945 c 1
88.541 569.49805 m 1
 91.756898 560.14476 95.069686 550.81947 99.880844 542.10157 c 1
 99.636704 541.66601 l 1
 99.880844 541.23243 l 1
 95.069686 532.51452 91.756898 523.18727 88.541 513.83398 c 1
 88.541 569.49805 l 1
588.541 619.11327 m 1
 615.46775 618.22661 641.4147 611.24759 664.06249 598.17187 c 0
 687.26822 584.77404 706.84813 565.32195 721.16404 541.66601 c 1
 714.29413 530.314 706.44928 519.7237 697.26561 510.58008 c 0
 677.3581 490.75937 652.57991 476.45897 625.46092 469.12891 c 0
 613.57728 465.91684 601.11759 464.63486 588.541 464.2207 c 1
 588.541 619.11327 l 1
244.791 619.11327 m 1
 244.791 464.2207 l 1
 190.27415 466.01597 140.45753 494.92288 112.16991 541.66601 c 1
 119.03983 553.01802 126.88467 563.61027 136.06834 572.7539 c 0
 164.6994 601.26012 203.51409 617.75401 244.791 619.11327 c 1
638.94335 619.79101 m 1
 744.11327 619.79101 l 1
 743.33466 596.04898 737.11153 573.02623 726.31835 551.89258 c 1
 705.22675 584.07089 674.51057 607.51409 638.94335 619.79101 c 1
565.7285 619.79101 m 1
 578.12499 619.79106 l 1
 578.12499 463.54106 l 1
 505.20897 463.54106 l 1
 505.20897 498.7793 l 1
 565.7285 619.79101 l 1
505.20897 619.79101 m 1
 554.06443 619.79101 l 1
 505.20897 522.08204 l 1
 505.20897 619.79101 l 1
445.93553 619.79101 m 1
 494.791 619.79101 l 1
 494.791 522.08204 l 1
 445.93553 619.79101 l 1
399.06053 619.79101 m 1
 434.27147 619.79101 l 1
 494.791 498.752 l 1
 494.791 463.54106 l 1
 338.541 463.54106 l 1
 338.541 498.7793 l 1
 399.06053 619.79101 l 1
338.541 619.79101 m 1
 387.39647 619.79101 l 1
 338.541 522.08204 l 1
 338.541 619.79101 l 1
279.26951 619.79101 m 1
 328.12499 619.79101 l 1
 328.12499 522.08204 l 1
 279.26951 619.79101 l 1
255.20897 619.79101 m 1
 267.60546 619.79101 l 1
 328.12499 498.75195 l 1
 328.12499 463.54101 l 1
 255.20897 463.54101 l 1
 255.20897 619.79101 l 1
89.220688 619.79101 m 1
 194.39061 619.79101 l 1
 169.91335 611.34207 147.13388 598.46677 128.71678 580.13282 c 0
 120.37251 571.82622 113.59203 561.92587 107.01561 551.89258 c 1
 96.222433 573.02623 89.999261 596.04898 89.220688 619.79101 c 1
628.2285 744.79101 m 1
 744.791 744.79101 l 1
 744.791 630.20897 l 1
 588.541 630.20897 l 1
 588.541 665.44726 l 1
 628.2285 744.79101 l 1
588.541 744.79101 m 1
 616.56443 744.79101 l 1
 588.541 688.74805 l 1
 588.541 744.79101 l 1
216.76952 744.79101 m 1
 244.791 744.79101 l 1
 244.791 688.74805 l 1
 216.76952 744.79101 l 1
88.541 744.79101 m 1
 205.10545 744.79096 l 1
 244.791 665.41797 l 1
 244.791 630.20898 l 1
 88.541 630.20898 l 1
 88.541 744.79101 l 1
669.89452 828.125 m 1
 744.791 828.125 l 1
 744.791 755.20898 l 1x27fe80
 633.43553 755.20898 l 1
 669.89452 828.125 l 1
588.541 828.125 m 1x27ff
 658.23045 828.125 l 1
 621.77147 755.20898 l 1
 588.541 755.20898 l 1
 588.541 828.125 l 1x27ff
175.1035 828.125 m 1
 244.791 828.125 l 1
 244.791 755.20898 l 1
 211.56053 755.20898 l 1
 175.1035 828.125 l 1
88.541 828.125 m 1
 163.43944 828.125 l 1
 199.89647 755.20898 l 1
 88.541 755.20898 l 1
 88.541 828.125 l 1
716.8242 921.98437 m 1
 733.33877 897.07268 742.96181 868.46583 743.95116 838.54101 c 1
 675.1035 838.54101 l 1
 696.34374 881.02148 l 1
 716.8242 921.98437 l 1
116.50975 921.98437 m 1
 136.99022 881.02148 l 1
 158.23045 838.54101 l 1
 89.382797 838.54101 l 1
 89.899762 854.17768 91.917916 869.69716 96.814437 884.38672 c 0
 101.28868 897.80944 108.62457 910.08983 116.50975 921.98437 c 1
578.12499 977.91797 m 1
 578.12499 838.54101 l 1
 508.43553 838.54101 l 1
 578.12499 977.91797 l 1
255.20897 977.91797 m 1
 324.89647 838.54101 l 1
 255.20897 838.54101 l 1
 255.20897 977.91797 l 1
88.541 977.91797 m 1
 110.56834 933.89258 l 1
 110.83983 933.32227 l 1
 101.39404 920.16289 93.911243 905.8515 88.541 890.75977 c 1
 88.541 977.91797 l 1
588.541 994.19531 m 1
 636.34335 992.6272 680.92204 970.19162 710.39452 932.42773 c 1
 663.43943 838.54101 l 1
 588.541 838.54101 l 1
 588.541 994.19531 l 1
244.791 994.19531 m 1
 244.791 838.54101 l 1
 169.89452 838.54101 l 1
 122.93748 932.42773 l 1
 130.1001 941.60538 137.94142 950.15407 146.7285 957.46484 c 0
 165.86477 973.38608 188.45506 984.66755 212.67381 990.42383 c 0
 223.09399 992.90048 233.90571 993.83823 244.791 994.19531 c 1
505.20897 994.79102 m 1
 574.89647 994.79102 l 1
 505.20897 855.41407 l 1
 505.20897 994.79102 l 1
338.541 994.79102 m 1
 494.791 994.79102 l 1
 494.791 838.54101 l 1
 338.541 838.54101 l 1
 338.541 994.79102 l 1
258.43553 994.79102 m 1
 328.12499 994.79102 l 1
 328.12499 855.41407 l 1
 258.43553 994.79102 l 1
91.769516 994.79102 m 1
 194.41795 994.79102 l 1
 174.79011 988.0274 156.10867 978.79968 140.08201 965.4668 c 0
 131.93714 958.69092 124.88021 950.56406 118.02928 942.27344 c 1
 117.56639 943.19727 l 1
 91.769516 994.79102 l 1
EndSplineSet
Validated: 524289
EndChar

StartChar: C
Encoding: 5 67 5
Width: 833
VWidth: 1024
HStem: 5.80467 155.654<169.895 244.791 588.541 663.439> 171.875 72.916<88.541 163.439 669.895 744.791> 255.209 62.5<147.597 154.08 168.836 205.105> 327.582 0.54296<182.482 185.768> 338.541 114.584<88.541 244.791> 464.221 154.893<194.391 244.791> 630.209 114.582<88.541 205.105> 755.209 72.916<88.541 163.439 211.561 244.791 588.541 621.771 669.895 744.791> 838.541 156.25<171.201 244.791 338.541 494.791 588.541 662.131>
VStem: 88.541 156.25<131.534 161.459 338.541 453.125 464.221 475.914 596.049 619.113 630.209 665.418 838.541 868.466> 338.541 156.25<85.5039 161.459 838.541 994.791> 669.895 74.8965<149.013 161.459 838.541 849.784>
LayerCount: 2
Fore
SplineSet
494.79102 70.74607 m 1
 494.79102 5.20896 l 1
 429.25391 5.20896 l 1
 494.79102 70.74607 l 1
338.54102 70.74607 m 1
 404.08007 5.20896 l 1
 338.54102 5.20896 l 1
 338.54102 70.74607 l 1
526.33985 102.29491 m 1
 574.89649 5.20896 l 1
 505.20899 5.20896 l 1
 505.20899 81.16405 l 1
 526.33985 102.29491 l 1
306.99414 102.29491 m 1
 328.125 81.16405 l 1
 328.125 5.20896 l 1
 258.43554 5.20896 l 1
 306.99414 102.29491 l 1
505.20899 144.58592 m 1
 521.42968 112.11327 l 1
 505.20899 95.91991 l 1
 505.20899 144.58592 l 1
328.125 144.58592 m 1
 328.125 95.91996 l 1
 311.90235 112.14256 l 1
 328.125 144.58592 l 1
578.125 154.08006 m 1
 578.125 22.08197 l 1
 534.125 110.10741 l 1
 578.125 154.08006 l 1
255.20899 154.08006 m 1
 299.20703 110.08006 l 1
 255.20899 22.08202 l 1
 255.20899 154.08006 l 1
675.10352 161.45896 m 1
 743.95117 161.45896 l 1
 742.96187 131.53414 733.33878 102.92731 716.82421 78.01562 c 1
 675.10352 161.45896 l 1
588.54102 161.45896 m 1
 663.43945 161.45896 l 1
 710.39453 67.57225 l 1
 680.92206 29.80838 636.34337 7.37278 588.54102 5.80467 c 1
 588.54102 161.45896 l 1
508.43554 161.45896 m 1
 570.74609 161.45896 l 1
 529.21485 119.92771 l 1
 508.43554 161.45896 l 1
338.54102 161.45896 m 1
 494.79102 161.45896 l 1
 494.79102 85.50389 l 1
 416.66602 7.37889 l 1
 338.54102 85.50389 l 1
 338.54102 161.45896 l 1
262.58593 161.45896 m 1
 324.89649 161.45896 l 1
 304.11718 119.92771 l 1
 262.58593 161.45896 l 1
169.89453 161.45896 m 1
 244.79101 161.45896 l 1
 244.79101 5.80467 l 1
 196.98867 7.37278 152.40998 29.80838 122.9375 67.57225 c 1
 169.89453 161.45896 l 1
89.382812 161.45896 m 1
 158.23047 161.45896 l 1
 136.99023 118.97851 l 1
 116.50977 78.01562 l 1
 99.995201 102.92731 90.372159 131.53414 89.382812 161.45896 c 1
637.45117 213.40623 m 1
 658.23046 171.87498 l 1
 595.91992 171.87498 l 1
 637.45117 213.40623 l 1
195.88281 213.40623 m 1
 237.41406 171.87498 l 1
 175.10352 171.87498 l 1
 195.88281 213.40623 l 1
668.83593 244.79101 m 1
 744.79102 244.79105 l 1
 744.79102 171.87502 l 1
 669.89453 171.87502 l 1
 645.23632 221.21873 l 1
 668.83593 244.79101 l 1
633.43555 244.79101 m 1
 654.08007 244.79101 l 1
 640.32617 231.03905 l 1
 633.43555 244.79101 l 1
588.54102 244.79101 m 1
 621.77149 244.79101 l 1
 632.54102 223.22459 l 1
 588.54102 179.25389 l 1
 588.54102 244.79101 l 1
211.56055 244.79101 m 1
 244.79101 244.79105 l 1
 244.79101 179.25393 l 1
 200.79297 223.25389 l 1
 211.56055 244.79101 l 1
179.25391 244.79101 m 1
 199.89648 244.79101 l 1
 193.00586 231.03905 l 1
 179.25391 244.79101 l 1
88.541016 244.79101 m 1
 164.49609 244.79097 l 1
 188.09766 221.19139 l 1
 163.43945 171.87498 l 1
 88.541016 171.87498 l 1
 88.541016 244.79101 l 1
124.97266 284.34178 m 1
 154.08008 255.20896 l 1
 95.837891 255.20896 l 1
 104.73343 265.73277 114.09708 275.82438 124.97266 284.34178 c 1
244.79101 311.25194 m 1
 244.79101 255.20896 l 1
 216.76953 255.20896 l 1
 244.79101 311.25194 l 1
88.541016 320.74608 m 1
 117.07812 292.23636 l 1
 117.67578 291.61131 l 1
 106.88864 283.03851 97.47236 272.98359 88.541016 262.50584 c 1
 88.541016 320.74608 l 1
240.83203 326.6328 m 1
 205.10547 255.20896 l 1
 168.83594 255.20896 l 1
 133.6543 290.39256 l 1
 149.87001 301.7839 167.15977 311.50766 185.76367 317.70897 c 0
 203.40571 323.58965 222.08021 325.7653 240.83203 326.6328 c 1
95.919922 328.12498 m 1
 185.81832 328.12498 l 1
 184.74355 327.78553 183.5516 327.93841 182.48238 327.58202 c 0
 162.32811 320.86392 143.49855 310.51835 126.00391 298.01366 c 1
 125.48828 298.55663 l 1
 95.919922 328.12498 l 1
88.541016 453.12498 m 1
 244.79101 453.12498 l 1
 244.79101 338.54101 l 1
 88.541016 338.54101 l 1
 88.541016 453.12498 l 1
107.01562 531.43944 m 1
 113.59205 521.40615 120.37252 511.50776 128.7168 503.20116 c 0
 139.31367 492.65212 151.21243 483.57523 164.0625 476.15623 c 0
 173.54553 470.6812 183.99715 467.12856 194.39063 463.54099 c 1
 89.220703 463.54099 l 1
 89.626439 475.91361 90.865653 488.22962 94.048828 500.10936 c 0
 96.973905 511.02586 101.84707 521.31911 107.01562 531.43944 c 1
88.541016 569.49804 m 1
 91.756914 560.14474 95.069702 550.81945 99.88086 542.10155 c 1
 99.636719 541.66599 l 1
 99.88086 541.23241 l 1
 95.069702 532.51451 91.756914 523.18726 88.541016 513.83397 c 1
 88.541016 569.49804 l 1
244.79101 619.11326 m 1
 244.79101 464.22069 l 1
 217.86427 465.1074 191.91927 472.08637 169.27148 485.16209 c 0
 146.06575 498.55992 126.48583 518.01005 112.16992 541.66599 c 1
 119.03984 553.01801 126.88469 563.61026 136.06836 572.75388 c 0
 164.69942 601.26011 203.51411 617.754 244.79101 619.11326 c 1
89.220703 619.791 m 1
 194.39063 619.791 l 1
 169.91337 611.34205 147.1339 598.46676 128.7168 580.1328 c 0
 120.37252 571.8262 113.59205 561.92586 107.01562 551.89256 c 1
 96.222448 573.02622 89.999277 596.04897 89.220703 619.791 c 1
216.76953 744.791 m 1
 244.79101 744.791 l 1
 244.79101 688.74804 l 1
 216.76953 744.791 l 1
88.541016 744.791 m 1
 205.10547 744.791 l 1
 244.79101 665.41795 l 1
 244.79101 630.20897 l 1
 88.541016 630.20897 l 1
 88.541016 744.791 l 1
669.89453 828.12498 m 1
 744.79102 828.12498 l 1
 744.79102 755.20897 l 1
 633.43555 755.20897 l 1
 669.89453 828.12498 l 1
588.54102 828.12498 m 1
 658.23046 828.12498 l 1
 621.77149 755.20897 l 1
 588.54102 755.20897 l 1
 588.54102 828.12498 l 1
175.10352 828.12498 m 1
 244.79101 828.12498 l 1
 244.79101 755.20897 l 1
 211.56055 755.20897 l 1
 175.10352 828.12498 l 1
88.541016 828.12498 m 1
 163.43945 828.12498 l 1
 199.89648 755.20897 l 1
 88.541016 755.20897 l 1
 88.541016 828.12498 l 1
716.82421 921.98436 m 1
 733.33878 897.07266 742.96182 868.46582 743.95117 838.541 c 1
 675.10352 838.541 l 1
 696.34375 881.02147 l 1
 716.82421 921.98436 l 1
116.50977 921.98436 m 1
 136.99023 881.02147 l 1
 158.23047 838.541 l 1
 89.382812 838.541 l 1
 90.372159 868.46582 99.995201 897.07266 116.50977 921.98436 c 1
578.125 977.91795 m 1
 578.125 838.541 l 1
 508.43554 838.541 l 1
 578.125 977.91795 l 1
255.20899 977.91795 m 1
 324.89649 838.541 l 1
 255.20899 838.541 l 1
 255.20899 977.91795 l 1
588.54102 994.1953 m 1
 636.34337 992.62718 680.92206 970.19161 710.39453 932.42772 c 1
 663.43945 838.541 l 1
 588.54102 838.541 l 1
 588.54102 994.1953 l 1
244.79101 994.1953 m 1
 244.79101 838.541 l 1
 169.89453 838.541 l 1
 122.9375 932.42772 l 1
 152.40998 970.19161 196.98867 992.62718 244.79101 994.1953 c 1
505.20899 994.791 m 1
 574.89649 994.791 l 1
 505.20899 855.41405 l 1
 505.20899 994.791 l 1
338.54102 994.791 m 1
 494.79102 994.791 l 1
 494.79102 838.541 l 1
 338.54102 838.541 l 1
 338.54102 994.791 l 1
258.43554 994.791 m 1
 328.125 994.791 l 1
 328.125 855.41405 l 1
 258.43554 994.791 l 1
EndSplineSet
Validated: 524289
EndChar

StartChar: D
Encoding: 6 68 6
Width: 833
VWidth: 1024
HStem: 5.20896 7.73047<166.266 192.064> 5.80467 155.654<194.418 244.791 588.541 663.439> 171.875 72.916<88.541 163.439 669.895 744.791> 255.209 62.5<147.597 154.08 168.836 205.105> 255.209 29.1328<708.361 716.262> 327.582 0.54296<182.482 185.768 647.566 650.852> 338.541 114.584<88.541 244.791 588.541 744.791> 464.221 154.893<194.391 244.791 588.541 638.943 638.943 638.943> 630.209 114.582<88.541 205.105 628.229 744.791> 755.209 72.916<88.541 163.439 211.561 244.791 588.541 621.771 669.895 744.791> 838.541 156.25<194.418 244.791 338.541 494.791 588.541 662.131>
VStem: 88.541 156.25<131.534 161.459 338.541 453.125 464.221 475.914 596.049 619.113 630.209 665.418 838.541 854.178> 338.541 156.25<85.5039 161.459 838.541 994.791> 588.541 156.25<131.534 161.459 338.541 453.125 464.221 475.914 607.418 619.113 630.209 665.447 838.541 868.466> 669.895 74.8965<149.013 161.459 838.541 849.784>
LayerCount: 2
Fore
SplineSet
118.0293 57.72655 m 1xa7f8
 133.44793 39.06773 151.92699 23.53746 173.12305 12.93943 c 0
 179.87676 9.56257 187.2648 7.67389 194.41797 5.20896 c 1
 91.769531 5.20896 l 1
 117.56641 56.80271 l 1
 118.0293 57.72655 l 1xa7f8
494.79102 70.74607 m 1
 494.79102 5.20896 l 1
 429.25391 5.20896 l 1
 494.79102 70.74607 l 1
338.54102 70.74607 m 1
 404.08007 5.20896 l 1
 338.54102 5.20896 l 1
 338.54102 70.74607 l 1
526.33985 102.29491 m 1
 574.89649 5.20896 l 1
 505.20899 5.20896 l 1
 505.20899 81.16405 l 1
 526.33985 102.29491 l 1
306.99414 102.29491 m 1
 328.125 81.16405 l 1
 328.125 5.20896 l 1
 258.43554 5.20896 l 1
 306.99414 102.29491 l 1
88.541016 109.24021 m 1
 93.911258 94.14848 101.39405 79.83709 110.83984 66.67771 c 1
 110.56836 66.10741 l 1
 95.324219 35.64452 l 1
 88.541016 22.08202 l 1
 88.541016 109.24021 l 1
505.20899 144.58592 m 1
 521.42968 112.11327 l 1
 505.20899 95.91991 l 1
 505.20899 144.58592 l 1
328.125 144.58592 m 1
 328.125 95.91996 l 1
 311.90235 112.14256 l 1
 328.125 144.58592 l 1
578.125 154.08006 m 1
 578.125 22.08197 l 1
 534.125 110.10741 l 1
 578.125 154.08006 l 1
255.20899 154.08006 m 1
 299.20703 110.08006 l 1
 255.20899 22.08202 l 1
 255.20899 154.08006 l 1
675.10352 161.45896 m 1
 743.95117 161.45896 l 1
 742.96187 131.53414 733.33878 102.92731 716.82421 78.01562 c 1
 675.10352 161.45896 l 1
588.54102 161.45896 m 1x67fc
 663.43945 161.45896 l 1
 710.39453 67.57225 l 1
 680.92206 29.80838 636.34337 7.37278 588.54102 5.80467 c 1
 588.54102 161.45896 l 1x67fc
508.43554 161.45896 m 1
 570.74609 161.45896 l 1
 529.21485 119.92771 l 1
 508.43554 161.45896 l 1
338.54102 161.45896 m 1
 494.79102 161.45896 l 1
 494.79102 85.50389 l 1
 416.66602 7.37889 l 1
 338.54102 85.50389 l 1
 338.54102 161.45896 l 1
262.58593 161.45896 m 1
 324.89649 161.45896 l 1
 304.11718 119.92771 l 1
 262.58593 161.45896 l 1
169.89453 161.45896 m 1
 244.79101 161.45896 l 1
 244.79101 5.80467 l 1
 196.98867 7.37278 152.40998 29.80838 122.9375 67.57225 c 1
 169.89453 161.45896 l 1
89.382812 161.45896 m 1
 158.23047 161.45896 l 1
 136.99023 118.97851 l 1
 116.50977 78.01562 l 1
 99.995201 102.92731 90.372159 131.53414 89.382812 161.45896 c 1
637.45117 213.40623 m 1
 658.23046 171.87498 l 1
 595.91992 171.87498 l 1
 637.45117 213.40623 l 1
195.88281 213.40623 m 1
 237.41406 171.87498 l 1
 175.10352 171.87498 l 1
 195.88281 213.40623 l 1
668.83593 244.79101 m 1
 744.79102 244.79105 l 1
 744.79102 171.87502 l 1
 669.89453 171.87502 l 1x27fa
 645.23632 221.21873 l 1
 668.83593 244.79101 l 1
633.43555 244.79101 m 1
 654.08007 244.79101 l 1
 640.32617 231.03905 l 1
 633.43555 244.79101 l 1
588.54102 244.79101 m 1
 621.77149 244.79101 l 1
 632.54102 223.22459 l 1
 588.54102 179.25389 l 1
 588.54102 244.79101 l 1
211.56055 244.79101 m 1
 244.79101 244.79105 l 1
 244.79101 179.25393 l 1
 200.79297 223.25389 l 1
 211.56055 244.79101 l 1
179.25391 244.79101 m 1
 199.89648 244.79101 l 1
 193.00586 231.03905 l 1
 179.25391 244.79101 l 1
88.541016 244.79101 m 1
 164.49609 244.79097 l 1
 188.09766 221.19139 l 1
 163.43945 171.87498 l 1
 88.541016 171.87498 l 1
 88.541016 244.79101 l 1
708.36132 284.34178 m 1x2ff8
 708.38867 284.34178 l 1
 719.23691 275.82438 728.60056 265.73277 737.49609 255.20896 c 1
 679.25391 255.20896 l 1
 708.36132 284.34178 l 1x2ff8
124.97266 284.34178 m 1
 154.08008 255.20896 l 1
 95.837891 255.20896 l 1
 104.73343 265.73277 114.09708 275.82438 124.97266 284.34178 c 1
588.54102 311.25194 m 1x27fc
 616.56445 255.20896 l 1
 588.54102 255.20896 l 1
 588.54102 311.25194 l 1x27fc
244.79101 311.25194 m 1
 244.79101 255.20896 l 1
 216.76953 255.20896 l 1
 244.79101 311.25194 l 1
744.79102 320.74608 m 1
 744.79102 262.50587 l 1
 735.85967 272.98362 726.44534 283.03983 715.6582 291.6406 c 1
 716.25391 292.23631 l 1
 744.79102 320.74608 l 1
88.541016 320.74608 m 1
 117.07812 292.23636 l 1
 117.67578 291.61131 l 1
 106.88864 283.03851 97.47236 272.98359 88.541016 262.50584 c 1
 88.541016 320.74608 l 1
592.50195 326.6328 m 1
 631.02796 324.85051 668.08666 312.58627 699.67969 290.39256 c 1
 664.49609 255.20896 l 1
 628.22852 255.20896 l 1
 592.50195 326.6328 l 1
240.83203 326.6328 m 1
 205.10547 255.20896 l 1
 168.83594 255.20896 l 1
 133.6543 290.39256 l 1
 149.87001 301.7839 167.15977 311.50766 185.76367 317.70897 c 0x37f8
 203.40571 323.58965 222.08021 325.7653 240.83203 326.6328 c 1
647.51563 328.12498 m 1
 737.41403 328.12498 l 1
 707.84567 298.55663 l 1
 707.30274 298.01366 l 1
 689.83541 310.51835 671.00584 320.86392 650.85156 327.58202 c 0
 649.783 327.9382 648.58989 327.7863 647.51563 328.12498 c 1
95.919922 328.12498 m 1
 185.81832 328.12498 l 1
 184.74355 327.78553 183.5516 327.93841 182.48238 327.58202 c 0
 162.32811 320.86392 143.49855 310.51835 126.00391 298.01366 c 1
 125.48828 298.55663 l 1
 95.919922 328.12498 l 1
588.54102 453.12498 m 1x27fc
 744.79102 453.12498 l 1
 744.79102 338.54101 l 1
 588.54102 338.54101 l 1
 588.54102 453.12498 l 1x27fc
88.541016 453.12498 m 1
 244.79101 453.12498 l 1
 244.79101 338.54101 l 1
 88.541016 338.54101 l 1
 88.541016 453.12498 l 1
726.31837 531.43944 m 1
 731.48692 521.31911 736.36007 511.02586 739.28516 500.10936 c 0
 742.46832 488.22962 743.70755 475.91361 744.11328 463.54099 c 1
 638.94337 463.54099 l 1
 674.51059 475.81791 705.22677 499.26113 726.31837 531.43944 c 1
107.01562 531.43944 m 1
 121.94383 508.6643 141.09393 489.41715 164.0625 476.15623 c 0
 173.54553 470.6812 183.99715 467.12856 194.39063 463.54099 c 1
 89.220703 463.54099 l 1
 89.626439 475.91361 90.865653 488.22962 94.048828 500.10936 c 0
 96.973905 511.02586 101.84707 521.31911 107.01562 531.43944 c 1
744.79102 569.49804 m 1
 744.79102 513.83397 l 1
 741.57512 523.18726 738.26428 532.51451 733.45313 541.23241 c 1
 733.69727 541.66599 l 1
 733.45313 542.10155 l 1
 738.26428 550.81945 741.57512 560.14474 744.79102 569.49804 c 1
88.541016 569.49804 m 1
 91.756914 560.14474 95.069702 550.81945 99.88086 542.10155 c 1
 99.636719 541.66599 l 1
 99.88086 541.23241 l 1
 95.069702 532.51451 91.756914 523.18726 88.541016 513.83397 c 1
 88.541016 569.49804 l 1
588.54102 619.11326 m 1
 601.1176 618.69909 613.5773 617.41518 625.46093 614.20311 c 0
 652.57992 606.87305 677.35812 592.57459 697.26563 572.75388 c 0
 706.4493 563.61026 714.29414 553.01801 721.16406 541.66599 c 1
 714.29414 530.31398 706.4493 519.72369 697.26563 510.58006 c 0
 677.35812 490.75936 652.57992 476.45895 625.46093 469.1289 c 0
 613.5773 465.91683 601.1176 464.63484 588.54102 464.22069 c 1
 588.54102 619.11326 l 1
244.79101 619.11326 m 1
 244.79101 464.22069 l 1
 217.86427 465.1074 191.91927 472.08637 169.27148 485.16209 c 0
 146.06575 498.55992 126.48583 518.01005 112.16992 541.66599 c 1
 119.03984 553.01801 126.88469 563.61026 136.06836 572.75388 c 0
 164.69942 601.26011 203.51411 617.754 244.79101 619.11326 c 1
638.94337 619.791 m 1
 744.11328 619.791 l 1
 743.70759 607.41838 742.46832 595.10431 739.28516 583.22459 c 0
 736.36007 572.30808 731.48692 562.0129 726.31837 551.89256 c 1
 719.74194 561.92586 712.96146 571.8262 704.61719 580.1328 c 0
 686.20009 598.46676 663.42063 611.34205 638.94337 619.791 c 1
89.220703 619.791 m 1
 194.39063 619.791 l 1
 169.91337 611.34205 147.1339 598.46676 128.7168 580.1328 c 0
 120.37252 571.8262 113.59205 561.92586 107.01562 551.89256 c 1
 96.222448 573.02622 89.999277 596.04897 89.220703 619.791 c 1
628.22852 744.791 m 1
 744.79102 744.791 l 1
 744.79102 630.20897 l 1
 588.54102 630.20897 l 1
 588.54102 665.44725 l 1
 628.22852 744.791 l 1
588.54102 744.791 m 1
 616.56445 744.791 l 1
 588.54102 688.74804 l 1
 588.54102 744.791 l 1
216.76953 744.791 m 1
 244.79101 744.791 l 1
 244.79101 688.74804 l 1
 216.76953 744.791 l 1
88.541016 744.791 m 1
 205.10547 744.791 l 1
 244.79101 665.41795 l 1
 244.79101 630.20897 l 1
 88.541016 630.20897 l 1
 88.541016 744.791 l 1
669.89453 828.12498 m 1
 744.79102 828.12498 l 1
 744.79102 755.20897 l 1
 633.43555 755.20897 l 1
 669.89453 828.12498 l 1
588.54102 828.12498 m 1
 658.23046 828.12498 l 1
 621.77149 755.20897 l 1
 588.54102 755.20897 l 1
 588.54102 828.12498 l 1
175.10352 828.12498 m 1
 244.79101 828.12498 l 1
 244.79101 755.20897 l 1
 211.56055 755.20897 l 1
 175.10352 828.12498 l 1
88.541016 828.12498 m 1
 163.43945 828.12498 l 1
 199.89648 755.20897 l 1
 88.541016 755.20897 l 1
 88.541016 828.12498 l 1
716.82421 921.98436 m 1
 733.33878 897.07266 742.96182 868.46582 743.95117 838.541 c 1
 675.10352 838.541 l 1
 696.34375 881.02147 l 1
 716.82421 921.98436 l 1
116.50977 921.98436 m 1
 136.99023 881.02147 l 1
 158.23047 838.541 l 1
 89.382812 838.541 l 1
 89.899777 854.17766 91.917932 869.69714 96.814453 884.3867 c 0
 101.28869 897.80942 108.62459 910.08982 116.50977 921.98436 c 1
578.125 977.91795 m 1
 578.125 838.541 l 1
 508.43554 838.541 l 1
 578.125 977.91795 l 1
255.20899 977.91795 m 1
 324.89649 838.541 l 1
 255.20899 838.541 l 1
 255.20899 977.91795 l 1
88.541016 977.91795 m 1
 110.56836 933.89256 l 1
 110.83984 933.32225 l 1
 101.39406 920.16288 93.911258 905.85149 88.541016 890.75975 c 1
 88.541016 977.91795 l 1
588.54102 994.1953 m 1
 636.34337 992.62718 680.92206 970.19161 710.39453 932.42772 c 1
 663.43945 838.541 l 1
 588.54102 838.541 l 1
 588.54102 994.1953 l 1
244.79101 994.1953 m 1
 244.79101 838.541 l 1
 169.89453 838.541 l 1
 122.9375 932.42772 l 1
 130.10011 941.60537 137.94144 950.15405 146.72852 957.46483 c 0
 156.29665 965.42544 166.72571 972.22416 177.78906 977.75584 c 0
 198.37249 988.04755 221.25583 993.42324 244.79101 994.1953 c 1
505.20899 994.791 m 1
 574.89649 994.791 l 1
 505.20899 855.41405 l 1
 505.20899 994.791 l 1
338.54102 994.791 m 1
 494.79102 994.791 l 1
 494.79102 838.541 l 1
 338.54102 838.541 l 1
 338.54102 994.791 l 1
258.43554 994.791 m 1
 328.125 994.791 l 1
 328.125 855.41405 l 1
 258.43554 994.791 l 1
91.769531 994.791 m 1
 194.41797 994.791 l 1
 174.79012 988.02739 156.10869 978.79966 140.08203 965.46678 c 0
 131.93716 958.69091 124.88022 950.56405 118.0293 942.27342 c 1
 117.56641 943.19725 l 1
 91.769531 994.791 l 1
EndSplineSet
Validated: 524289
EndChar

StartChar: E
Encoding: 7 69 7
Width: 833
VWidth: 1024
HStem: 5.20896 7.73047<166.266 192.064> 5.80467 155.654<194.418 244.791 588.541 638.916> 171.875 72.916<88.541 163.439> 255.209 62.5<147.597 154.08 168.836 205.105> 327.582 0.54296<182.482 185.768> 338.541 114.584<88.541 244.791> 463.541 156.25<194.391 244.791 255.209 267.605 399.061 434.271 565.729 578.125> 630.209 114.582<88.541 205.105> 755.209 72.916<88.541 163.439 211.561 244.791> 838.541 156.25<194.418 244.791 338.541 494.791 588.541 638.916> 987.061 7.73047<166.034 192.064 641.27 667.068>
VStem: 88.541 156.25<131.534 161.459 338.541 453.125 464.221 475.914 596.049 619.113 630.209 665.418 838.541 854.178> 255.209 72.916<5.20896 18.3324 463.541 498.752> 338.541 156.25<85.5039 161.459 463.541 498.752 838.541 994.791> 505.209 72.916<5.20896 18.3324 463.541 498.779> 675.104 68.8476<147.459 161.459 838.541 852.541>
LayerCount: 2
Fore
SplineSet
715.30469 57.72655 m 1xbf9f
 715.76563 56.80271 l 1
 741.56445 5.20896 l 1
 638.91602 5.20896 l 1
 658.54387 11.97257 677.22335 21.20031 693.25 34.53318 c 0
 701.39488 41.30906 708.45377 49.43592 715.30469 57.72655 c 1xbf9f
118.0293 57.72655 m 1
 133.44793 39.06773 151.92699 23.53746 173.12305 12.93943 c 0
 179.87676 9.56257 187.2648 7.67389 194.41797 5.20896 c 1
 91.769531 5.20896 l 1
 117.56641 56.80271 l 1
 118.0293 57.72655 l 1
494.79102 70.74607 m 1
 494.79102 5.20896 l 1
 429.25391 5.20896 l 1
 494.79102 70.74607 l 1
338.54102 70.74607 m 1
 404.08007 5.20896 l 1
 338.54102 5.20896 l 1
 338.54102 70.74607 l 1
526.33985 102.29491 m 1
 574.89649 5.20896 l 1
 505.20899 5.20896 l 1
 505.20899 81.16405 l 1
 526.33985 102.29491 l 1
306.99414 102.29491 m 1
 328.125 81.16405 l 1
 328.125 5.20896 l 1
 258.43554 5.20896 l 1
 306.99414 102.29491 l 1
744.79102 109.24021 m 1
 744.79102 22.08202 l 1
 722.76563 66.10741 l 1
 722.49414 66.67771 l 1
 731.93994 79.83709 739.42078 94.14848 744.79102 109.24021 c 1
88.541016 109.24021 m 1
 93.911258 94.14848 101.39405 79.83709 110.83984 66.67771 c 1
 110.56836 66.10741 l 1
 95.324219 35.64452 l 1
 88.541016 22.08202 l 1
 88.541016 109.24021 l 1
505.20899 144.58592 m 1
 521.42968 112.11327 l 1
 505.20899 95.91991 l 1
 505.20899 144.58592 l 1
328.125 144.58592 m 1
 328.125 95.91996 l 1
 311.90235 112.14256 l 1
 328.125 144.58592 l 1
578.125 154.08006 m 1
 578.125 22.08197 l 1
 534.125 110.10741 l 1
 578.125 154.08006 l 1
255.20899 154.08006 m 1
 299.20703 110.08006 l 1
 255.20899 22.08202 l 1
 255.20899 154.08006 l 1
675.10352 161.45896 m 1
 743.95117 161.45896 l 1
 743.43423 145.8223 741.41409 130.30282 736.51757 115.61327 c 0
 732.04334 102.19055 724.70939 89.91014 716.82421 78.01562 c 1
 675.10352 161.45896 l 1
588.54102 161.45896 m 1
 663.43945 161.45896 l 1
 710.39453 67.57225 l 1
 703.23194 58.39462 695.39253 49.84592 686.60546 42.53514 c 0
 659.23577 19.76377 624.7261 6.99168 588.54102 5.80467 c 1x7f9f
 588.54102 161.45896 l 1
508.43554 161.45896 m 1
 570.74609 161.45896 l 1
 529.21485 119.92771 l 1
 508.43554 161.45896 l 1
338.54102 161.45896 m 1
 494.79102 161.45896 l 1
 494.79102 85.50389 l 1
 416.66602 7.37889 l 1
 338.54102 85.50389 l 1
 338.54102 161.45896 l 1
262.58593 161.45896 m 1
 324.89649 161.45896 l 1
 304.11718 119.92771 l 1
 262.58593 161.45896 l 1
169.89453 161.45896 m 1
 244.79101 161.45896 l 1
 244.79101 5.80467 l 1
 221.25583 6.57671 198.37249 11.95241 177.78906 22.24413 c 0
 156.56547 32.85592 137.89939 48.40119 122.9375 67.57225 c 1
 169.89453 161.45896 l 1
89.382812 161.45896 m 1
 158.23047 161.45896 l 1
 136.99023 118.97851 l 1
 116.50977 78.01562 l 1
 99.995201 102.92731 90.372159 131.53414 89.382812 161.45896 c 1
195.88281 213.40623 m 1
 237.41406 171.87498 l 1
 175.10352 171.87498 l 1
 195.88281 213.40623 l 1
211.56055 244.79101 m 1
 244.79101 244.79105 l 1
 244.79101 179.25393 l 1
 200.79297 223.25389 l 1
 211.56055 244.79101 l 1
179.25391 244.79101 m 1
 199.89648 244.79101 l 1
 193.00586 231.03905 l 1
 179.25391 244.79101 l 1
88.541016 244.79101 m 1
 164.49609 244.79097 l 1
 188.09766 221.19139 l 1
 163.43945 171.87498 l 1
 88.541016 171.87498 l 1
 88.541016 244.79101 l 1
124.97266 284.34178 m 1
 154.08008 255.20896 l 1
 95.837891 255.20896 l 1
 104.73343 265.73277 114.09708 275.82438 124.97266 284.34178 c 1
244.79101 311.25194 m 1
 244.79101 255.20896 l 1
 216.76953 255.20896 l 1
 244.79101 311.25194 l 1
88.541016 320.74608 m 1
 117.07812 292.23636 l 1
 117.67578 291.61131 l 1
 106.88864 283.03851 97.47236 272.98359 88.541016 262.50584 c 1
 88.541016 320.74608 l 1
240.83203 326.6328 m 1
 205.10547 255.20896 l 1
 168.83594 255.20896 l 1
 133.6543 290.39256 l 1
 149.87001 301.7839 167.15977 311.50766 185.76367 317.70897 c 0
 203.40571 323.58965 222.08021 325.7653 240.83203 326.6328 c 1
95.919922 328.12498 m 1
 185.81832 328.12498 l 1
 184.74355 327.78553 183.5516 327.93841 182.48238 327.58202 c 0
 162.32811 320.86392 143.49855 310.51835 126.00391 298.01366 c 1
 125.48828 298.55663 l 1
 95.919922 328.12498 l 1
88.541016 453.12498 m 1
 244.79101 453.12498 l 1
 244.79101 338.54101 l 1
 88.541016 338.54101 l 1
 88.541016 453.12498 l 1
107.01562 531.43944 m 1
 121.94383 508.6643 141.09393 489.41715 164.0625 476.15623 c 0
 173.54553 470.6812 183.99715 467.12856 194.39063 463.54099 c 1
 89.220703 463.54099 l 1
 89.626439 475.91361 90.865653 488.22962 94.048828 500.10936 c 0
 96.973905 511.02586 101.84707 521.31911 107.01562 531.43944 c 1
88.541016 569.49804 m 1
 91.756914 560.14474 95.069702 550.81945 99.88086 542.10155 c 1
 99.636719 541.66599 l 1
 99.88086 541.23241 l 1
 95.069702 532.51451 91.756914 523.18726 88.541016 513.83397 c 1
 88.541016 569.49804 l 1
244.79101 619.11326 m 1
 244.79101 464.22069 l 1
 217.86427 465.1074 191.91927 472.08637 169.27148 485.16209 c 0
 157.20172 492.13056 146.02211 500.6697 136.06836 510.58006 c 0
 126.88469 519.72369 119.03984 530.31398 112.16992 541.66599 c 1
 119.03984 553.01801 126.88469 563.61026 136.06836 572.75388 c 0
 146.02211 582.66424 157.20172 591.20338 169.27148 598.17186 c 0
 181.34124 605.14034 194.31355 610.53808 207.87305 614.20311 c 0
 219.75669 617.41518 232.21443 618.69911 244.79101 619.11326 c 1
565.72852 619.791 m 1
 578.125 619.791 l 1
 578.125 463.54104 l 1
 505.20899 463.54104 l 1
 505.20899 498.77929 l 1
 565.72852 619.791 l 1
505.20899 619.791 m 1
 554.06445 619.791 l 1
 505.20899 522.08202 l 1
 505.20899 619.791 l 1
445.93554 619.791 m 1
 494.79102 619.791 l 1
 494.79102 522.08202 l 1
 445.93554 619.791 l 1
399.06054 619.791 m 1
 434.27149 619.791 l 1
 494.79102 498.75199 l 1
 494.79102 463.54104 l 1
 338.54102 463.54104 l 1
 338.54102 498.77929 l 1
 399.06054 619.791 l 1
338.54102 619.791 m 1
 387.39649 619.791 l 1
 338.54102 522.08202 l 1
 338.54102 619.791 l 1
279.26953 619.791 m 1
 328.125 619.791 l 1
 328.125 522.08202 l 1
 279.26953 619.791 l 1
255.20899 619.791 m 1
 267.60547 619.791 l 1
 328.125 498.75194 l 1
 328.125 463.54099 l 1
 255.20899 463.54099 l 1
 255.20899 619.791 l 1
89.220703 619.791 m 1
 194.39063 619.791 l 1
 183.99715 616.20343 173.54553 612.65275 164.0625 607.17772 c 0
 151.21243 599.75872 139.31367 590.68184 128.7168 580.1328 c 0
 120.37252 571.8262 113.59205 561.92586 107.01562 551.89256 c 1
 96.222448 573.02622 89.999277 596.04897 89.220703 619.791 c 1
216.76953 744.791 m 1
 244.79101 744.791 l 1
 244.79101 688.74804 l 1
 216.76953 744.791 l 1
88.541016 744.791 m 1
 205.10547 744.791 l 1
 244.79101 665.41795 l 1
 244.79101 630.20897 l 1
 88.541016 630.20897 l 1
 88.541016 744.791 l 1
175.10352 828.12498 m 1
 244.79101 828.12498 l 1
 244.79101 755.20897 l 1
 211.56055 755.20897 l 1
 175.10352 828.12498 l 1
88.541016 828.12498 m 1
 163.43945 828.12498 l 1
 199.89648 755.20897 l 1
 88.541016 755.20897 l 1
 88.541016 828.12498 l 1
716.82421 921.98436 m 1
 724.70939 910.08982 732.04334 897.80942 736.51757 884.3867 c 0
 741.41409 869.69714 743.43421 854.17766 743.95117 838.541 c 1
 675.10352 838.541 l 1x3fdf
 696.34375 881.02147 l 1
 716.82421 921.98436 l 1
116.50977 921.98436 m 1
 136.99023 881.02147 l 1
 158.23047 838.541 l 1
 89.382812 838.541 l 1
 89.899777 854.17766 91.917932 869.69714 96.814453 884.3867 c 0
 101.28869 897.80942 108.62459 910.08982 116.50977 921.98436 c 1
744.79102 977.91795 m 1
 744.79102 890.75975 l 1
 739.42078 905.85149 731.93994 920.16287 722.49414 933.32225 c 1
 722.76563 933.89256 l 1
 738.00977 964.35545 l 1
 744.79102 977.91795 l 1
578.125 977.91795 m 1
 578.125 838.541 l 1
 508.43554 838.541 l 1
 578.125 977.91795 l 1
255.20899 977.91795 m 1
 324.89649 838.541 l 1
 255.20899 838.541 l 1
 255.20899 977.91795 l 1
88.541016 977.91795 m 1
 110.56836 933.89256 l 1
 110.83984 933.32225 l 1
 101.39406 920.16288 93.911258 905.85149 88.541016 890.75975 c 1
 88.541016 977.91795 l 1
588.54102 994.1953 m 1
 612.0762 993.42325 634.96149 988.04755 655.54492 977.75584 c 0
 666.60827 972.22416 677.03732 965.42544 686.60546 957.46483 c 0
 695.39253 950.15405 703.23194 941.60537 710.39453 932.42772 c 1
 663.43945 838.541 l 1
 588.54102 838.541 l 1
 588.54102 994.1953 l 1
244.79101 994.1953 m 1
 244.79101 838.541 l 1
 169.89453 838.541 l 1
 122.9375 932.42772 l 1
 130.10011 941.60537 137.94144 950.15405 146.72852 957.46483 c 0
 174.09821 980.2362 208.60593 993.00828 244.79101 994.1953 c 1
638.91602 994.791 m 1
 741.56445 994.791 l 1
 715.76563 943.19725 l 1
 715.30469 942.27342 l 1
 699.886 960.93223 681.407 976.4625 660.21093 987.06053 c 0x3fbf
 653.45723 990.43739 646.06918 992.32607 638.91602 994.791 c 1
505.20899 994.791 m 1
 574.89649 994.791 l 1
 505.20899 855.41405 l 1
 505.20899 994.791 l 1
338.54102 994.791 m 1x3fdf
 494.79102 994.791 l 1
 494.79102 838.541 l 1
 338.54102 838.541 l 1
 338.54102 994.791 l 1x3fdf
258.43554 994.791 m 1x3fbf
 328.125 994.791 l 1
 328.125 855.41405 l 1
 258.43554 994.791 l 1x3fbf
91.769531 994.791 m 1
 194.41797 994.791 l 1x3fdf
 187.2648 992.32607 179.87676 990.43739 173.12305 987.06053 c 0
 161.34498 981.1715 150.26794 973.94063 140.08203 965.46678 c 0
 131.93716 958.69091 124.88022 950.56405 118.0293 942.27342 c 1
 117.56641 943.19725 l 1
 91.769531 994.791 l 1
EndSplineSet
Validated: 524289
EndChar

StartChar: F
Encoding: 8 70 8
Width: 833
VWidth: 1024
HStem: 5.20896 7.73047<166.034 192.064> 171.875 72.916<88.541 163.439> 255.209 62.5<147.597 154.08 168.836 205.105> 327.582 0.54296<182.482 185.768> 338.541 114.584<88.541 244.791> 463.541 156.25<194.391 244.791 255.209 267.605 399.061 434.271 565.729 578.125> 630.209 114.582<88.541 205.105> 755.209 72.916<88.541 163.439 211.561 244.791> 838.541 156.25<194.418 244.791 338.541 494.791 588.541 638.916> 987.061 7.73047<166.034 192.064>
VStem: 88.541 156.25<131.534 161.459 338.541 453.125 464.221 475.914 596.049 619.113 630.209 665.418 838.541 854.178> 255.209 72.916<463.541 498.752> 338.541 156.25<463.541 498.752 838.541 994.791> 505.209 72.916<463.541 498.779>
LayerCount: 2
Fore
SplineSet
118.0293 57.72655 m 1xff3c
 124.88022 49.43592 131.93716 41.30906 140.08203 34.53318 c 0
 150.26794 26.05934 161.34498 18.82846 173.12305 12.93943 c 0
 179.87676 9.56257 187.2648 7.67389 194.41797 5.20896 c 1
 91.769531 5.20896 l 1
 117.56641 56.80271 l 1
 118.0293 57.72655 l 1xff3c
88.541016 109.24021 m 1
 93.911258 94.14848 101.39405 79.83709 110.83984 66.67771 c 1
 110.56836 66.10741 l 1
 95.324219 35.64452 l 1
 88.541016 22.08202 l 1
 88.541016 109.24021 l 1
169.89453 161.45896 m 1
 244.79101 161.45896 l 1
 244.79101 5.80467 l 1
 208.60593 6.99168 174.09821 19.76377 146.72852 42.53514 c 0
 137.94144 49.84592 130.10011 58.39462 122.9375 67.57225 c 1
 169.89453 161.45896 l 1
89.382812 161.45896 m 1
 158.23047 161.45896 l 1
 136.99023 118.97851 l 1
 116.50977 78.01562 l 1
 99.995201 102.92731 90.372159 131.53414 89.382812 161.45896 c 1
195.88281 213.40623 m 1
 237.41406 171.87498 l 1
 175.10352 171.87498 l 1
 195.88281 213.40623 l 1
211.56055 244.79101 m 1
 244.79101 244.79105 l 1
 244.79101 179.25393 l 1
 200.79297 223.25389 l 1
 211.56055 244.79101 l 1
179.25391 244.79101 m 1
 199.89648 244.79101 l 1
 193.00586 231.03905 l 1
 179.25391 244.79101 l 1
88.541016 244.79101 m 1
 164.49609 244.79097 l 1
 188.09766 221.19139 l 1
 163.43945 171.87498 l 1
 88.541016 171.87498 l 1
 88.541016 244.79101 l 1
124.97266 284.34178 m 1
 154.08008 255.20896 l 1
 95.837891 255.20896 l 1
 104.73343 265.73277 114.09708 275.82438 124.97266 284.34178 c 1
244.79101 311.25194 m 1
 244.79101 255.20896 l 1
 216.76953 255.20896 l 1
 244.79101 311.25194 l 1
88.541016 320.74608 m 1
 117.07812 292.23636 l 1
 117.67578 291.61131 l 1
 106.88864 283.03851 97.47236 272.98359 88.541016 262.50584 c 1
 88.541016 320.74608 l 1
240.83203 326.6328 m 1
 205.10547 255.20896 l 1
 168.83594 255.20896 l 1
 133.6543 290.39256 l 1
 149.87001 301.7839 167.15977 311.50766 185.76367 317.70897 c 0
 203.40571 323.58965 222.08021 325.7653 240.83203 326.6328 c 1
95.919922 328.12498 m 1
 185.81832 328.12498 l 1
 184.74355 327.78553 183.5516 327.93841 182.48238 327.58202 c 0
 162.32811 320.86392 143.49855 310.51835 126.00391 298.01366 c 1
 125.48828 298.55663 l 1
 95.919922 328.12498 l 1
88.541016 453.12498 m 1
 244.79101 453.12498 l 1
 244.79101 338.54101 l 1
 88.541016 338.54101 l 1
 88.541016 453.12498 l 1
107.01562 531.43944 m 1
 113.59205 521.40615 120.37252 511.50776 128.7168 503.20116 c 0
 139.31367 492.65212 151.21243 483.57523 164.0625 476.15623 c 0
 173.54553 470.6812 183.99715 467.12856 194.39063 463.54099 c 1
 89.220703 463.54099 l 1
 89.626439 475.91361 90.865653 488.22962 94.048828 500.10936 c 0
 96.973905 511.02586 101.84707 521.31911 107.01562 531.43944 c 1
88.541016 569.49804 m 1
 91.756914 560.14474 95.069702 550.81945 99.88086 542.10155 c 1
 99.636719 541.66599 l 1
 99.88086 541.23241 l 1
 95.069702 532.51451 91.756914 523.18726 88.541016 513.83397 c 1
 88.541016 569.49804 l 1
244.79101 619.11326 m 1
 244.79101 464.22069 l 1
 190.27417 466.01595 140.45755 494.92287 112.16992 541.66599 c 1
 119.03984 553.01801 126.88469 563.61026 136.06836 572.75388 c 0
 164.69942 601.26011 203.51411 617.754 244.79101 619.11326 c 1
565.72852 619.791 m 1
 578.125 619.791 l 1
 578.125 463.54104 l 1
 505.20899 463.54104 l 1
 505.20899 498.77929 l 1
 565.72852 619.791 l 1
505.20899 619.791 m 1
 554.06445 619.791 l 1
 505.20899 522.08202 l 1
 505.20899 619.791 l 1
445.93554 619.791 m 1
 494.79102 619.791 l 1
 494.79102 522.08202 l 1
 445.93554 619.791 l 1
399.06054 619.791 m 1
 434.27149 619.791 l 1
 494.79102 498.75199 l 1
 494.79102 463.54104 l 1
 338.54102 463.54104 l 1
 338.54102 498.77929 l 1
 399.06054 619.791 l 1
338.54102 619.791 m 1
 387.39649 619.791 l 1
 338.54102 522.08202 l 1
 338.54102 619.791 l 1
279.26953 619.791 m 1
 328.125 619.791 l 1
 328.125 522.08202 l 1
 279.26953 619.791 l 1
255.20899 619.791 m 1
 267.60547 619.791 l 1
 328.125 498.75194 l 1
 328.125 463.54099 l 1
 255.20899 463.54099 l 1
 255.20899 619.791 l 1
89.220703 619.791 m 1
 194.39063 619.791 l 1
 183.99715 616.20343 173.54553 612.65275 164.0625 607.17772 c 0
 151.21243 599.75872 139.31367 590.68184 128.7168 580.1328 c 0
 120.37252 571.8262 113.59205 561.92586 107.01562 551.89256 c 1
 96.222448 573.02622 89.999277 596.04897 89.220703 619.791 c 1
216.76953 744.791 m 1
 244.79101 744.791 l 1
 244.79101 688.74804 l 1
 216.76953 744.791 l 1
88.541016 744.791 m 1
 205.10547 744.791 l 1
 244.79101 665.41795 l 1
 244.79101 630.20897 l 1
 88.541016 630.20897 l 1
 88.541016 744.791 l 1
175.10352 828.12498 m 1
 244.79101 828.12498 l 1
 244.79101 755.20897 l 1
 211.56055 755.20897 l 1
 175.10352 828.12498 l 1
88.541016 828.12498 m 1
 163.43945 828.12498 l 1
 199.89648 755.20897 l 1
 88.541016 755.20897 l 1
 88.541016 828.12498 l 1
716.82421 921.98436 m 1
 724.70939 910.08982 732.04334 897.80942 736.51757 884.3867 c 0
 741.41409 869.69714 743.43421 854.17766 743.95117 838.541 c 1
 675.10352 838.541 l 1xffbc
 696.34375 881.02147 l 1
 716.82421 921.98436 l 1
116.50977 921.98436 m 1
 136.99023 881.02147 l 1
 158.23047 838.541 l 1
 89.382812 838.541 l 1
 89.899777 854.17766 91.917932 869.69714 96.814453 884.3867 c 0
 101.28869 897.80942 108.62459 910.08982 116.50977 921.98436 c 1
744.79102 977.91795 m 1
 744.79102 890.75975 l 1
 739.42078 905.85149 731.93994 920.16287 722.49414 933.32225 c 1
 722.76563 933.89256 l 1
 738.00977 964.35545 l 1
 744.79102 977.91795 l 1
578.125 977.91795 m 1
 578.125 838.541 l 1
 508.43554 838.541 l 1
 578.125 977.91795 l 1
255.20899 977.91795 m 1
 324.89649 838.541 l 1
 255.20899 838.541 l 1
 255.20899 977.91795 l 1
88.541016 977.91795 m 1
 110.56836 933.89256 l 1
 110.83984 933.32225 l 1
 101.39406 920.16288 93.911258 905.85149 88.541016 890.75975 c 1
 88.541016 977.91795 l 1
588.54102 994.1953 m 1
 599.42631 993.83821 610.23999 992.90046 620.66016 990.42381 c 0
 644.87891 984.66753 667.46918 973.38606 686.60546 957.46483 c 0
 695.39253 950.15405 703.23194 941.60537 710.39453 932.42772 c 1
 663.43945 838.541 l 1
 588.54102 838.541 l 1
 588.54102 994.1953 l 1
244.79101 994.1953 m 1
 244.79101 838.541 l 1
 169.89453 838.541 l 1
 122.9375 932.42772 l 1
 130.10011 941.60537 137.94144 950.15405 146.72852 957.46483 c 0
 156.29665 965.42544 166.72571 972.22416 177.78906 977.75584 c 0
 188.85242 983.28752 200.56445 987.54567 212.67383 990.42381 c 0
 223.094 992.90046 233.90572 993.83821 244.79101 994.1953 c 1
638.91602 994.791 m 1
 741.56445 994.791 l 1xff7c
 715.76563 943.19725 l 1
 715.30469 942.27342 l 1
 694.97316 966.8775 668.51889 984.59006 638.91602 994.791 c 1
505.20899 994.791 m 1
 574.89649 994.791 l 1
 505.20899 855.41405 l 1
 505.20899 994.791 l 1
338.54102 994.791 m 1xffbc
 494.79102 994.791 l 1
 494.79102 838.541 l 1
 338.54102 838.541 l 1
 338.54102 994.791 l 1xffbc
258.43554 994.791 m 1xff7c
 328.125 994.791 l 1
 328.125 855.41405 l 1
 258.43554 994.791 l 1xff7c
91.769531 994.791 m 1
 194.41797 994.791 l 1xffbc
 187.2648 992.32607 179.87676 990.43739 173.12305 987.06053 c 0
 161.34498 981.1715 150.26794 973.94063 140.08203 965.46678 c 0
 131.93716 958.69091 124.88022 950.56405 118.0293 942.27342 c 1
 117.56641 943.19725 l 1
 91.769531 994.791 l 1
EndSplineSet
Validated: 524289
EndChar

StartChar: G
Encoding: 9 71 9
Width: 833
VWidth: 1024
HStem: 5.80467 155.654<169.895 244.791 588.541 663.439> 171.875 72.916<88.541 163.439 669.895 744.791> 255.209 62.5<147.597 154.08 168.836 205.105> 255.209 29.1328<708.361 716.262> 327.582 0.54296<182.482 185.768> 328.125 5.68434e-14<184.744 185.818> 338.541 114.584<88.541 244.791 588.541 744.791> 463.541 156.25<194.391 244.791 565.729 578.125 588.541 638.943> 630.209 114.582<88.541 205.105> 755.209 72.916<88.541 163.439 211.561 244.791> 838.541 156.25<171.201 244.791 338.541 494.791 588.541 662.131>
VStem: 88.541 156.25<131.534 161.459 338.541 453.125 464.221 475.914 596.049 619.113 630.209 665.418 838.541 868.466> 338.541 156.25<85.5039 161.459 838.541 994.791> 505.209 72.916<5.20896 18.3324 463.541 498.779> 588.541 156.25<131.534 161.459 338.541 453.125 485.162 487.283 607.418 619.113 838.541 868.466> 669.895 74.8965<149.013 161.459 838.541 849.784>
LayerCount: 2
Fore
SplineSet
494.79102 70.74607 m 1xc3fc
 494.79102 5.20896 l 1
 429.25391 5.20896 l 1
 494.79102 70.74607 l 1xc3fc
338.54102 70.74607 m 1
 404.08007 5.20896 l 1
 338.54102 5.20896 l 1
 338.54102 70.74607 l 1
526.33985 102.29491 m 1
 574.89649 5.20896 l 1
 505.20899 5.20896 l 1
 505.20899 81.16405 l 1
 526.33985 102.29491 l 1
306.99414 102.29491 m 1
 328.125 81.16405 l 1
 328.125 5.20896 l 1
 258.43554 5.20896 l 1
 306.99414 102.29491 l 1
505.20899 144.58592 m 1
 521.42968 112.11327 l 1
 505.20899 95.91991 l 1
 505.20899 144.58592 l 1
328.125 144.58592 m 1
 328.125 95.91996 l 1
 311.90235 112.14256 l 1
 328.125 144.58592 l 1
578.125 154.08006 m 1
 578.125 22.08197 l 1
 534.125 110.10741 l 1
 578.125 154.08006 l 1
255.20899 154.08006 m 1
 299.20703 110.08006 l 1
 255.20899 22.08202 l 1
 255.20899 154.08006 l 1
675.10352 161.45896 m 1
 743.95117 161.45896 l 1
 742.96187 131.53414 733.33878 102.92731 716.82421 78.01562 c 1
 675.10352 161.45896 l 1
588.54102 161.45896 m 1xc3fe
 663.43945 161.45896 l 1
 710.39453 67.57225 l 1
 680.92206 29.80838 636.34337 7.37278 588.54102 5.80467 c 1
 588.54102 161.45896 l 1xc3fe
508.43554 161.45896 m 1
 570.74609 161.45896 l 1
 529.21485 119.92771 l 1
 508.43554 161.45896 l 1
338.54102 161.45896 m 1
 494.79102 161.45896 l 1
 494.79102 85.50389 l 1
 416.66602 7.37889 l 1
 338.54102 85.50389 l 1
 338.54102 161.45896 l 1
262.58593 161.45896 m 1
 324.89649 161.45896 l 1
 304.11718 119.92771 l 1
 262.58593 161.45896 l 1
169.89453 161.45896 m 1
 244.79101 161.45896 l 1
 244.79101 5.80467 l 1
 196.98867 7.37278 152.40998 29.80838 122.9375 67.57225 c 1
 169.89453 161.45896 l 1
89.382812 161.45896 m 1
 158.23047 161.45896 l 1
 136.99023 118.97851 l 1
 116.50977 78.01562 l 1
 99.995201 102.92731 90.372159 131.53414 89.382812 161.45896 c 1
637.45117 213.40623 m 1
 658.23046 171.87498 l 1
 595.91992 171.87498 l 1
 637.45117 213.40623 l 1
195.88281 213.40623 m 1
 237.41406 171.87498 l 1
 175.10352 171.87498 l 1
 195.88281 213.40623 l 1
668.83593 244.79101 m 1
 744.79102 244.79105 l 1
 744.79102 171.87502 l 1
 669.89453 171.87502 l 1xc3fd
 645.23632 221.21873 l 1
 668.83593 244.79101 l 1
633.43555 244.79101 m 1
 654.08007 244.79101 l 1
 640.32617 231.03905 l 1
 633.43555 244.79101 l 1
588.54102 244.79101 m 1
 621.77149 244.79101 l 1
 632.54102 223.22459 l 1
 588.54102 179.25389 l 1
 588.54102 244.79101 l 1
211.56055 244.79101 m 1
 244.79101 244.79105 l 1
 244.79101 179.25393 l 1
 200.79297 223.25389 l 1
 211.56055 244.79101 l 1
179.25391 244.79101 m 1
 199.89648 244.79101 l 1
 193.00586 231.03905 l 1
 179.25391 244.79101 l 1
88.541016 244.79101 m 1
 164.49609 244.79097 l 1
 188.09766 221.19139 l 1
 163.43945 171.87498 l 1
 88.541016 171.87498 l 1
 88.541016 244.79101 l 1
708.36132 284.34178 m 1xd3fc
 708.38867 284.34178 l 1
 719.23691 275.82438 728.60056 265.73277 737.49609 255.20896 c 1
 679.25391 255.20896 l 1
 708.36132 284.34178 l 1xd3fc
124.97266 284.34178 m 1
 154.08008 255.20896 l 1
 95.837891 255.20896 l 1
 104.73343 265.73277 114.09708 275.82438 124.97266 284.34178 c 1
588.54102 311.25194 m 1xc3fe
 616.56445 255.20896 l 1
 588.54102 255.20896 l 1
 588.54102 311.25194 l 1xc3fe
244.79101 311.25194 m 1
 244.79101 255.20896 l 1
 216.76953 255.20896 l 1
 244.79101 311.25194 l 1
744.79102 320.74608 m 1
 744.79102 262.50587 l 1
 735.85967 272.98362 726.44534 283.03983 715.6582 291.6406 c 1
 716.25391 292.23631 l 1
 744.79102 320.74608 l 1
88.541016 320.74608 m 1
 117.07812 292.23636 l 1
 117.67578 291.61131 l 1
 106.88864 283.03851 97.47236 272.98359 88.541016 262.50584 c 1
 88.541016 320.74608 l 1
592.50195 326.6328 m 1
 631.02796 324.85051 668.08666 312.58627 699.67969 290.39256 c 1
 664.49609 255.20896 l 1
 628.22852 255.20896 l 1
 592.50195 326.6328 l 1
240.83203 326.6328 m 1
 205.10547 255.20896 l 1
 168.83594 255.20896 l 1
 133.6543 290.39256 l 1
 149.87001 301.7839 167.15977 311.50766 185.76367 317.70897 c 0xe3fc
 203.40571 323.58965 222.08021 325.7653 240.83203 326.6328 c 1
647.51563 328.12498 m 1xc7fc
 737.41403 328.12498 l 1
 707.84567 298.55663 l 1
 707.30274 298.01366 l 1
 688.90938 311.1817 668.84909 321.38713 647.51563 328.12498 c 1xc7fc
95.919922 328.12498 m 1
 185.81832 328.12498 l 1xc7fc
 184.74355 327.78553 183.5516 327.93841 182.48238 327.58202 c 0xcbfc
 162.32811 320.86392 143.49855 310.51835 126.00391 298.01366 c 1
 125.48828 298.55663 l 1
 95.919922 328.12498 l 1
588.54102 453.12498 m 1xc3fe
 744.79102 453.12498 l 1
 744.79102 338.54101 l 1
 588.54102 338.54101 l 1
 588.54102 453.12498 l 1xc3fe
88.541016 453.12498 m 1
 244.79101 453.12498 l 1
 244.79101 338.54101 l 1
 88.541016 338.54101 l 1
 88.541016 453.12498 l 1
726.31837 531.43944 m 1
 737.11155 510.30579 743.33471 487.28302 744.11328 463.54099 c 1
 638.94337 463.54099 l 1
 649.33684 467.12856 659.78846 470.6812 669.27149 476.15623 c 0
 692.24006 489.41715 711.39016 508.6643 726.31837 531.43944 c 1
107.01562 531.43944 m 1
 121.94383 508.6643 141.09393 489.41715 164.0625 476.15623 c 0
 173.54553 470.6812 183.99715 467.12856 194.39063 463.54099 c 1
 89.220703 463.54099 l 1
 89.626439 475.91361 90.865653 488.22962 94.048828 500.10936 c 0
 96.973905 511.02586 101.84707 521.31911 107.01562 531.43944 c 1
744.79102 569.49804 m 1
 744.79102 513.83397 l 1
 741.57512 523.18726 738.26428 532.51451 733.45313 541.23241 c 1
 733.69727 541.66599 l 1
 733.45313 542.10155 l 1
 738.26428 550.81945 741.57512 560.14474 744.79102 569.49804 c 1
88.541016 569.49804 m 1
 91.756914 560.14474 95.069702 550.81945 99.88086 542.10155 c 1
 99.636719 541.66599 l 1
 99.88086 541.23241 l 1
 95.069702 532.51451 91.756914 523.18726 88.541016 513.83397 c 1
 88.541016 569.49804 l 1
588.54102 619.11326 m 1
 601.1176 618.69909 613.5773 617.41518 625.46093 614.20311 c 0
 652.57992 606.87305 677.35812 592.57459 697.26563 572.75388 c 0
 706.4493 563.61026 714.29414 553.01801 721.16406 541.66599 c 1
 706.84814 518.01005 687.26824 498.55992 664.0625 485.16209 c 0
 651.99274 478.19361 639.02043 472.79392 625.46093 469.1289 c 0
 613.5773 465.91683 601.1176 464.63484 588.54102 464.22069 c 1
 588.54102 619.11326 l 1
244.79101 619.11326 m 1
 244.79101 464.22069 l 1
 217.86427 465.1074 191.91927 472.08637 169.27148 485.16209 c 0
 146.06575 498.55992 126.48583 518.01005 112.16992 541.66599 c 1
 119.03984 553.01801 126.88469 563.61026 136.06836 572.75388 c 0
 155.97587 592.57459 180.75406 606.87305 207.87305 614.20311 c 0
 219.75669 617.41518 232.21443 618.69911 244.79101 619.11326 c 1
638.94337 619.791 m 1
 744.11328 619.791 l 1
 743.70759 607.41838 742.46832 595.10431 739.28516 583.22459 c 0
 736.36007 572.30808 731.48692 562.0129 726.31837 551.89256 c 1
 711.39016 574.6677 692.24006 593.9168 669.27149 607.17772 c 0
 659.78846 612.65275 649.33684 616.20343 638.94337 619.791 c 1
565.72852 619.791 m 1
 578.125 619.791 l 1
 578.125 463.54104 l 1
 505.20899 463.54104 l 1
 505.20899 498.77929 l 1
 565.72852 619.791 l 1
505.20899 619.791 m 1
 554.06445 619.791 l 1
 505.20899 522.08202 l 1
 505.20899 619.791 l 1
89.220703 619.791 m 1
 194.39063 619.791 l 1
 183.99715 616.20343 173.54553 612.65275 164.0625 607.17772 c 0
 151.21243 599.75872 139.31367 590.68184 128.7168 580.1328 c 0
 120.37252 571.8262 113.59205 561.92586 107.01562 551.89256 c 1
 96.222448 573.02622 89.999277 596.04897 89.220703 619.791 c 1
216.76953 744.791 m 1
 244.79101 744.791 l 1
 244.79101 688.74804 l 1
 216.76953 744.791 l 1
88.541016 744.791 m 1
 205.10547 744.791 l 1
 244.79101 665.41795 l 1
 244.79101 630.20897 l 1
 88.541016 630.20897 l 1
 88.541016 744.791 l 1
175.10352 828.12498 m 1
 244.79101 828.12498 l 1
 244.79101 755.20897 l 1
 211.56055 755.20897 l 1
 175.10352 828.12498 l 1
88.541016 828.12498 m 1
 163.43945 828.12498 l 1
 199.89648 755.20897 l 1
 88.541016 755.20897 l 1
 88.541016 828.12498 l 1
716.82421 921.98436 m 1
 733.33878 897.07266 742.96182 868.46582 743.95117 838.541 c 1
 675.10352 838.541 l 1
 696.34375 881.02147 l 1
 716.82421 921.98436 l 1
116.50977 921.98436 m 1
 136.99023 881.02147 l 1
 158.23047 838.541 l 1
 89.382812 838.541 l 1
 90.372159 868.46582 99.995201 897.07266 116.50977 921.98436 c 1
578.125 977.91795 m 1
 578.125 838.541 l 1
 508.43554 838.541 l 1
 578.125 977.91795 l 1
255.20899 977.91795 m 1
 324.89649 838.541 l 1
 255.20899 838.541 l 1
 255.20899 977.91795 l 1
588.54102 994.1953 m 1
 636.34337 992.62718 680.92206 970.19161 710.39453 932.42772 c 1
 663.43945 838.541 l 1
 588.54102 838.541 l 1
 588.54102 994.1953 l 1
244.79101 994.1953 m 1
 244.79101 838.541 l 1
 169.89453 838.541 l 1
 122.9375 932.42772 l 1
 152.40998 970.19161 196.98867 992.62718 244.79101 994.1953 c 1
505.20899 994.791 m 1
 574.89649 994.791 l 1
 505.20899 855.41405 l 1
 505.20899 994.791 l 1
338.54102 994.791 m 1
 494.79102 994.791 l 1
 494.79102 838.541 l 1
 338.54102 838.541 l 1
 338.54102 994.791 l 1
258.43554 994.791 m 1
 328.125 994.791 l 1
 328.125 855.41405 l 1
 258.43554 994.791 l 1
EndSplineSet
Validated: 524289
EndChar

StartChar: H
Encoding: 10 72 10
Width: 833
VWidth: 1024
HStem: 5.20898 7.73047<166.034 192.064> 5.80469 155.654<194.418 244.791 588.541 638.916> 171.875 72.916<88.541 163.439 669.895 744.791> 255.209 29.1328<708.361 716.262> 255.209 62.5<147.597 154.08 168.836 205.105> 327.582 0.54295<182.482 185.768> 328.125 5.68434e-14<184.744 185.818> 338.541 114.584<88.541 244.791 588.541 744.791> 463.541 156.25<194.391 244.791 255.209 267.605 399.061 434.271 565.728 578.125 588.541 638.943 638.943 638.943> 630.209 114.582<88.541 205.105 628.228 744.791> 755.209 72.916<88.541 163.439 211.561 244.791 588.541 621.771 669.895 744.791> 838.541 155.654<194.418 244.791 588.541 638.916>
VStem: 88.541 156.25<131.534 161.459 338.541 453.125 464.221 475.914 596.049 619.113 630.209 665.418 838.541 854.178> 255.209 72.916<463.541 498.752> 505.209 72.916<463.541 498.779> 588.541 156.25<131.534 161.459 338.541 453.125 464.221 475.914 596.049 619.113 630.209 665.447 838.541 868.466> 669.895 74.8965<149.013 161.459 838.541 849.784>
LayerCount: 2
Fore
SplineSet
715.30467 57.72656 m 1xa1fe
 715.76561 56.80273 l 1
 741.56443 5.20898 l 1
 638.916 5.20898 l 1
 668.51888 15.40991 694.97318 33.12248 715.30467 57.72656 c 1xa1fe
118.02928 57.72656 m 1
 124.88021 49.43594 131.93714 41.30908 140.08201 34.5332 c 0
 150.26792 26.05935 161.34497 18.82848 173.12303 12.93945 c 0
 179.87675 9.56259 187.26479 7.67391 194.41795 5.20898 c 1
 91.769516 5.20898 l 1
 117.56639 56.80273 l 1
 118.02928 57.72656 l 1
744.791 109.24023 m 1x21ff
 744.791 22.08203 l 1x21fe80
 722.76561 66.10742 l 1
 722.49413 66.67773 l 1
 731.93991 79.83703 739.42077 94.14849 744.791 109.24023 c 1x21ff
88.541 109.24023 m 1
 93.911243 94.14849 101.39404 79.8371 110.83983 66.67773 c 1
 110.56834 66.10742 l 1
 95.324203 35.64453 l 1
 88.541 22.08203 l 1
 88.541 109.24023 l 1
675.1035 161.45898 m 1
 743.95116 161.45898 l 1
 742.96185 131.53416 733.33877 102.92733 716.8242 78.01563 c 1
 675.1035 161.45898 l 1
588.541 161.45898 m 1x61ff
 663.43943 161.45898 l 1
 710.39452 67.57227 l 1
 703.23192 58.39463 695.39252 49.84594 686.60545 42.53516 c 0
 677.03731 34.57455 666.60825 27.77581 655.54491 22.24414 c 0
 644.48154 16.71246 632.76952 12.45431 620.66014 9.57617 c 0
 610.23997 7.09952 599.42629 6.16177 588.541 5.80469 c 1
 588.541 161.45898 l 1x61ff
169.89452 161.45898 m 1
 244.791 161.45898 l 1
 244.791 5.80469 l 1
 221.25582 6.57673 198.37247 11.95242 177.78905 22.24414 c 0
 156.56545 32.85594 137.89937 48.4012 122.93748 67.57227 c 1
 169.89452 161.45898 l 1
89.382797 161.45898 m 1
 158.23045 161.45898 l 1
 136.99022 118.97852 l 1
 116.50975 78.01563 l 1
 99.99519 102.92733 90.372143 131.53416 89.382797 161.45898 c 1
637.45116 213.40624 m 1
 658.23045 171.87499 l 1
 595.9199 171.87499 l 1
 637.45116 213.40624 l 1
195.8828 213.40624 m 1
 237.41404 171.87499 l 1
 175.1035 171.87499 l 1
 195.8828 213.40624 l 1
668.83592 244.79102 m 1
 744.791 244.79105 l 1
 744.791 171.87502 l 1
 669.89452 171.87502 l 1x21fe80
 645.23631 221.21874 l 1
 668.83592 244.79102 l 1
633.43553 244.79102 m 1
 654.08006 244.79102 l 1
 640.32616 231.03906 l 1
 633.43553 244.79102 l 1
588.541 244.79102 m 1
 621.77147 244.79101 l 1
 632.541 223.2246 l 1
 588.541 179.25391 l 1
 588.541 244.79102 l 1
211.56053 244.79102 m 1
 244.791 244.79097 l 1
 244.791 179.25386 l 1
 200.79295 223.25391 l 1
 211.56053 244.79102 l 1
179.25389 244.79102 m 1
 199.89647 244.79102 l 1
 193.00584 231.03906 l 1
 179.25389 244.79102 l 1
88.541 244.79102 m 1
 164.49608 244.79099 l 1
 188.09764 221.19141 l 1
 163.43944 171.87499 l 1
 88.541 171.87499 l 1
 88.541 244.79102 l 1
708.36131 284.3418 m 1x31fe
 708.38866 284.3418 l 1
 719.23689 275.8244 728.60054 265.73279 737.49607 255.20898 c 1
 679.25389 255.20898 l 1
 708.36131 284.3418 l 1x31fe
124.97264 284.3418 m 1
 154.08006 255.20898 l 1
 95.837875 255.20898 l 1
 104.73341 265.73279 114.09706 275.8244 124.97264 284.3418 c 1
588.541 311.25195 m 1x31ff
 616.56443 255.20898 l 1
 588.541 255.20898 l 1
 588.541 311.25195 l 1x31ff
244.791 311.25195 m 1
 244.791 255.20898 l 1
 216.76952 255.20898 l 1
 244.791 311.25195 l 1
744.791 320.74609 m 1
 744.791 262.50589 l 1
 735.85966 272.98364 726.44532 283.03984 715.65818 291.64062 c 1
 716.25389 292.23633 l 1
 744.791 320.74609 l 1
88.541 320.74609 m 1
 117.07811 292.23629 l 1
 117.67577 291.61133 l 1
 106.88862 283.03852 97.472344 272.98361 88.541 262.50586 c 1
 88.541 320.74609 l 1
592.50193 326.63281 m 1
 631.02795 324.85052 668.08664 312.58629 699.67967 290.39258 c 1
 664.49607 255.20898 l 1
 628.2285 255.20898 l 1x29fe
 592.50193 326.63281 l 1
240.83201 326.63281 m 1
 205.10545 255.20898 l 1
 168.83592 255.20898 l 1
 133.65428 290.39258 l 1
 149.86999 301.78391 167.15975 311.50768 185.76366 317.70898 c 0
 203.4057 323.58966 222.08019 325.76531 240.83201 326.63281 c 1
647.51561 328.12499 m 1x23fe
 737.41401 328.12499 l 1
 707.84565 298.55665 l 1
 707.30273 298.01367 l 1
 688.90936 311.18172 668.84907 321.38715 647.51561 328.12499 c 1x23fe
95.919906 328.12499 m 1
 185.8183 328.12499 l 1x23fe
 184.74354 327.78555 183.55159 327.93843 182.48237 327.58204 c 0x25fe
 162.32809 320.86394 143.49853 310.51837 126.00389 298.01367 c 1
 125.48826 298.55665 l 1
 95.919906 328.12499 l 1
588.541 453.125 m 1x21ff
 744.791 453.125 l 1
 744.791 338.54102 l 1
 588.541 338.54102 l 1
 588.541 453.125 l 1x21ff
88.541 453.125 m 1
 244.791 453.125 l 1
 244.791 338.54102 l 1
 88.541 338.54102 l 1
 88.541 453.125 l 1
726.31835 531.43945 m 1
 731.48691 521.31912 736.36006 511.02587 739.28514 500.10937 c 0
 742.46831 488.22963 743.70753 475.91362 744.11327 463.54101 c 1
 638.94335 463.54101 l 1
 649.33682 467.12858 659.78845 470.68122 669.27147 476.15625 c 0
 682.12154 483.57525 694.02029 492.65213 704.61717 503.20118 c 0
 712.96145 511.50777 719.74192 521.40616 726.31835 531.43945 c 1
107.01561 531.43945 m 1
 121.94381 508.66432 141.09391 489.41716 164.06248 476.15625 c 0
 173.54551 470.68122 183.99713 467.12858 194.39061 463.54101 c 1
 89.220688 463.54101 l 1
 89.626423 475.91362 90.865637 488.22963 94.048812 500.10937 c 0
 96.973889 511.02587 101.84705 521.31912 107.01561 531.43945 c 1
744.791 569.49805 m 1
 744.791 513.83398 l 1
 741.5751 523.18727 738.26427 532.51452 733.45311 541.23243 c 1
 733.69725 541.66601 l 1
 733.45311 542.10157 l 1
 738.26427 550.81947 741.5751 560.14476 744.791 569.49805 c 1
88.541 569.49805 m 1
 91.756898 560.14476 95.069686 550.81947 99.880844 542.10157 c 1
 99.636704 541.66601 l 1
 99.880844 541.23243 l 1
 95.069686 532.51452 91.756898 523.18727 88.541 513.83398 c 1
 88.541 569.49805 l 1
588.541 619.11327 m 1
 601.11759 618.69911 613.57728 617.41519 625.46092 614.20312 c 0
 639.02042 610.53809 651.99272 605.14036 664.06249 598.17187 c 0
 676.13225 591.2034 687.31186 582.66426 697.26561 572.7539 c 0
 706.44928 563.61027 714.29413 553.01802 721.16404 541.66601 c 1
 714.29413 530.314 706.44928 519.7237 697.26561 510.58008 c 0
 677.3581 490.75937 652.57991 476.45897 625.46092 469.12891 c 0
 613.57728 465.91684 601.11759 464.63486 588.541 464.2207 c 1
 588.541 619.11327 l 1
244.791 619.11327 m 1
 244.791 464.2207 l 1
 190.27415 466.01597 140.45753 494.92288 112.16991 541.66601 c 1
 119.03983 553.01802 126.88467 563.61027 136.06834 572.7539 c 0
 146.0221 582.66426 157.20171 591.2034 169.27147 598.17187 c 0
 181.34123 605.14036 194.31354 610.53809 207.87303 614.20312 c 0
 219.75667 617.41519 232.21442 618.69912 244.791 619.11327 c 1
638.94335 619.79101 m 1
 744.11327 619.79101 l 1
 743.33466 596.04898 737.11153 573.02623 726.31835 551.89258 c 1
 705.22675 584.07089 674.51057 607.51409 638.94335 619.79101 c 1
565.7285 619.79101 m 1
 578.12499 619.79106 l 1
 578.12499 463.54106 l 1
 505.20897 463.54106 l 1
 505.20897 498.7793 l 1
 565.7285 619.79101 l 1
505.20897 619.79101 m 1
 554.06443 619.79101 l 1
 505.20897 522.08204 l 1
 505.20897 619.79101 l 1
445.93553 619.79101 m 1
 494.791 619.79101 l 1
 494.791 522.08204 l 1
 445.93553 619.79101 l 1
399.06053 619.79101 m 1
 434.27147 619.79101 l 1
 494.791 498.752 l 1
 494.791 463.54106 l 1
 338.541 463.54106 l 1
 338.541 498.7793 l 1
 399.06053 619.79101 l 1
338.541 619.79101 m 1
 387.39647 619.79101 l 1
 338.541 522.08204 l 1
 338.541 619.79101 l 1
279.26951 619.79101 m 1
 328.12499 619.79101 l 1
 328.12499 522.08204 l 1
 279.26951 619.79101 l 1
255.20897 619.79101 m 1
 267.60546 619.79101 l 1
 328.12499 498.75195 l 1
 328.12499 463.54101 l 1
 255.20897 463.54101 l 1
 255.20897 619.79101 l 1
89.220688 619.79101 m 1
 194.39061 619.79101 l 1
 169.91335 611.34207 147.13388 598.46677 128.71678 580.13282 c 0
 120.37251 571.82622 113.59203 561.92587 107.01561 551.89258 c 1
 96.222433 573.02623 89.999261 596.04898 89.220688 619.79101 c 1
628.2285 744.79101 m 1
 744.791 744.79101 l 1
 744.791 630.20897 l 1
 588.541 630.20897 l 1
 588.541 665.44726 l 1
 628.2285 744.79101 l 1
588.541 744.79101 m 1
 616.56443 744.79101 l 1
 588.541 688.74805 l 1
 588.541 744.79101 l 1
216.76952 744.79101 m 1
 244.791 744.79101 l 1
 244.791 688.74805 l 1
 216.76952 744.79101 l 1
88.541 744.79101 m 1
 205.10545 744.79096 l 1
 244.791 665.41797 l 1
 244.791 630.20898 l 1
 88.541 630.20898 l 1
 88.541 744.79101 l 1
669.89452 828.125 m 1
 744.791 828.125 l 1
 744.791 755.20898 l 1x21fe80
 633.43553 755.20898 l 1
 669.89452 828.125 l 1
588.541 828.125 m 1x21ff
 658.23045 828.125 l 1
 621.77147 755.20898 l 1
 588.541 755.20898 l 1
 588.541 828.125 l 1x21ff
175.1035 828.125 m 1
 244.791 828.125 l 1
 244.791 755.20898 l 1
 211.56053 755.20898 l 1
 175.1035 828.125 l 1
88.541 828.125 m 1
 163.43944 828.125 l 1
 199.89647 755.20898 l 1
 88.541 755.20898 l 1
 88.541 828.125 l 1
716.8242 921.98437 m 1
 733.33877 897.07268 742.96181 868.46583 743.95116 838.54101 c 1
 675.1035 838.54101 l 1
 696.34374 881.02148 l 1
 716.8242 921.98437 l 1
116.50975 921.98437 m 1
 136.99022 881.02148 l 1
 158.23045 838.54101 l 1
 89.382797 838.54101 l 1
 89.899762 854.17768 91.917916 869.69716 96.814437 884.38672 c 0
 101.28868 897.80944 108.62457 910.08983 116.50975 921.98437 c 1
744.791 977.91797 m 1
 744.791 890.75977 l 1
 739.42077 905.8515 731.93992 920.16289 722.49413 933.32227 c 1
 722.76561 933.89258 l 1
 738.00975 964.35547 l 1
 744.791 977.91797 l 1
88.541 977.91797 m 1
 110.56834 933.89258 l 1
 110.83983 933.32227 l 1
 101.39404 920.16289 93.911243 905.8515 88.541 890.75977 c 1
 88.541 977.91797 l 1
588.541 994.19531 m 1
 599.42629 993.83823 610.23997 992.90048 620.66014 990.42383 c 0
 644.87889 984.66755 667.46917 973.38608 686.60545 957.46484 c 0
 695.39252 950.15407 703.23192 941.60538 710.39452 932.42773 c 1
 663.43943 838.54101 l 1
 588.541 838.54101 l 1
 588.541 994.19531 l 1
244.791 994.19531 m 1
 244.791 838.54101 l 1
 169.89452 838.54101 l 1
 122.93748 932.42773 l 1
 130.1001 941.60538 137.94142 950.15407 146.7285 957.46484 c 0
 165.86477 973.38608 188.45506 984.66755 212.67381 990.42383 c 0
 223.09399 992.90048 233.90571 993.83823 244.791 994.19531 c 1
638.916 994.79102 m 1
 741.56443 994.79102 l 1
 715.76561 943.19727 l 1
 715.30467 942.27344 l 1
 708.45371 950.56406 701.39486 958.69092 693.24999 965.4668 c 0
 677.22334 978.79968 658.54385 988.0274 638.916 994.79102 c 1
91.769516 994.79102 m 1
 194.41795 994.79102 l 1
 174.79011 988.0274 156.10867 978.79968 140.08201 965.4668 c 0
 131.93714 958.69092 124.88021 950.56406 118.02928 942.27344 c 1
 117.56639 943.19727 l 1
 91.769516 994.79102 l 1
EndSplineSet
Validated: 524289
EndChar

StartChar: I
Encoding: 11 73 11
Width: 833
VWidth: 1024
HStem: 5.20898 21G<258.436 328.125 338.541 404.08 429.254 494.791 505.209 574.897> 171.875 72.916<378.229 455.105> 255.209 72.916<338.541 371.771 461.561 494.791> 599.791 20G<338.541 387.396 389.058 444.272 445.936 494.791> 630.209 114.582<338.541 371.771 461.561 494.791> 755.209 72.916<378.229 455.105> 838.541 156.25<338.541 494.791>
VStem: 338.541 69.6895<314.125 328.125 338.541 352.541> 425.104 69.6875<314.125 328.125 338.541 352.541>
LayerCount: 2
Fore
SplineSet
494.79103 70.74609 m 1
 494.79103 5.20898 l 1
 429.25392 5.20898 l 1
 494.79103 70.74609 l 1
338.54103 70.74609 m 1
 404.08008 5.20898 l 1
 338.54103 5.20898 l 1
 338.54103 70.74609 l 1
526.33986 102.29492 m 1
 574.8965 5.20898 l 1
 505.209 5.20898 l 1
 505.209 81.16406 l 1
 526.33986 102.29492 l 1
306.99415 102.29492 m 1
 328.12501 81.16406 l 1
 328.12501 5.20898 l 1
 258.43556 5.20898 l 1
 306.99415 102.29492 l 1
505.209 144.58594 m 1
 521.4297 112.11328 l 1
 505.209 95.91992 l 1
 505.209 144.58594 l 1
328.12501 144.58594 m 1
 328.12501 95.91997 l 1
 311.90236 112.14258 l 1
 328.12501 144.58594 l 1
578.12502 154.08008 m 1
 578.12502 22.08207 l 1
 534.12502 110.10742 l 1
 578.12502 154.08008 l 1
255.209 154.08008 m 1
 299.20704 110.08008 l 1
 255.209 22.08203 l 1
 255.209 154.08008 l 1
508.43556 161.45898 m 1
 570.7461 161.45898 l 1
 529.21486 119.92773 l 1
 508.43556 161.45898 l 1
338.54103 161.45898 m 1
 494.79103 161.45898 l 1
 494.79103 85.50391 l 1
 416.66603 7.37891 l 1
 338.54103 85.50391 l 1
 338.54103 161.45898 l 1
262.58594 161.45898 m 1
 324.8965 161.45898 l 1
 304.11719 119.92773 l 1
 262.58594 161.45898 l 1
466.76954 244.79102 m 1
 494.79103 244.79102 l 1
 494.79103 188.74805 l 1
 466.76954 244.79102 l 1
378.22853 244.79102 m 1
 455.10549 244.79102 l 1
 491.56446 171.87499 l 1
 341.76954 171.87499 l 1
 378.22853 244.79102 l 1
338.54103 244.79102 m 1
 366.56446 244.79102 l 1
 338.54103 188.74805 l 1
 338.54103 244.79102 l 1
416.66603 321.66797 m 1
 449.8965 255.20898 l 1
 383.43556 255.20898 l 1
 416.66603 321.66797 l 1
425.10353 328.12499 m 1
 494.79103 328.12499 l 1
 494.79103 255.20898 l 1
 461.56056 255.20898 l 1
 425.10353 328.12499 l 1
338.54103 328.12499 m 1
 408.23049 328.12499 l 1
 371.7715 255.20898 l 1
 338.54103 255.20898 l 1
 338.54103 328.12499 l 1
482.39454 453.125 m 1
 494.79103 453.125 l 1
 494.79103 338.54102 l 1
 425.10353 338.54102 l 1
 482.39454 453.125 l 1
362.60353 453.125 m 1
 470.73049 453.125 l 1
 416.66603 344.99805 l 1
 362.60353 453.125 l 1
338.54103 453.125 m 1
 350.93946 453.125 l 1
 408.23049 338.54102 l 1
 338.54103 338.54102 l 1
 338.54103 453.125 l 1
445.93556 619.79101 m 1
 494.79103 619.79101 l 1
 494.79103 522.08204 l 1
 445.93556 619.79101 l 1
399.06056 619.79101 m 1
 434.2715 619.79101 l 1
 494.79103 498.75195 l 1
 494.79103 463.54106 l 1
 487.60353 463.54106 l 1
 475.93946 463.54106 l 1
 357.39454 463.54106 l 1
 345.73049 463.54106 l 1
 338.54103 463.54106 l 1
 338.54103 498.7793 l 1
 399.06056 619.79101 l 1
338.54103 619.79101 m 1
 387.3965 619.79101 l 1
 338.54103 522.08204 l 1
 338.54103 619.79101 l 1
416.66603 655.00196 m 1
 429.06446 630.20898 l 1
 404.26954 630.20898 l 1
 416.66603 655.00196 l 1
461.56056 744.79101 m 1
 494.79103 744.79101 l 1
 494.79103 630.20898 l 1
 440.72853 630.20898 l 1
 422.49806 666.66601 l 1
 461.56056 744.79101 l 1
383.43556 744.79101 m 1
 449.8965 744.79101 l 1
 416.66603 678.33203 l 1
 383.43556 744.79101 l 1
338.54103 744.79101 m 1
 371.7715 744.79101 l 1
 410.834 666.66601 l 1
 392.60549 630.20898 l 1
 338.54103 630.20898 l 1
 338.54103 744.79101 l 1
494.79103 811.25196 m 1
 494.79103 755.20898 l 1
 466.76954 755.20898 l 1
 494.79103 811.25196 l 1
338.54103 811.25196 m 1
 366.56446 755.20898 l 1
 338.54103 755.20898 l 1
 338.54103 811.25196 l 1
341.76954 828.125 m 1
 491.56446 828.125 l 1
 455.10549 755.20898 l 1
 378.22853 755.20898 l 1
 341.76954 828.125 l 1
578.12502 977.91797 m 1
 578.12502 838.54101 l 1
 508.43556 838.54101 l 1
 578.12502 977.91797 l 1
255.209 977.91797 m 1
 324.8965 838.54101 l 1
 255.209 838.54101 l 1
 255.209 977.91797 l 1
505.209 994.79102 m 1
 574.8965 994.79102 l 1
 505.209 855.41407 l 1
 505.209 994.79102 l 1
338.54103 994.79102 m 1
 494.79103 994.79102 l 1
 494.79103 838.54101 l 1
 338.54103 838.54101 l 1
 338.54103 994.79102 l 1
258.43556 994.79102 m 1
 328.12501 994.79102 l 1
 328.12501 855.41407 l 1
 258.43556 994.79102 l 1
EndSplineSet
Validated: 524289
EndChar

StartChar: J
Encoding: 12 74 12
Width: 833
VWidth: 1024
HStem: 5.80467 155.654<169.895 244.791 588.541 663.439> 171.875 72.916<88.541 163.439 669.895 744.791> 255.209 29.1328<708.361 716.262> 327.582 0.54296<647.566 650.852> 338.541 114.584<588.541 744.791> 599.113 20G<588.541 594.829 638.943 743.91> 630.209 114.582<628.229 744.791> 755.209 72.916<588.541 621.771 669.895 744.791> 974.195 20.5957G<588.541 593.984 638.916 741.564>
VStem: 338.541 156.25<85.5039 161.459> 588.541 156.25<131.534 161.459 338.541 453.125 464.221 475.914 607.418 619.113 630.209 665.447 838.541 868.466> 669.895 74.8965<149.013 161.459 838.541 849.784>
LayerCount: 2
Fore
SplineSet
494.79102 70.74607 m 1xffc0
 494.79102 5.20896 l 1
 429.25391 5.20896 l 1
 494.79102 70.74607 l 1xffc0
338.54102 70.74607 m 1
 404.08007 5.20896 l 1
 338.54102 5.20896 l 1
 338.54102 70.74607 l 1
526.33985 102.29491 m 1
 574.89649 5.20896 l 1
 505.20899 5.20896 l 1
 505.20899 81.16405 l 1
 526.33985 102.29491 l 1
306.99414 102.29491 m 1
 328.125 81.16405 l 1
 328.125 5.20896 l 1
 258.43554 5.20896 l 1
 306.99414 102.29491 l 1
505.20899 144.58592 m 1
 521.42968 112.11327 l 1
 505.20899 95.91991 l 1
 505.20899 144.58592 l 1
328.125 144.58592 m 1
 328.125 95.91986 l 1
 311.90235 112.14256 l 1
 328.125 144.58592 l 1
578.125 154.08006 m 1
 578.125 22.08207 l 1
 534.125 110.10741 l 1
 578.125 154.08006 l 1
255.20899 154.08006 m 1
 299.20703 110.08006 l 1
 255.20899 22.08202 l 1
 255.20899 154.08006 l 1
675.10352 161.45896 m 1
 743.95117 161.45896 l 1
 742.96187 131.53414 733.33878 102.92731 716.82421 78.01562 c 1
 675.10352 161.45896 l 1
588.54102 161.45896 m 1xffe0
 663.43945 161.45896 l 1
 710.39453 67.57225 l 1
 680.92206 29.80838 636.34337 7.37278 588.54102 5.80467 c 1
 588.54102 161.45896 l 1xffe0
508.43554 161.45896 m 1
 570.74609 161.45896 l 1
 529.21485 119.92771 l 1
 508.43554 161.45896 l 1
338.54102 161.45896 m 1
 494.79102 161.45896 l 1
 494.79102 85.50389 l 1
 416.66602 7.37889 l 1
 338.54102 85.50389 l 1
 338.54102 161.45896 l 1
262.58593 161.45896 m 1
 324.89649 161.45896 l 1
 304.11718 119.92771 l 1
 262.58593 161.45896 l 1
169.89453 161.45896 m 1
 244.79101 161.45896 l 1
 244.79101 5.80467 l 1
 196.98867 7.37278 152.40998 29.80838 122.9375 67.57225 c 1
 169.89453 161.45896 l 1
89.382812 161.45896 m 1
 158.23047 161.45896 l 1
 136.99023 118.97851 l 1
 116.50977 78.01562 l 1
 99.995201 102.92731 90.372159 131.53414 89.382812 161.45896 c 1
637.45117 213.40623 m 1
 658.23046 171.87498 l 1
 595.91992 171.87498 l 1
 637.45117 213.40623 l 1
195.88281 213.40623 m 1
 237.41406 171.87498 l 1
 175.10352 171.87498 l 1
 195.88281 213.40623 l 1
668.83593 244.79101 m 1
 744.79102 244.79105 l 1
 744.79102 171.87502 l 1
 669.89453 171.87502 l 1xffd0
 645.23632 221.21873 l 1
 668.83593 244.79101 l 1
633.43555 244.79101 m 1
 654.08007 244.79101 l 1
 640.32617 231.03905 l 1
 633.43555 244.79101 l 1
588.54102 244.79101 m 1
 621.77149 244.79101 l 1
 632.54102 223.22459 l 1
 588.54102 179.25389 l 1
 588.54102 244.79101 l 1
211.56055 244.79101 m 1
 244.79101 244.79105 l 1
 244.79101 179.25393 l 1
 200.79297 223.25389 l 1
 211.56055 244.79101 l 1
179.25391 244.79101 m 1
 199.89648 244.79101 l 1
 193.00586 231.03905 l 1
 179.25391 244.79101 l 1
88.541016 244.79101 m 1
 164.49609 244.79097 l 1
 188.09766 221.19139 l 1
 163.43945 171.87498 l 1
 88.541016 171.87498 l 1
 88.541016 244.79101 l 1
708.36132 284.34178 m 1
 708.38867 284.34178 l 1
 719.23691 275.82438 728.60056 265.73277 737.49609 255.20896 c 1
 679.25391 255.20896 l 1
 708.36132 284.34178 l 1
588.54102 311.25194 m 1xffe0
 616.56445 255.20896 l 1
 588.54102 255.20896 l 1
 588.54102 311.25194 l 1xffe0
744.79102 320.74608 m 1
 744.79102 262.50587 l 1
 735.85967 272.98362 726.44534 283.03983 715.6582 291.6406 c 1
 716.25391 292.23631 l 1
 744.79102 320.74608 l 1
592.50195 326.6328 m 1
 631.02796 324.85051 668.08666 312.58627 699.67969 290.39256 c 1
 664.49609 255.20896 l 1
 628.22852 255.20896 l 1
 592.50195 326.6328 l 1
647.51563 328.12498 m 1
 737.41403 328.12498 l 1
 707.84567 298.55663 l 1
 707.30274 298.01366 l 1
 689.83541 310.51835 671.00584 320.86392 650.85156 327.58202 c 0
 649.783 327.9382 648.58989 327.7863 647.51563 328.12498 c 1
588.54102 453.12498 m 1
 744.79102 453.12498 l 1
 744.79102 338.54101 l 1
 588.54102 338.54101 l 1
 588.54102 453.12498 l 1
726.31837 531.43944 m 1
 731.48692 521.31911 736.36007 511.02586 739.28516 500.10936 c 0
 742.46832 488.22962 743.70755 475.91361 744.11328 463.54099 c 1
 638.94337 463.54099 l 1
 663.42063 471.98994 686.20009 484.8672 704.61719 503.20116 c 0
 712.96146 511.50776 719.74194 521.40615 726.31837 531.43944 c 1
744.79102 569.49804 m 1
 744.79102 513.83397 l 1
 741.57512 523.18726 738.26428 532.51451 733.45313 541.23241 c 1
 733.69727 541.66599 l 1
 733.45313 542.10155 l 1
 738.26428 550.81945 741.57512 560.14474 744.79102 569.49804 c 1
588.54102 619.11326 m 1
 601.1176 618.69909 613.5773 617.41518 625.46093 614.20311 c 0
 652.57992 606.87305 677.35812 592.57459 697.26563 572.75388 c 0
 706.4493 563.61026 714.29414 553.01801 721.16406 541.66599 c 1
 714.29414 530.31398 706.4493 519.72369 697.26563 510.58006 c 0
 687.31188 500.6697 676.13227 492.13056 664.0625 485.16209 c 0
 651.99274 478.19361 639.02043 472.79392 625.46093 469.1289 c 0
 613.5773 465.91683 601.1176 464.63484 588.54102 464.22069 c 1
 588.54102 619.11326 l 1
638.94337 619.791 m 1
 744.11328 619.791 l 1
 743.70759 607.41838 742.46832 595.10431 739.28516 583.22459 c 0
 736.36007 572.30808 731.48692 562.0129 726.31837 551.89256 c 1
 719.74194 561.92586 712.96146 571.8262 704.61719 580.1328 c 0
 686.20009 598.46676 663.42063 611.34205 638.94337 619.791 c 1
628.22852 744.791 m 1
 744.79102 744.791 l 1
 744.79102 630.20897 l 1
 588.54102 630.20897 l 1
 588.54102 665.44725 l 1
 628.22852 744.791 l 1
588.54102 744.791 m 1
 616.56445 744.791 l 1
 588.54102 688.74804 l 1
 588.54102 744.791 l 1
669.89453 828.12498 m 1
 744.79102 828.12498 l 1
 744.79102 755.20897 l 1
 633.43555 755.20897 l 1
 669.89453 828.12498 l 1
588.54102 828.12498 m 1
 658.23046 828.12498 l 1
 621.77149 755.20897 l 1
 588.54102 755.20897 l 1
 588.54102 828.12498 l 1
716.82421 921.98436 m 1
 733.33878 897.07266 742.96182 868.46582 743.95117 838.541 c 1
 675.10352 838.541 l 1
 696.34375 881.02147 l 1
 716.82421 921.98436 l 1
744.79102 977.91795 m 1
 744.79102 890.75975 l 1
 739.42078 905.85149 731.93994 920.16287 722.49414 933.32225 c 1
 722.76563 933.89256 l 1
 738.00977 964.35545 l 1
 744.79102 977.91795 l 1
588.54102 994.1953 m 1
 599.42631 993.83821 610.23999 992.90046 620.66016 990.42381 c 0
 655.99977 982.02434 687.63338 961.59222 710.39453 932.42772 c 1
 663.43945 838.541 l 1
 588.54102 838.541 l 1
 588.54102 994.1953 l 1
638.91602 994.791 m 1
 741.56445 994.791 l 1
 715.76563 943.19725 l 1
 715.30469 942.27342 l 1
 694.97316 966.8775 668.51889 984.59006 638.91602 994.791 c 1
EndSplineSet
Validated: 524289
EndChar

StartChar: K
Encoding: 13 75 13
Width: 833
VWidth: 1024
HStem: 5.20896 7.73047<166.034 192.064> 5.80467 155.654<194.418 244.791 588.541 638.916> 171.875 72.916<88.541 163.439 505.209 578.125> 255.209 62.5<147.597 154.08 168.836 205.105> 327.582 0.54296<182.482 185.768> 328.125 5.68434e-14<184.744 185.818> 338.541 114.584<88.541 244.791 482.395 494.791 505.209 517.605> 463.541 156.25<194.391 244.791 255.209 267.605 399.061 434.271> 630.209 114.582<88.541 205.105 461.561 494.791 505.209 578.125> 755.209 72.916<88.541 163.439 211.561 244.791 505.209 578.125 588.541 621.771> 838.541 155.654<194.418 244.791 588.541 638.916> 987.061 7.73047<166.034 192.064 641.27 667.3>
VStem: 88.541 156.25<131.534 161.459 338.541 453.125 464.221 475.914 596.049 619.113 630.209 665.418 838.541 854.178> 255.209 72.916<463.541 498.752> 425.104 69.6875<314.125 328.125 338.541 352.541> 505.209 72.916<171.875 244.791 338.541 351.794 630.209 744.791 755.209 828.125>
LayerCount: 2
Fore
SplineSet
715.30469 57.72655 m 1xb3cf
 741.56445 5.20896 l 1
 638.91602 5.20896 l 1
 668.51889 15.40989 694.9732 33.12246 715.30469 57.72655 c 1xb3cf
118.0293 57.72655 m 1
 124.88022 49.43592 131.93716 41.30906 140.08203 34.53318 c 0
 150.26794 26.05934 161.34498 18.82846 173.12305 12.93943 c 0
 179.87676 9.56257 187.2648 7.67389 194.41797 5.20896 c 1
 91.769531 5.20896 l 1
 117.56641 56.80271 l 1
 118.0293 57.72655 l 1
88.541016 109.24021 m 1
 93.911258 94.14848 101.39405 79.83709 110.83984 66.67771 c 1
 110.56836 66.10741 l 1
 95.324219 35.64452 l 1
 88.541016 22.08202 l 1
 88.541016 109.24021 l 1
578.125 154.08006 m 1
 578.125 22.08202 l 1
 534.125 110.08006 l 1
 578.125 154.08006 l 1
588.54102 161.45896 m 1
 663.43945 161.45896 l 1
 710.39453 67.57225 l 1
 687.63338 38.40775 655.99977 17.97563 620.66016 9.57616 c 0
 610.23999 7.0995 599.42631 6.16175 588.54102 5.80467 c 1x73cf
 588.54102 161.45896 l 1
508.43554 161.45896 m 1
 570.74609 161.45896 l 1
 529.21485 119.92771 l 1
 508.43554 161.45896 l 1
169.89453 161.45896 m 1
 244.79101 161.45896 l 1
 244.79101 5.80467 l 1
 221.25583 6.57671 198.37249 11.95241 177.78906 22.24413 c 0
 166.72571 27.7758 156.29665 34.57453 146.72852 42.53514 c 0
 137.94144 49.84592 130.10011 58.39462 122.9375 67.57225 c 1
 169.89453 161.45896 l 1
89.382812 161.45896 m 1
 158.23047 161.45896 l 1
 136.99023 118.97851 l 1
 116.50977 78.01562 l 1
 99.995201 102.92731 90.372159 131.53414 89.382812 161.45896 c 1
637.45117 213.40623 m 1
 658.23046 171.87498 l 1
 595.91992 171.87498 l 1
 637.45117 213.40623 l 1
195.88281 213.40623 m 1
 237.41406 171.87498 l 1
 175.10352 171.87498 l 1
 195.88281 213.40623 l 1
588.54102 244.79101 m 1
 621.77149 244.79101 l 1
 632.54102 223.25389 l 1
 588.54102 179.25389 l 1
 588.54102 244.79101 l 1
505.20899 244.79101 m 1
 578.125 244.79101 l 1
 578.125 171.87498 l 1
 505.20899 171.87498 l 1
 505.20899 244.79101 l 1
466.76953 244.79101 m 1
 487.41406 244.79101 l 1
 494.79102 244.79101 l 1
 494.79102 237.41405 l 1
 494.79102 188.74803 l 1
 466.76953 244.79101 l 1
211.56055 244.79101 m 1
 244.79101 244.79105 l 1
 244.79101 179.25393 l 1
 200.79297 223.25389 l 1
 211.56055 244.79101 l 1
179.25391 244.79101 m 1
 199.89648 244.79101 l 1
 193.00586 231.03905 l 1
 179.25391 244.79101 l 1
88.541016 244.79101 m 1
 164.49609 244.79097 l 1
 188.09766 221.19139 l 1
 163.43945 171.87498 l 1
 88.541016 171.87498 l 1
 88.541016 244.79101 l 1
124.97266 284.34178 m 1
 154.08008 255.20896 l 1
 95.837891 255.20896 l 1
 104.73343 265.73277 114.09708 275.82438 124.97266 284.34178 c 1
588.54102 311.25194 m 1
 616.56445 255.20896 l 1
 588.54102 255.20896 l 1
 588.54102 311.25194 l 1
244.79101 311.25194 m 1
 244.79101 255.20896 l 1
 216.76953 255.20896 l 1
 244.79101 311.25194 l 1
578.125 320.74608 m 1
 578.125 255.20896 l 1
 512.58593 255.20896 l 1
 578.125 320.74608 l 1
88.541016 320.74608 m 1
 117.07812 292.23636 l 1
 117.67578 291.61131 l 1
 106.88864 283.03851 97.47236 272.98359 88.541016 262.50584 c 1
 88.541016 320.74608 l 1
240.83203 326.6328 m 1
 205.10547 255.20896 l 1
 168.83594 255.20896 l 1
 133.6543 290.39256 l 1
 149.87001 301.7839 167.15977 311.50766 185.76367 317.70897 c 0
 203.40571 323.58965 222.08021 325.7653 240.83203 326.6328 c 1
505.20899 328.12498 m 1x37cf
 570.74609 328.12498 l 1
 505.20899 262.58592 l 1
 505.20899 328.12498 l 1x37cf
425.10352 328.12498 m 1
 494.79102 328.12498 l 1
 494.79102 255.20896 l 1
 461.56054 255.20896 l 1
 425.10352 328.12498 l 1
95.919922 328.12498 m 1
 185.81832 328.12498 l 1x37cf
 184.74355 327.78553 183.5516 327.93841 182.48238 327.58202 c 0x3bcf
 162.32811 320.86392 143.49855 310.51835 126.00391 298.01366 c 1
 125.48828 298.55663 l 1
 95.919922 328.12498 l 1
505.20899 453.12498 m 1
 517.60548 453.12498 l 1
 574.89649 338.54101 l 1
 505.20899 338.54101 l 1
 505.20899 453.12498 l 1
482.39453 453.12498 m 1
 494.79102 453.12498 l 1
 494.79102 338.54101 l 1
 425.10352 338.54101 l 1
 482.39453 453.12498 l 1
362.60352 453.12498 m 1
 470.73047 453.12498 l 1
 416.66602 344.99803 l 1
 362.60352 453.12498 l 1
88.541016 453.12498 m 1
 244.79101 453.12498 l 1
 244.79101 338.54101 l 1
 88.541016 338.54101 l 1
 88.541016 453.12498 l 1
107.01562 531.43944 m 1
 113.59205 521.40615 120.37252 511.50776 128.7168 503.20116 c 0
 139.31367 492.65212 151.21243 483.57523 164.0625 476.15623 c 0
 173.54553 470.6812 183.99715 467.12856 194.39063 463.54099 c 1
 89.220703 463.54099 l 1
 89.626439 475.91363 90.865653 488.22962 94.048828 500.10936 c 0
 96.973905 511.02586 101.84707 521.31911 107.01562 531.43944 c 1
88.541016 569.49804 m 1
 91.756914 560.14474 95.069702 550.81945 99.88086 542.10155 c 1
 99.636719 541.66599 l 1
 99.88086 541.23241 l 1
 95.069702 532.51451 91.756914 523.18726 88.541016 513.83397 c 1
 88.541016 569.49804 l 1
244.79101 619.11326 m 1
 244.79101 464.22069 l 1
 190.27417 466.01595 140.45755 494.92287 112.16992 541.66599 c 1
 119.03984 553.01801 126.88469 563.61026 136.06836 572.75388 c 0
 146.02211 582.66424 157.20172 591.20338 169.27148 598.17186 c 0
 181.34124 605.14034 194.31355 610.53808 207.87305 614.20311 c 0
 219.75669 617.41518 232.21443 618.69911 244.79101 619.11326 c 1
505.20899 619.791 m 1
 554.06445 619.791 l 1
 505.20899 522.08202 l 1
 505.20899 619.791 l 1
445.93554 619.791 m 1
 494.79102 619.791 l 1
 494.79102 522.08202 l 1
 445.93554 619.791 l 1
399.06054 619.791 m 1
 434.27149 619.791 l 1
 494.79102 498.75194 l 1
 494.79102 463.54104 l 1
 487.60352 463.54104 l 1
 475.93945 463.54104 l 1
 345.73047 463.54104 l 1
 338.54102 463.54104 l 1
 338.54102 498.77929 l 1
 399.06054 619.791 l 1
338.54102 619.791 m 1
 387.39649 619.791 l 1
 338.54102 522.08202 l 1
 338.54102 619.791 l 1
279.26953 619.791 m 1
 328.125 619.791 l 1
 328.125 522.08202 l 1
 279.26953 619.791 l 1
255.20899 619.791 m 1
 267.60547 619.791 l 1
 328.125 498.75194 l 1
 328.125 463.54099 l 1
 255.20899 463.54099 l 1
 255.20899 619.791 l 1
89.220703 619.791 m 1
 194.39063 619.791 l 1
 183.99715 616.20343 173.54553 612.65275 164.0625 607.17772 c 0
 151.21243 599.75872 139.31367 590.68184 128.7168 580.1328 c 0
 120.37252 571.8262 113.59205 561.92586 107.01562 551.89256 c 1
 96.222448 573.02622 89.999277 596.04897 89.220703 619.791 c 1
416.66602 655.00194 m 1
 429.06445 630.20897 l 1
 404.26953 630.20897 l 1
 416.66602 655.00194 l 1
588.54102 744.791 m 1
 616.56445 744.791 l 1
 588.54102 688.74804 l 1
 588.54102 744.791 l 1
505.20899 744.791 m 1
 578.125 744.791 l 1
 578.125 666.666 l 1
 578.125 630.20897 l 1
 570.93555 630.20897 l 1
 505.20899 630.20897 l 1
 505.20899 744.791 l 1
461.56054 744.791 m 1
 494.79102 744.791 l 1
 494.79102 630.20897 l 1
 440.72852 630.20897 l 1
 422.49804 666.666 l 1
 461.56054 744.791 l 1
216.76953 744.791 m 1
 244.79101 744.791 l 1
 244.79101 688.74804 l 1
 216.76953 744.791 l 1
88.541016 744.791 m 1
 205.10547 744.791 l 1
 244.79101 665.41795 l 1
 244.79101 630.20897 l 1
 88.541016 630.20897 l 1
 88.541016 744.791 l 1
494.79102 811.25194 m 1
 494.79102 755.20897 l 1
 466.76953 755.20897 l 1
 494.79102 811.25194 l 1
588.54102 828.12498 m 1
 658.23046 828.12498 l 1
 621.77149 755.20897 l 1
 588.54102 755.20897 l 1
 588.54102 828.12498 l 1
505.20899 828.12498 m 1
 578.125 828.12498 l 1
 578.125 755.20897 l 1
 505.20899 755.20897 l 1
 505.20899 828.12498 l 1
175.10352 828.12498 m 1
 244.79101 828.12498 l 1
 244.79101 755.20897 l 1
 211.56055 755.20897 l 1
 175.10352 828.12498 l 1
88.541016 828.12498 m 1
 163.43945 828.12498 l 1
 199.89648 755.20897 l 1
 88.541016 755.20897 l 1
 88.541016 828.12498 l 1
116.50977 921.98436 m 1
 136.99023 881.02147 l 1
 158.23047 838.541 l 1
 89.382812 838.541 l 1x33ef
 89.899777 854.17766 91.917932 869.69714 96.814453 884.3867 c 0
 101.28869 897.80942 108.62459 910.08982 116.50977 921.98436 c 1
578.125 977.91795 m 1
 578.125 838.541 l 1
 508.43554 838.541 l 1
 578.125 977.91795 l 1
88.541016 977.91795 m 1
 110.56836 933.89256 l 1
 110.83984 933.32225 l 1
 101.39406 920.16288 93.911258 905.85149 88.541016 890.75975 c 1
 88.541016 977.91795 l 1
588.54102 994.1953 m 1
 599.42631 993.83821 610.23999 992.90046 620.66016 990.42381 c 0
 655.99977 982.02434 687.63338 961.59222 710.39453 932.42772 c 1
 663.43945 838.541 l 1
 588.54102 838.541 l 1
 588.54102 994.1953 l 1
244.79101 994.1953 m 1
 244.79101 838.541 l 1
 169.89453 838.541 l 1
 122.9375 932.42772 l 1
 130.10011 941.60537 137.94144 950.15405 146.72852 957.46483 c 0
 165.86479 973.38606 188.45508 984.66753 212.67383 990.42381 c 0
 223.094 992.90046 233.90572 993.83821 244.79101 994.1953 c 1
638.91602 994.791 m 1x33df
 741.56445 994.791 l 1
 715.30469 942.27342 l 1
 708.45377 950.56405 701.39488 958.69091 693.25 965.46678 c 0
 683.0641 973.94063 671.989 981.1715 660.21093 987.06053 c 0
 653.45723 990.43739 646.06918 992.32607 638.91602 994.791 c 1x33df
91.769531 994.791 m 1
 194.41797 994.791 l 1
 187.2648 992.32607 179.87676 990.43739 173.12305 987.06053 c 0
 161.34498 981.1715 150.26794 973.94063 140.08203 965.46678 c 0
 131.93716 958.69091 124.88022 950.56405 118.0293 942.27342 c 1
 117.56641 943.19725 l 1
 91.769531 994.791 l 1
EndSplineSet
Validated: 524289
EndChar

StartChar: L
Encoding: 14 76 14
Width: 833
VWidth: 1024
HStem: 5.20898 7.73047<166.266 192.064> 5.80469 155.654<194.418 244.791 588.541 638.916> 171.875 72.916<88.541 163.439> 255.209 62.5<147.597 154.08 168.836 205.105> 327.582 0.54295<182.482 185.768> 338.541 114.584<88.541 244.791> 464.221 154.893<194.391 244.791> 630.209 114.582<88.541 205.105> 755.209 72.916<88.541 163.439 211.561 244.791> 987.061 7.73047<166.034 192.064>
VStem: 88.541 156.25<131.534 161.459 338.541 453.125 464.221 475.914 596.049 619.113 630.209 665.418 838.541 854.178> 338.541 156.25<85.5039 161.459>
LayerCount: 2
Fore
SplineSet
715.30467 57.72656 m 1xbff0
 715.76561 56.80273 l 1
 741.56443 5.20898 l 1
 638.916 5.20898 l 1
 668.51888 15.40991 694.97318 33.12248 715.30467 57.72656 c 1xbff0
118.02928 57.72656 m 1
 133.44791 39.06774 151.92697 23.53748 173.12303 12.93945 c 0
 179.87675 9.56259 187.26479 7.67391 194.41795 5.20898 c 1
 91.769516 5.20898 l 1
 117.56639 56.80273 l 1
 118.02928 57.72656 l 1
494.791 70.74609 m 1
 494.791 5.20898 l 1
 429.25389 5.20898 l 1
 494.791 70.74609 l 1
338.541 70.74609 m 1
 404.08006 5.20898 l 1
 338.541 5.20898 l 1
 338.541 70.74609 l 1
526.33983 102.29492 m 1
 574.89647 5.20898 l 1
 505.20897 5.20898 l 1
 505.20897 81.16406 l 1
 526.33983 102.29492 l 1
306.99412 102.29492 m 1
 328.12499 81.16406 l 1
 328.12499 5.20898 l 1
 258.43553 5.20898 l 1
 306.99412 102.29492 l 1
744.791 109.24023 m 1
 744.791 22.08203 l 1
 722.76561 66.10742 l 1
 722.49413 66.67773 l 1
 731.93992 79.8371 739.42077 94.14849 744.791 109.24023 c 1
88.541 109.24023 m 1
 93.911243 94.14849 101.39404 79.8371 110.83983 66.67773 c 1
 110.56834 66.10742 l 1
 95.324203 35.64453 l 1
 88.541 22.08203 l 1
 88.541 109.24023 l 1
505.20897 144.58594 m 1
 521.42967 112.11328 l 1
 505.20897 95.91992 l 1
 505.20897 144.58594 l 1
328.12499 144.58594 m 1
 328.12499 95.91997 l 1
 311.90233 112.14258 l 1
 328.12499 144.58594 l 1
578.12499 154.08008 m 1
 578.12499 22.08207 l 1
 534.12499 110.10742 l 1
 578.12499 154.08008 l 1
255.20897 154.08008 m 1
 299.20701 110.08008 l 1
 255.20897 22.08203 l 1
 255.20897 154.08008 l 1
675.1035 161.45898 m 1
 743.95116 161.45898 l 1
 743.43421 145.82231 741.41407 130.30284 736.51756 115.61328 c 0
 732.04332 102.19056 724.70938 89.91016 716.8242 78.01563 c 1
 675.1035 161.45898 l 1
588.541 161.45898 m 1
 663.43943 161.45898 l 1
 710.39452 67.57227 l 1
 703.23192 58.39463 695.39252 49.84594 686.60545 42.53516 c 0
 659.23575 19.76378 624.72609 6.9917 588.541 5.80469 c 1x7ff0
 588.541 161.45898 l 1
508.43553 161.45898 m 1
 570.74607 161.45898 l 1
 529.21483 119.92773 l 1
 508.43553 161.45898 l 1
338.541 161.45898 m 1
 494.791 161.45898 l 1
 494.791 85.50391 l 1
 416.666 7.37891 l 1
 338.541 85.50391 l 1
 338.541 161.45898 l 1
262.58592 161.45898 m 1
 324.89647 161.45898 l 1
 304.11717 119.92773 l 1
 262.58592 161.45898 l 1
169.89452 161.45898 m 1
 244.791 161.45898 l 1
 244.791 5.80469 l 1
 196.98865 7.3728 152.40996 29.8084 122.93748 67.57227 c 1
 169.89452 161.45898 l 1
89.382797 161.45898 m 1
 158.23045 161.45898 l 1
 136.99022 118.97852 l 1
 116.50975 78.01563 l 1
 99.99519 102.92733 90.372143 131.53416 89.382797 161.45898 c 1
195.8828 213.40624 m 1
 237.41404 171.87499 l 1
 175.1035 171.87499 l 1
 195.8828 213.40624 l 1
211.56053 244.79102 m 1
 244.791 244.79097 l 1
 244.791 179.25386 l 1
 200.79295 223.25391 l 1
 211.56053 244.79102 l 1
179.25389 244.79102 m 1
 199.89647 244.79102 l 1
 193.00584 231.03906 l 1
 179.25389 244.79102 l 1
88.541 244.79102 m 1
 164.49608 244.79099 l 1
 188.09764 221.19141 l 1
 163.43944 171.87499 l 1
 88.541 171.87499 l 1
 88.541 244.79102 l 1
124.97264 284.3418 m 1
 154.08006 255.20898 l 1
 95.837875 255.20898 l 1
 104.73341 265.73279 114.09706 275.8244 124.97264 284.3418 c 1
244.791 311.25195 m 1
 244.791 255.20898 l 1
 216.76952 255.20898 l 1
 244.791 311.25195 l 1
88.541 320.74609 m 1
 117.07811 292.23629 l 1
 117.67577 291.61133 l 1
 106.88862 283.03852 97.472344 272.98361 88.541 262.50586 c 1
 88.541 320.74609 l 1
240.83201 326.63281 m 1
 205.10545 255.20898 l 1
 168.83592 255.20898 l 1
 133.65428 290.39258 l 1
 149.86999 301.78391 167.15975 311.50768 185.76366 317.70898 c 0
 203.4057 323.58966 222.08019 325.76531 240.83201 326.63281 c 1
95.919906 328.12499 m 1
 185.8183 328.12499 l 1
 184.74354 327.78555 183.55159 327.93843 182.48237 327.58204 c 0
 162.32809 320.86394 143.49853 310.51837 126.00389 298.01367 c 1
 125.48826 298.55665 l 1
 95.919906 328.12499 l 1
88.541 453.125 m 1
 244.791 453.125 l 1
 244.791 338.54102 l 1
 88.541 338.54102 l 1
 88.541 453.125 l 1
107.01561 531.43945 m 1
 113.59203 521.40616 120.37251 511.50777 128.71678 503.20118 c 0
 139.31366 492.65213 151.21242 483.57525 164.06248 476.15625 c 0
 173.54551 470.68122 183.99713 467.12858 194.39061 463.54101 c 1
 89.220688 463.54101 l 1
 89.626423 475.91362 90.865637 488.22963 94.048812 500.10937 c 0
 96.973889 511.02587 101.84705 521.31912 107.01561 531.43945 c 1
88.541 569.49805 m 1
 91.756898 560.14476 95.069686 550.81947 99.880844 542.10157 c 1
 99.636704 541.66601 l 1
 99.880844 541.23243 l 1
 95.069686 532.51452 91.756898 523.18727 88.541 513.83398 c 1
 88.541 569.49805 l 1
244.791 619.11327 m 1
 244.791 464.2207 l 1
 203.51409 465.57997 164.6994 482.07386 136.06834 510.58008 c 0
 126.88467 519.7237 119.03983 530.314 112.16991 541.66601 c 1
 119.03983 553.01802 126.88467 563.61027 136.06834 572.7539 c 0
 146.0221 582.66426 157.20171 591.2034 169.27147 598.17187 c 0
 181.34123 605.14036 194.31354 610.53809 207.87303 614.20312 c 0
 219.75667 617.41519 232.21442 618.69912 244.791 619.11327 c 1
89.220688 619.79101 m 1
 194.39061 619.79101 l 1
 169.91335 611.34207 147.13388 598.46677 128.71678 580.13282 c 0
 120.37251 571.82622 113.59203 561.92587 107.01561 551.89258 c 1
 96.222433 573.02623 89.999261 596.04898 89.220688 619.79101 c 1
216.76952 744.79101 m 1
 244.791 744.79101 l 1
 244.791 688.74805 l 1
 216.76952 744.79101 l 1
88.541 744.79101 m 1
 205.10545 744.79096 l 1
 244.791 665.41797 l 1
 244.791 630.20898 l 1
 88.541 630.20898 l 1
 88.541 744.79101 l 1
175.1035 828.125 m 1
 244.791 828.125 l 1
 244.791 755.20898 l 1
 211.56053 755.20898 l 1
 175.1035 828.125 l 1
88.541 828.125 m 1
 163.43944 828.125 l 1
 199.89647 755.20898 l 1
 88.541 755.20898 l 1
 88.541 828.125 l 1
116.50975 921.98437 m 1
 136.99022 881.02148 l 1
 158.23045 838.54101 l 1
 89.382797 838.54101 l 1
 89.899762 854.17768 91.917916 869.69716 96.814437 884.38672 c 0
 101.28868 897.80944 108.62457 910.08983 116.50975 921.98437 c 1
88.541 977.91797 m 1
 110.56834 933.89258 l 1
 110.83983 933.32227 l 1
 101.39404 920.16289 93.911243 905.8515 88.541 890.75977 c 1
 88.541 977.91797 l 1
244.791 994.19531 m 1
 244.791 838.54101 l 1
 169.89452 838.54101 l 1
 122.93748 932.42773 l 1
 130.1001 941.60538 137.94142 950.15407 146.7285 957.46484 c 0
 156.29664 965.42546 166.72569 972.22418 177.78905 977.75586 c 0
 198.37247 988.04757 221.25582 993.42326 244.791 994.19531 c 1
91.769516 994.79102 m 1
 194.41795 994.79102 l 1
 187.26479 992.32609 179.87675 990.4374 173.12303 987.06055 c 0
 161.34497 981.17151 150.26792 973.94065 140.08201 965.4668 c 0
 131.93714 958.69092 124.88021 950.56406 118.02928 942.27344 c 1
 117.56639 943.19727 l 1
 91.769516 994.79102 l 1
EndSplineSet
Validated: 524289
EndChar

StartChar: M
Encoding: 15 77 15
Width: 833
VWidth: 1024
HStem: 5.20896 7.73047<166.266 192.064 641.27 667.3> 5.80467 155.654<194.418 244.791 588.541 638.916> 171.875 72.916<88.541 163.439 669.895 744.791> 255.209 62.5<147.597 154.08 168.836 205.105> 255.209 29.1328<708.361 716.262> 327.582 0.54296<182.482 185.768> 328.125 5.68434e-14<184.744 185.818> 338.541 114.584<88.541 244.791 588.541 744.791> 463.541 156.25<194.391 244.791 399.061 434.271 588.541 638.943> 630.209 114.582<88.541 205.105 255.209 328.125 338.541 371.771 461.561 494.791 505.209 578.125 628.229 744.791> 755.209 72.916<88.541 163.439 211.561 244.791 255.209 328.125 505.209 578.125 588.541 621.771 669.895 744.791> 838.541 155.654<194.418 244.791 588.541 638.916> 987.061 7.73047<166.034 192.064 641.27 667.068>
VStem: 88.541 156.25<131.534 161.459 338.541 453.125 464.221 475.914 596.049 619.113 630.209 665.418 838.541 854.178> 255.209 72.916<630.209 744.791 755.209 828.125> 505.209 72.916<630.209 744.791 755.209 828.125> 588.541 156.25<145.822 161.459 338.541 453.125 464.221 475.914 596.049 619.113 630.209 665.447 838.541 868.466> 669.895 74.8965<149.013 161.459 838.541 849.784>
LayerCount: 2
Fore
SplineSet
715.30469 57.72655 m 1xa1e7
 715.76563 56.80271 l 1
 741.56445 5.20896 l 1
 638.91602 5.20896 l 1
 646.06918 7.67389 653.45723 9.56257 660.21093 12.93943 c 0
 671.989 18.82846 683.0641 26.05934 693.25 34.53318 c 0
 701.39488 41.30906 708.45377 49.43592 715.30469 57.72655 c 1xa1e7
118.0293 57.72655 m 1
 133.44793 39.06773 151.92699 23.53746 173.12305 12.93943 c 0
 179.87676 9.56257 187.2648 7.67389 194.41797 5.20896 c 1
 91.769531 5.20896 l 1
 117.56641 56.80271 l 1
 118.0293 57.72655 l 1
744.79102 109.24021 m 1x21e780
 744.79102 22.08202 l 1
 722.76563 66.10741 l 1
 722.49414 66.67771 l 1
 731.93992 79.83702 739.42078 94.14848 744.79102 109.24021 c 1x21e780
88.541016 109.24021 m 1
 93.911258 94.14848 101.39405 79.83709 110.83984 66.67771 c 1
 110.56836 66.10741 l 1
 95.324219 35.64452 l 1
 88.541016 22.08202 l 1
 88.541016 109.24021 l 1
675.10352 161.45896 m 1
 743.95117 161.45896 l 1
 743.43423 145.8223 741.41409 130.30282 736.51757 115.61327 c 0
 732.04334 102.19055 724.70939 89.91014 716.82421 78.01562 c 1
 675.10352 161.45896 l 1
588.54102 161.45896 m 1
 663.43945 161.45896 l 1
 710.39453 67.57225 l 1
 680.92206 29.80838 636.34337 7.37278 588.54102 5.80467 c 1x61e780
 588.54102 161.45896 l 1
169.89453 161.45896 m 1
 244.79101 161.45896 l 1
 244.79101 5.80467 l 1
 208.60593 6.99168 174.09821 19.76377 146.72852 42.53514 c 0
 137.94144 49.84592 130.10011 58.39462 122.9375 67.57225 c 1
 169.89453 161.45896 l 1
89.382812 161.45896 m 1
 158.23047 161.45896 l 1
 136.99023 118.97851 l 1
 116.50977 78.01562 l 1
 99.995201 102.92731 90.372159 131.53414 89.382812 161.45896 c 1
637.45117 213.40623 m 1
 658.23046 171.87498 l 1
 595.91992 171.87498 l 1
 637.45117 213.40623 l 1
195.88281 213.40623 m 1
 237.41406 171.87498 l 1
 175.10352 171.87498 l 1
 195.88281 213.40623 l 1
668.83593 244.79101 m 1
 744.79102 244.79105 l 1
 744.79102 171.87502 l 1
 669.89453 171.87502 l 1x21e740
 645.23632 221.21873 l 1
 668.83593 244.79101 l 1
633.43555 244.79101 m 1
 654.08007 244.79101 l 1
 640.32617 231.03905 l 1
 633.43555 244.79101 l 1
588.54102 244.79101 m 1
 621.77149 244.79101 l 1
 632.54102 223.22459 l 1
 588.54102 179.25389 l 1
 588.54102 244.79101 l 1
211.56055 244.79101 m 1
 244.79101 244.79105 l 1
 244.79101 179.25393 l 1
 200.79297 223.25389 l 1
 211.56055 244.79101 l 1
179.25391 244.79101 m 1
 199.89648 244.79101 l 1
 193.00586 231.03905 l 1
 179.25391 244.79101 l 1
88.541016 244.79101 m 1
 164.49609 244.79097 l 1
 188.09766 221.19139 l 1
 163.43945 171.87498 l 1
 88.541016 171.87498 l 1
 88.541016 244.79101 l 1
708.36132 284.34178 m 1x29e7
 708.38867 284.34178 l 1
 719.23691 275.82438 728.60056 265.73277 737.49609 255.20896 c 1
 679.25391 255.20896 l 1
 708.36132 284.34178 l 1x29e7
124.97266 284.34178 m 1
 154.08008 255.20896 l 1
 95.837891 255.20896 l 1
 104.73343 265.73277 114.09708 275.82438 124.97266 284.34178 c 1
588.54102 311.25194 m 1x21e780
 616.56445 255.20896 l 1
 588.54102 255.20896 l 1
 588.54102 311.25194 l 1x21e780
244.79101 311.25194 m 1
 244.79101 255.20896 l 1
 216.76953 255.20896 l 1
 244.79101 311.25194 l 1
744.79102 320.74608 m 1
 744.79102 262.50587 l 1
 735.85967 272.98362 726.44534 283.03983 715.6582 291.6406 c 1
 716.25391 292.23631 l 1
 744.79102 320.74608 l 1
88.541016 320.74608 m 1
 117.07812 292.23626 l 1
 117.67578 291.61131 l 1
 106.88864 283.03851 97.47236 272.98359 88.541016 262.50584 c 1
 88.541016 320.74608 l 1
592.50195 326.6328 m 1
 631.02796 324.85051 668.08666 312.58627 699.67969 290.39256 c 1
 664.49609 255.20896 l 1
 628.22852 255.20896 l 1
 592.50195 326.6328 l 1
240.83203 326.6328 m 1
 205.10547 255.20896 l 1
 168.83594 255.20896 l 1
 133.6543 290.39256 l 1
 149.87001 301.7839 167.15977 311.50766 185.76367 317.70897 c 0x31e7
 203.40571 323.58965 222.08021 325.7653 240.83203 326.6328 c 1
647.51563 328.12498 m 1x23e7
 737.41403 328.12498 l 1
 707.84567 298.55663 l 1
 707.30274 298.01366 l 1
 688.90938 311.1817 668.84909 321.38713 647.51563 328.12498 c 1x23e7
95.919922 328.12498 m 1
 185.81832 328.12498 l 1x23e7
 184.74355 327.78553 183.5516 327.93841 182.48238 327.58202 c 0x25e7
 162.32811 320.86392 143.49855 310.51835 126.00391 298.01366 c 1
 125.48828 298.55663 l 1
 95.919922 328.12498 l 1
588.54102 453.12498 m 1x21e780
 744.79102 453.12498 l 1
 744.79102 338.54101 l 1
 588.54102 338.54101 l 1
 588.54102 453.12498 l 1x21e780
362.60352 453.12498 m 1
 470.73047 453.12498 l 1
 416.66602 344.99803 l 1
 362.60352 453.12498 l 1
88.541016 453.12498 m 1
 244.79101 453.12498 l 1
 244.79101 338.54101 l 1
 88.541016 338.54101 l 1
 88.541016 453.12498 l 1
726.31837 531.43944 m 1
 731.48692 521.31911 736.36007 511.02586 739.28516 500.10936 c 0
 742.46832 488.22962 743.70755 475.91361 744.11328 463.54099 c 1
 638.94337 463.54099 l 1
 649.33684 467.12856 659.78846 470.6812 669.27149 476.15623 c 0
 692.24006 489.41715 711.39016 508.6643 726.31837 531.43944 c 1
107.01562 531.43944 m 1
 121.94383 508.6643 141.09393 489.41715 164.0625 476.15623 c 0
 173.54553 470.6812 183.99715 467.12856 194.39063 463.54099 c 1
 89.220703 463.54099 l 1
 89.626439 475.91361 90.865653 488.22962 94.048828 500.10936 c 0
 96.973905 511.02586 101.84707 521.31911 107.01562 531.43944 c 1
744.79102 569.49804 m 1
 744.79102 513.83397 l 1
 741.57512 523.18726 738.26428 532.51451 733.45313 541.23241 c 1
 733.69727 541.66599 l 1
 733.45313 542.10155 l 1
 738.26428 550.81945 741.57512 560.14474 744.79102 569.49804 c 1
88.541016 569.49804 m 1
 91.756914 560.14474 95.069702 550.81945 99.88086 542.10155 c 1
 99.636719 541.66599 l 1
 99.88086 541.23241 l 1
 95.069702 532.51451 91.756914 523.18726 88.541016 513.83397 c 1
 88.541016 569.49804 l 1
588.54102 619.11326 m 1
 629.81792 617.75395 668.63457 601.26011 697.26563 572.75388 c 0
 706.4493 563.61026 714.29414 553.01801 721.16406 541.66599 c 1
 714.29414 530.31398 706.4493 519.72369 697.26563 510.58006 c 0
 668.63457 482.07384 629.81792 465.57995 588.54102 464.22069 c 1
 588.54102 619.11326 l 1
244.79101 619.11326 m 1
 244.79101 464.22069 l 1
 217.86427 465.1074 191.91927 472.08637 169.27148 485.16209 c 0
 146.06575 498.55992 126.48583 518.01005 112.16992 541.66599 c 1
 119.03984 553.01801 126.88469 563.61026 136.06836 572.75388 c 0
 146.02211 582.66424 157.20172 591.20338 169.27148 598.17186 c 0
 181.34124 605.14034 194.31355 610.53808 207.87305 614.20311 c 0
 219.75669 617.41518 232.21443 618.69911 244.79101 619.11326 c 1
638.94337 619.791 m 1
 744.11328 619.791 l 1
 743.33467 596.04897 737.11155 573.02622 726.31837 551.89256 c 1
 719.74194 561.92586 712.96146 571.8262 704.61719 580.1328 c 0
 694.02031 590.68184 682.12156 599.75872 669.27149 607.17772 c 0
 659.78846 612.65275 649.33684 616.20343 638.94337 619.791 c 1
505.20899 619.791 m 1
 554.06445 619.791 l 1
 505.20899 522.08202 l 1
 505.20899 619.791 l 1
445.93554 619.791 m 1
 494.79102 619.791 l 1
 494.79102 522.08202 l 1
 445.93554 619.791 l 1
399.06054 619.791 m 1
 434.27149 619.791 l 1
 494.79102 498.75194 l 1
 494.79102 463.54094 l 1
 487.60352 463.54094 l 1
 345.73047 463.54094 l 1
 338.54102 463.54094 l 1
 338.54102 498.77929 l 1
 399.06054 619.791 l 1
338.54102 619.791 m 1
 387.39649 619.791 l 1
 338.54102 522.08202 l 1
 338.54102 619.791 l 1
279.26953 619.791 m 1
 328.125 619.791 l 1
 328.125 522.08202 l 1
 279.26953 619.791 l 1
89.220703 619.791 m 1
 194.39063 619.791 l 1
 183.99715 616.20343 173.54553 612.65275 164.0625 607.17772 c 0
 151.21243 599.75872 139.31367 590.68184 128.7168 580.1328 c 0
 120.37252 571.8262 113.59205 561.92586 107.01562 551.89256 c 1
 96.222448 573.02622 89.999277 596.04897 89.220703 619.791 c 1
416.66602 655.00194 m 1
 429.06445 630.20897 l 1
 404.26953 630.20897 l 1
 416.66602 655.00194 l 1
628.22852 744.791 m 1
 744.79102 744.791 l 1
 744.79102 630.20897 l 1
 588.54102 630.20897 l 1
 588.54102 665.44725 l 1
 628.22852 744.791 l 1
588.54102 744.791 m 1
 616.56445 744.791 l 1
 588.54102 688.74804 l 1
 588.54102 744.791 l 1
505.20899 744.791 m 1
 578.125 744.791 l 1
 578.125 667.8867 l 1
 578.125 666.666 l 1
 578.125 630.20897 l 1
 570.93555 630.20897 l 1
 505.20899 630.20897 l 1
 505.20899 744.791 l 1
461.56054 744.791 m 1
 494.79102 744.791 l 1
 494.79102 630.20897 l 1
 440.72852 630.20897 l 1
 422.49804 666.666 l 1
 461.56054 744.791 l 1
338.54102 744.791 m 1
 371.77149 744.791 l 1
 410.83399 666.666 l 1
 392.60547 630.20897 l 1
 338.54102 630.20897 l 1
 338.54102 744.791 l 1
255.20899 744.791 m 1
 328.125 744.791 l 1
 328.125 630.20897 l 1
 262.39649 630.20897 l 1
 255.20899 630.20897 l 1
 255.20899 666.666 l 1
 255.20899 667.8867 l 1
 255.20899 744.791 l 1
216.76953 744.791 m 1
 244.79101 744.791 l 1
 244.79101 688.74804 l 1
 216.76953 744.791 l 1
88.541016 744.791 m 1
 205.10547 744.791 l 1
 244.79101 665.41795 l 1
 244.79101 630.20897 l 1
 88.541016 630.20897 l 1
 88.541016 744.791 l 1
494.79102 811.25194 m 1
 494.79102 755.20897 l 1
 466.76953 755.20897 l 1
 494.79102 811.25194 l 1
338.54102 811.25194 m 1
 366.56445 755.20897 l 1
 338.54102 755.20897 l 1
 338.54102 811.25194 l 1
669.89453 828.12498 m 1
 744.79102 828.12498 l 1
 744.79102 755.20897 l 1
 633.43555 755.20897 l 1
 669.89453 828.12498 l 1
588.54102 828.12498 m 1
 658.23046 828.12498 l 1
 621.77149 755.20897 l 1
 588.54102 755.20897 l 1
 588.54102 828.12498 l 1
505.20899 828.12498 m 1
 578.125 828.12498 l 1
 578.125 755.20897 l 1
 505.20899 755.20897 l 1
 505.20899 828.12498 l 1
255.20899 828.12498 m 1
 328.125 828.12498 l 1
 328.125 755.20897 l 1
 255.20899 755.20897 l 1
 255.20899 828.12498 l 1
175.10352 828.12498 m 1
 244.79101 828.12498 l 1
 244.79101 755.20897 l 1
 211.56055 755.20897 l 1
 175.10352 828.12498 l 1
88.541016 828.12498 m 1
 163.43945 828.12498 l 1
 199.89648 755.20897 l 1
 88.541016 755.20897 l 1
 88.541016 828.12498 l 1
716.82421 921.98436 m 1
 733.33878 897.07266 742.96182 868.46582 743.95117 838.541 c 1
 675.10352 838.541 l 1x21f7
 696.34375 881.02147 l 1
 716.82421 921.98436 l 1
116.50977 921.98436 m 1
 136.99023 881.02147 l 1
 158.23047 838.541 l 1
 89.382812 838.541 l 1
 89.899777 854.17766 91.917932 869.69714 96.814453 884.3867 c 0
 101.28869 897.80942 108.62459 910.08982 116.50977 921.98436 c 1
744.79102 977.91795 m 1x21e780
 744.79102 890.75975 l 1
 739.42078 905.85149 731.93994 920.16287 722.49414 933.32225 c 1
 722.76563 933.89256 l 1
 738.00977 964.35545 l 1
 744.79102 977.91795 l 1x21e780
578.125 977.91795 m 1
 578.125 838.541 l 1
 508.43554 838.541 l 1x21f7
 578.125 977.91795 l 1
255.20899 977.91795 m 1
 324.89649 838.541 l 1
 255.20899 838.541 l 1
 255.20899 977.91795 l 1
88.541016 977.91795 m 1
 110.56836 933.89256 l 1
 110.83984 933.32225 l 1
 101.39406 920.16288 93.911258 905.85149 88.541016 890.75975 c 1
 88.541016 977.91795 l 1
588.54102 994.1953 m 1x21f780
 612.0762 993.42325 634.96149 988.04755 655.54492 977.75584 c 0
 676.76852 967.14405 695.43266 951.59879 710.39453 932.42772 c 1
 663.43945 838.541 l 1
 588.54102 838.541 l 1
 588.54102 994.1953 l 1x21f780
244.79101 994.1953 m 1
 244.79101 838.541 l 1
 169.89453 838.541 l 1
 122.9375 932.42772 l 1
 130.10011 941.60537 137.94144 950.15405 146.72852 957.46483 c 0
 156.29665 965.42544 166.72571 972.22416 177.78906 977.75584 c 0
 188.85242 983.28752 200.56445 987.54567 212.67383 990.42381 c 0
 223.094 992.90046 233.90572 993.83821 244.79101 994.1953 c 1
638.91602 994.791 m 1x21ef
 741.56445 994.791 l 1
 715.76563 943.19725 l 1
 715.30469 942.27342 l 1
 699.886 960.93223 681.407 976.4625 660.21093 987.06053 c 0
 653.45723 990.43739 646.06918 992.32607 638.91602 994.791 c 1x21ef
91.769531 994.791 m 1
 194.41797 994.791 l 1
 187.2648 992.32607 179.87676 990.43739 173.12305 987.06053 c 0
 161.34498 981.1715 150.26794 973.94063 140.08203 965.46678 c 0
 131.93716 958.69091 124.88022 950.56405 118.0293 942.27342 c 1
 117.56641 943.19725 l 1
 91.769531 994.791 l 1
EndSplineSet
Validated: 524289
EndChar

StartChar: N
Encoding: 16 78 16
Width: 833
VWidth: 1024
HStem: 5.20896 7.73047<166.034 192.064 641.27 667.068> 5.80467 155.654<194.418 244.791 588.541 638.916> 171.875 72.916<88.541 163.439 505.209 578.125 669.895 744.791> 255.209 62.5<147.597 154.08 168.836 205.105 628.229 664.496 679.254 685.737> 255.209 29.1328<708.361 716.262> 327.582 0.54296<182.482 185.768> 328.125 5.68434e-14<184.744 185.818> 338.541 114.584<88.541 244.791 482.395 494.791 505.209 517.605 588.541 744.791> 463.541 156.25<194.391 244.791 399.061 434.271 588.541 638.943> 630.209 114.582<88.541 205.105 255.209 328.125 338.541 371.771 628.229 744.791> 755.209 72.916<88.541 163.439 211.561 244.791 255.209 328.125 588.541 621.771 669.895 744.791> 838.541 155.654<194.418 244.791 588.541 638.916> 987.061 7.73047<166.034 192.064 641.27 667.3>
VStem: 88.541 156.25<131.534 161.459 338.541 453.125 464.221 475.914 596.049 619.113 630.209 665.418 838.541 854.178> 255.209 72.916<630.209 744.791 755.209 828.125> 425.104 69.6875<314.125 328.125 338.541 352.541> 505.209 72.916<171.875 244.791 338.541 351.794> 588.541 156.25<131.534 161.459 338.541 453.125 464.221 475.914 607.418 619.113 630.209 665.447 838.541 868.466> 669.895 74.8965<149.013 161.459 838.541 849.784>
LayerCount: 2
Fore
SplineSet
715.30469 57.72655 m 1xa1e780
 715.76563 56.80271 l 1
 741.56445 5.20896 l 1
 638.91602 5.20896 l 1
 646.06918 7.67389 653.45723 9.56257 660.21093 12.93943 c 0
 681.407 23.53746 699.88605 39.06773 715.30469 57.72655 c 1xa1e780
118.0293 57.72655 m 1
 124.88022 49.43592 131.93716 41.30906 140.08203 34.53318 c 0
 150.26794 26.05934 161.34498 18.82846 173.12305 12.93943 c 0
 179.87676 9.56257 187.2648 7.67389 194.41797 5.20896 c 1
 91.769531 5.20896 l 1
 117.56641 56.80271 l 1
 118.0293 57.72655 l 1
744.79102 109.24021 m 1
 744.79102 22.08202 l 1
 722.76563 66.10741 l 1
 722.49414 66.67771 l 1
 731.93992 79.83702 739.42078 94.14848 744.79102 109.24021 c 1
88.541016 109.24021 m 1
 93.911258 94.14848 101.39405 79.83709 110.83984 66.67771 c 1
 110.56836 66.10741 l 1
 95.324219 35.64452 l 1
 88.541016 22.08202 l 1
 88.541016 109.24021 l 1
578.125 154.08006 m 1
 578.125 22.08202 l 1
 534.125 110.08006 l 1
 578.125 154.08006 l 1
675.10352 161.45896 m 1
 743.95117 161.45896 l 1
 742.96187 131.53414 733.33878 102.92731 716.82421 78.01562 c 1
 675.10352 161.45896 l 1
588.54102 161.45896 m 1
 663.43945 161.45896 l 1
 710.39453 67.57225 l 1
 687.63338 38.40775 655.99977 17.97563 620.66016 9.57616 c 0
 610.23999 7.0995 599.42631 6.16175 588.54102 5.80467 c 1x61e780
 588.54102 161.45896 l 1
508.43554 161.45896 m 1
 570.74609 161.45896 l 1
 529.21485 119.92771 l 1
 508.43554 161.45896 l 1
169.89453 161.45896 m 1
 244.79101 161.45896 l 1
 244.79101 5.80467 l 1
 196.98867 7.37278 152.40998 29.80838 122.9375 67.57225 c 1
 169.89453 161.45896 l 1
89.382812 161.45896 m 1
 158.23047 161.45896 l 1
 136.99023 118.97851 l 1
 116.50977 78.01562 l 1
 99.995201 102.92731 90.372159 131.53414 89.382812 161.45896 c 1
637.45117 213.40623 m 1
 658.23046 171.87498 l 1
 595.91992 171.87498 l 1
 637.45117 213.40623 l 1
195.88281 213.40623 m 1
 237.41406 171.87498 l 1
 175.10352 171.87498 l 1
 195.88281 213.40623 l 1
668.83593 244.79101 m 1
 744.79102 244.79105 l 1
 744.79102 171.87502 l 1
 669.89453 171.87502 l 1x21e7a0
 645.23632 221.21873 l 1
 668.83593 244.79101 l 1
633.43555 244.79101 m 1
 654.08007 244.79101 l 1
 640.32617 231.03905 l 1
 633.43555 244.79101 l 1
588.54102 244.79101 m 1x21e7c0
 621.77149 244.79101 l 1
 632.54102 223.22459 l 1
 588.54102 179.25389 l 1
 588.54102 244.79101 l 1x21e7c0
505.20899 244.79101 m 1
 578.125 244.79101 l 1
 578.125 171.87498 l 1
 505.20899 171.87498 l 1
 505.20899 244.79101 l 1
466.76953 244.79101 m 1
 487.41406 244.79101 l 1
 494.79102 244.79101 l 1
 494.79102 237.41405 l 1
 494.79102 188.74803 l 1
 466.76953 244.79101 l 1
211.56055 244.79101 m 1
 244.79101 244.79105 l 1
 244.79101 179.25393 l 1
 200.79297 223.25389 l 1
 211.56055 244.79101 l 1
179.25391 244.79101 m 1
 199.89648 244.79101 l 1
 193.00586 231.03905 l 1
 179.25391 244.79101 l 1
88.541016 244.79101 m 1
 164.49609 244.79097 l 1
 188.09766 221.19139 l 1
 163.43945 171.87498 l 1
 88.541016 171.87498 l 1
 88.541016 244.79101 l 1
708.36132 284.34178 m 1x29e780
 708.38867 284.34178 l 1
 719.23691 275.82438 728.60056 265.73277 737.49609 255.20896 c 1
 679.25391 255.20896 l 1
 708.36132 284.34178 l 1x29e780
124.97266 284.34178 m 1
 154.08008 255.20896 l 1
 95.837891 255.20896 l 1
 104.73343 265.73277 114.09708 275.82438 124.97266 284.34178 c 1
588.54102 311.25194 m 1x21e7c0
 616.56445 255.20896 l 1
 588.54102 255.20896 l 1
 588.54102 311.25194 l 1x21e7c0
244.79101 311.25194 m 1
 244.79101 255.20896 l 1
 216.76953 255.20896 l 1
 244.79101 311.25194 l 1
744.79102 320.74608 m 1
 744.79102 262.50587 l 1
 735.85967 272.98362 726.44534 283.03983 715.6582 291.6406 c 1
 716.25391 292.23631 l 1
 744.79102 320.74608 l 1
578.125 320.74608 m 1
 578.125 255.20896 l 1
 512.58593 255.20896 l 1
 578.125 320.74608 l 1
88.541016 320.74608 m 1
 117.07812 292.23626 l 1
 117.67578 291.61131 l 1
 106.88864 283.03851 97.47236 272.98359 88.541016 262.50584 c 1
 88.541016 320.74608 l 1
592.50195 326.6328 m 1
 611.25377 325.7653 629.92827 323.58965 647.57031 317.70897 c 0
 666.17421 311.50766 683.46398 301.7839 699.67969 290.39256 c 1
 664.49609 255.20896 l 1
 628.22852 255.20896 l 1
 592.50195 326.6328 l 1
240.83203 326.6328 m 1
 205.10547 255.20896 l 1
 168.83594 255.20896 l 1
 133.6543 290.39256 l 1
 149.87001 301.7839 167.15977 311.50766 185.76367 317.70897 c 0x31e780
 203.40571 323.58965 222.08021 325.7653 240.83203 326.6328 c 1
647.51563 328.12498 m 1x23e780
 737.41403 328.12498 l 1
 707.84567 298.55663 l 1
 707.30274 298.01366 l 1
 688.90938 311.1817 668.84909 321.38713 647.51563 328.12498 c 1x23e780
505.20899 328.12498 m 1
 570.74609 328.12498 l 1
 505.20899 262.58592 l 1
 505.20899 328.12498 l 1
425.10352 328.12498 m 1
 494.79102 328.12498 l 1
 494.79102 255.20896 l 1
 461.56054 255.20896 l 1
 425.10352 328.12498 l 1
95.919922 328.12498 m 1
 185.81832 328.12498 l 1x23e780
 184.74355 327.78553 183.5516 327.93841 182.48238 327.58202 c 0x25e780
 162.32811 320.86392 143.49855 310.51835 126.00391 298.01366 c 1
 125.48828 298.55663 l 1
 95.919922 328.12498 l 1
588.54102 453.12498 m 1x21e7c0
 744.79102 453.12498 l 1
 744.79102 338.54101 l 1
 595.91992 338.54101 l 1
 588.54102 338.54101 l 1
 588.54102 345.91991 l 1
 588.54102 453.12498 l 1x21e7c0
505.20899 453.12498 m 1
 517.60548 453.12498 l 1
 574.89649 338.54101 l 1
 505.20899 338.54101 l 1
 505.20899 453.12498 l 1
482.39453 453.12498 m 1
 494.79102 453.12498 l 1
 494.79102 338.54101 l 1
 425.10352 338.54101 l 1
 482.39453 453.12498 l 1
362.60352 453.12498 m 1
 470.73047 453.12498 l 1
 416.66602 344.99803 l 1
 362.60352 453.12498 l 1
88.541016 453.12498 m 1
 244.79101 453.12498 l 1
 244.79101 338.54101 l 1
 88.541016 338.54101 l 1
 88.541016 453.12498 l 1
726.31837 531.43944 m 1
 731.48692 521.31911 736.36007 511.02586 739.28516 500.10936 c 0
 742.46832 488.22962 743.70755 475.91361 744.11328 463.54099 c 1
 638.94337 463.54099 l 1
 649.33684 467.12856 659.78846 470.6812 669.27149 476.15623 c 0
 692.24006 489.41715 711.39016 508.6643 726.31837 531.43944 c 1
107.01562 531.43944 m 1
 113.59205 521.40615 120.37252 511.50776 128.7168 503.20116 c 0
 139.31367 492.65212 151.21243 483.57523 164.0625 476.15623 c 0
 173.54553 470.6812 183.99715 467.12856 194.39063 463.54099 c 1
 89.220703 463.54099 l 1
 89.626439 475.91361 90.865653 488.22962 94.048828 500.10936 c 0
 96.973905 511.02586 101.84707 521.31911 107.01562 531.43944 c 1
744.79102 569.49804 m 1
 744.79102 513.83397 l 1
 741.57512 523.18726 738.26428 532.51451 733.45313 541.23241 c 1
 733.69727 541.66599 l 1
 733.45313 542.10155 l 1
 738.26428 550.81945 741.57512 560.14474 744.79102 569.49804 c 1
88.541016 569.49804 m 1
 91.756914 560.14474 95.069702 550.81945 99.88086 542.10155 c 1
 99.636719 541.66599 l 1
 99.88086 541.23241 l 1
 95.069702 532.51451 91.756914 523.18726 88.541016 513.83397 c 1
 88.541016 569.49804 l 1
588.54102 619.11326 m 1
 615.46777 618.22659 641.41471 611.24758 664.0625 598.17186 c 0
 687.26824 584.77402 706.84814 565.32194 721.16406 541.66599 c 1
 692.87644 494.92287 643.05787 466.01595 588.54102 464.22069 c 1
 588.54102 619.11326 l 1
244.79101 619.11326 m 1
 244.79101 464.22069 l 1
 190.27417 466.01595 140.45755 494.92287 112.16992 541.66599 c 1
 119.03984 553.01801 126.88469 563.61026 136.06836 572.75388 c 0
 146.02211 582.66424 157.20172 591.20338 169.27148 598.17186 c 0
 191.91927 611.24758 217.86427 618.22655 244.79101 619.11326 c 1
638.94337 619.791 m 1
 744.11328 619.791 l 1
 743.70759 607.41838 742.46832 595.10431 739.28516 583.22459 c 0
 736.36007 572.30808 731.48692 562.0129 726.31837 551.89256 c 1
 711.39016 574.6677 692.24006 593.9168 669.27149 607.17772 c 0
 659.78846 612.65275 649.33684 616.20343 638.94337 619.791 c 1
399.06054 619.791 m 1
 434.27149 619.791 l 1
 494.79102 498.77924 l 1
 494.79102 463.54094 l 1
 487.60352 463.54094 l 1
 475.93945 463.54094 l 1
 345.73047 463.54094 l 1
 338.54102 463.54094 l 1
 338.54102 498.77929 l 1
 399.06054 619.791 l 1
338.54102 619.791 m 1
 387.39649 619.791 l 1
 338.54102 522.08202 l 1
 338.54102 619.791 l 1
279.26953 619.791 m 1
 328.125 619.791 l 1
 328.125 522.08202 l 1
 279.26953 619.791 l 1
89.220703 619.791 m 1
 194.39063 619.791 l 1
 169.91337 611.34205 147.1339 598.46676 128.7168 580.1328 c 0
 120.37252 571.8262 113.59205 561.92586 107.01562 551.89256 c 1
 96.222448 573.02622 89.999277 596.04897 89.220703 619.791 c 1
416.66602 655.00194 m 1
 429.06445 630.20897 l 1
 404.26953 630.20897 l 1
 416.66602 655.00194 l 1
628.22852 744.791 m 1
 744.79102 744.791 l 1
 744.79102 630.20897 l 1
 588.54102 630.20897 l 1
 588.54102 665.44725 l 1
 628.22852 744.791 l 1
588.54102 744.791 m 1
 616.56445 744.791 l 1
 588.54102 688.74804 l 1
 588.54102 744.791 l 1
338.54102 744.791 m 1
 371.77149 744.791 l 1
 410.83399 666.666 l 1
 392.60547 630.20897 l 1
 338.54102 630.20897 l 1
 338.54102 744.791 l 1
255.20899 744.791 m 1
 328.125 744.791 l 1
 328.125 630.20897 l 1
 262.39649 630.20897 l 1
 255.20899 630.20897 l 1
 255.20899 666.666 l 1
 255.20899 667.8867 l 1
 255.20899 744.791 l 1
216.76953 744.791 m 1
 244.79101 744.791 l 1
 244.79101 688.74804 l 1
 216.76953 744.791 l 1
88.541016 744.791 m 1
 205.10547 744.791 l 1
 244.79101 665.41795 l 1
 244.79101 630.20897 l 1
 88.541016 630.20897 l 1
 88.541016 744.791 l 1
338.54102 811.25194 m 1
 366.56445 755.20897 l 1
 338.54102 755.20897 l 1
 338.54102 811.25194 l 1
669.89453 828.12498 m 1
 744.79102 828.12498 l 1
 744.79102 755.20897 l 1
 633.43555 755.20897 l 1
 669.89453 828.12498 l 1
588.54102 828.12498 m 1
 658.23046 828.12498 l 1
 621.77149 755.20897 l 1
 588.54102 755.20897 l 1
 588.54102 828.12498 l 1
255.20899 828.12498 m 1
 328.125 828.12498 l 1
 328.125 755.20897 l 1
 255.20899 755.20897 l 1
 255.20899 828.12498 l 1
175.10352 828.12498 m 1
 244.79101 828.12498 l 1
 244.79101 755.20897 l 1
 211.56055 755.20897 l 1
 175.10352 828.12498 l 1
88.541016 828.12498 m 1
 163.43945 828.12498 l 1
 199.89648 755.20897 l 1
 88.541016 755.20897 l 1
 88.541016 828.12498 l 1
716.82421 921.98436 m 1
 733.33878 897.07266 742.96182 868.46582 743.95117 838.541 c 1
 675.10352 838.541 l 1x21f780
 696.34375 881.02147 l 1
 716.82421 921.98436 l 1
116.50977 921.98436 m 1
 136.99023 881.02147 l 1
 158.23047 838.541 l 1
 89.382812 838.541 l 1
 89.899777 854.17766 91.917932 869.69714 96.814453 884.3867 c 0
 101.28869 897.80942 108.62459 910.08982 116.50977 921.98436 c 1
744.79102 977.91795 m 1
 744.79102 890.75975 l 1
 739.42078 905.85149 731.93994 920.16287 722.49414 933.32225 c 1
 722.76563 933.89256 l 1
 738.00977 964.35545 l 1
 744.79102 977.91795 l 1
255.20899 977.91795 m 1
 324.89649 838.541 l 1
 255.20899 838.541 l 1
 255.20899 977.91795 l 1
88.541016 977.91795 m 1
 110.56836 933.89256 l 1
 110.83984 933.32225 l 1
 101.39406 920.16288 93.911258 905.85149 88.541016 890.75975 c 1
 88.541016 977.91795 l 1
588.54102 994.1953 m 1x21f7c0
 624.7261 993.00828 659.23577 980.2362 686.60546 957.46483 c 0
 695.39253 950.15405 703.23194 941.60537 710.39453 932.42772 c 1
 663.43945 838.541 l 1
 588.54102 838.541 l 1
 588.54102 994.1953 l 1x21f7c0
244.79101 994.1953 m 1
 244.79101 838.541 l 1
 169.89453 838.541 l 1
 122.9375 932.42772 l 1
 130.10011 941.60537 137.94144 950.15405 146.72852 957.46483 c 0
 156.29665 965.42544 166.72571 972.22416 177.78906 977.75584 c 0
 198.37249 988.04755 221.25583 993.42325 244.79101 994.1953 c 1
638.91602 994.791 m 1x21ef80
 741.56445 994.791 l 1
 715.76563 943.19725 l 1
 715.30469 942.27342 l 1
 708.45373 950.56404 701.39488 958.69091 693.25 965.46678 c 0
 683.0641 973.94063 671.989 981.1715 660.21093 987.06053 c 0
 653.45723 990.43739 646.06918 992.32607 638.91602 994.791 c 1x21ef80
91.769531 994.791 m 1
 194.41797 994.791 l 1
 187.2648 992.32607 179.87676 990.43739 173.12305 987.06053 c 0
 161.34498 981.1715 150.26794 973.94063 140.08203 965.46678 c 0
 131.93716 958.69091 124.88022 950.56405 118.0293 942.27342 c 1
 117.56641 943.19725 l 1
 91.769531 994.791 l 1
EndSplineSet
Validated: 524289
EndChar

StartChar: O
Encoding: 17 79 17
Width: 833
VWidth: 1024
HStem: 5.80467 155.654<169.895 244.791 588.541 663.439> 171.875 72.916<88.541 163.439 669.895 744.791> 255.209 62.5<147.597 154.08 168.836 205.105 628.229 664.496 679.254 685.737> 255.209 29.1328<708.361 716.262> 327.582 0.54296<182.482 185.768 647.566 650.852> 338.541 114.584<88.541 244.791 588.541 744.791> 464.221 154.893<194.391 244.791 588.541 638.943 638.943 638.943> 630.209 114.582<88.541 205.105 628.229 744.791> 755.209 72.916<88.541 163.439 211.561 244.791 588.541 621.771 669.895 744.791> 838.541 156.25<171.201 244.791 338.541 494.791 588.541 662.131>
VStem: 88.541 156.25<131.534 161.459 338.541 453.125 464.221 475.914 596.049 619.113 630.209 665.418 838.541 868.466> 338.541 156.25<85.5039 161.459 838.541 994.791> 588.541 156.25<131.534 161.459 338.541 453.125 464.221 475.914 607.418 619.113 630.209 665.447 838.541 868.466> 669.895 74.8965<149.013 161.459 838.541 849.784>
LayerCount: 2
Fore
SplineSet
494.79102 70.74607 m 1xcff0
 494.79102 5.20896 l 1
 429.25391 5.20896 l 1
 494.79102 70.74607 l 1xcff0
338.54102 70.74607 m 1
 404.08007 5.20896 l 1
 338.54102 5.20896 l 1
 338.54102 70.74607 l 1
526.33985 102.29491 m 1
 574.89649 5.20896 l 1
 505.20899 5.20896 l 1
 505.20899 81.16405 l 1
 526.33985 102.29491 l 1
306.99414 102.29491 m 1
 328.125 81.16405 l 1
 328.125 5.20896 l 1
 258.43554 5.20896 l 1
 306.99414 102.29491 l 1
505.20899 144.58592 m 1
 521.42968 112.11327 l 1
 505.20899 95.91991 l 1
 505.20899 144.58592 l 1
328.125 144.58592 m 1
 328.125 95.91986 l 1
 311.90235 112.14256 l 1
 328.125 144.58592 l 1
578.125 154.08006 m 1
 578.125 22.08207 l 1
 534.125 110.10741 l 1
 578.125 154.08006 l 1
255.20899 154.08006 m 1
 299.20703 110.08006 l 1
 255.20899 22.08202 l 1
 255.20899 154.08006 l 1
675.10352 161.45896 m 1
 743.95117 161.45896 l 1
 742.96187 131.53414 733.33878 102.92731 716.82421 78.01562 c 1
 675.10352 161.45896 l 1
588.54102 161.45896 m 1xcff8
 663.43945 161.45896 l 1
 710.39453 67.57225 l 1
 680.92206 29.80838 636.34337 7.37278 588.54102 5.80467 c 1
 588.54102 161.45896 l 1xcff8
508.43554 161.45896 m 1
 570.74609 161.45896 l 1
 529.21485 119.92771 l 1
 508.43554 161.45896 l 1
338.54102 161.45896 m 1
 494.79102 161.45896 l 1
 494.79102 85.50389 l 1
 416.66602 7.37889 l 1
 338.54102 85.50389 l 1
 338.54102 161.45896 l 1
262.58593 161.45896 m 1
 324.89649 161.45896 l 1
 304.11718 119.92771 l 1
 262.58593 161.45896 l 1
169.89453 161.45896 m 1
 244.79101 161.45896 l 1
 244.79101 5.80467 l 1
 196.98867 7.37278 152.40998 29.80838 122.9375 67.57225 c 1
 169.89453 161.45896 l 1
89.382812 161.45896 m 1
 158.23047 161.45896 l 1
 136.99023 118.97851 l 1
 116.50977 78.01562 l 1
 99.995201 102.92731 90.372159 131.53414 89.382812 161.45896 c 1
637.45117 213.40623 m 1
 658.23046 171.87498 l 1
 595.91992 171.87498 l 1
 637.45117 213.40623 l 1
195.88281 213.40623 m 1
 237.41406 171.87498 l 1
 175.10352 171.87498 l 1
 195.88281 213.40623 l 1
668.83593 244.79101 m 1
 744.79102 244.79105 l 1
 744.79102 171.87502 l 1
 669.89453 171.87502 l 1xcff4
 645.23632 221.21873 l 1
 668.83593 244.79101 l 1
633.43555 244.79101 m 1
 654.08007 244.79101 l 1
 640.32617 231.03905 l 1
 633.43555 244.79101 l 1
588.54102 244.79101 m 1
 621.77149 244.79101 l 1
 632.54102 223.22459 l 1
 588.54102 179.25389 l 1
 588.54102 244.79101 l 1
211.56055 244.79101 m 1
 244.79101 244.79105 l 1
 244.79101 179.25393 l 1
 200.79297 223.25389 l 1
 211.56055 244.79101 l 1
179.25391 244.79101 m 1
 199.89648 244.79101 l 1
 193.00586 231.03905 l 1
 179.25391 244.79101 l 1
88.541016 244.79101 m 1
 164.49609 244.79097 l 1
 188.09766 221.19139 l 1
 163.43945 171.87498 l 1
 88.541016 171.87498 l 1
 88.541016 244.79101 l 1
708.36132 284.34178 m 1xdff0
 708.38867 284.34178 l 1
 719.23691 275.82438 728.60056 265.73277 737.49609 255.20896 c 1
 679.25391 255.20896 l 1
 708.36132 284.34178 l 1xdff0
124.97266 284.34178 m 1
 154.08008 255.20896 l 1
 95.837891 255.20896 l 1
 104.73343 265.73277 114.09708 275.82438 124.97266 284.34178 c 1
588.54102 311.25194 m 1xcff8
 616.56445 255.20896 l 1
 588.54102 255.20896 l 1
 588.54102 311.25194 l 1xcff8
244.79101 311.25194 m 1
 244.79101 255.20896 l 1
 216.76953 255.20896 l 1
 244.79101 311.25194 l 1
744.79102 320.74608 m 1
 744.79102 262.50587 l 1
 735.85967 272.98362 726.44534 283.03983 715.6582 291.6406 c 1
 716.25391 292.23631 l 1
 744.79102 320.74608 l 1
88.541016 320.74608 m 1
 117.07812 292.23626 l 1
 117.67578 291.61131 l 1
 106.88864 283.03851 97.47236 272.98359 88.541016 262.50584 c 1
 88.541016 320.74608 l 1
592.50195 326.6328 m 1
 611.25377 325.7653 629.92827 323.58965 647.57031 317.70897 c 0
 666.17421 311.50766 683.46398 301.7839 699.67969 290.39256 c 1
 664.49609 255.20896 l 1
 628.22852 255.20896 l 1
 592.50195 326.6328 l 1
240.83203 326.6328 m 1
 205.10547 255.20896 l 1
 168.83594 255.20896 l 1
 133.6543 290.39256 l 1
 149.87001 301.7839 167.15977 311.50766 185.76367 317.70897 c 0xeff0
 203.40571 323.58965 222.08021 325.7653 240.83203 326.6328 c 1
647.51563 328.12498 m 1
 737.41403 328.12498 l 1
 707.84567 298.55663 l 1
 707.30274 298.01366 l 1
 689.83541 310.51835 671.00584 320.86392 650.85156 327.58202 c 0
 649.783 327.9382 648.58989 327.7863 647.51563 328.12498 c 1
95.919922 328.12498 m 1
 185.81832 328.12498 l 1
 184.74355 327.78553 183.5516 327.93841 182.48238 327.58202 c 0
 162.32811 320.86392 143.49855 310.51835 126.00391 298.01366 c 1
 125.48828 298.55663 l 1
 95.919922 328.12498 l 1
588.54102 453.12498 m 1xcff8
 744.79102 453.12498 l 1
 744.79102 338.54101 l 1
 588.54102 338.54101 l 1
 588.54102 453.12498 l 1xcff8
88.541016 453.12498 m 1
 244.79101 453.12498 l 1
 244.79101 338.54101 l 1
 88.541016 338.54101 l 1
 88.541016 453.12498 l 1
726.31837 531.43944 m 1
 731.48692 521.31911 736.36007 511.02586 739.28516 500.10936 c 0
 742.46832 488.22962 743.70755 475.91361 744.11328 463.54099 c 1
 638.94337 463.54099 l 1
 674.51059 475.81791 705.22677 499.26113 726.31837 531.43944 c 1
107.01562 531.43944 m 1
 121.94383 508.6643 141.09393 489.41715 164.0625 476.15623 c 0
 173.54553 470.6812 183.99715 467.12856 194.39063 463.54099 c 1
 89.220703 463.54099 l 1
 89.626439 475.91361 90.865653 488.22962 94.048828 500.10936 c 0
 96.973905 511.02586 101.84707 521.31911 107.01562 531.43944 c 1
744.79102 569.49804 m 1
 744.79102 513.83397 l 1
 741.57512 523.18726 738.26428 532.51451 733.45313 541.23241 c 1
 733.69727 541.66599 l 1
 733.45313 542.10155 l 1
 738.26428 550.81945 741.57512 560.14474 744.79102 569.49804 c 1
88.541016 569.49804 m 1
 91.756914 560.14474 95.069702 550.81945 99.88086 542.10155 c 1
 99.636719 541.66599 l 1
 99.88086 541.23241 l 1
 95.069702 532.51451 91.756914 523.18726 88.541016 513.83397 c 1
 88.541016 569.49804 l 1
588.54102 619.11326 m 1
 601.1176 618.69909 613.5773 617.41518 625.46093 614.20311 c 0
 665.09038 603.49156 699.40216 577.62587 721.16406 541.66599 c 1
 706.84814 518.01005 687.26824 498.55992 664.0625 485.16209 c 0
 651.99274 478.19361 639.02043 472.79392 625.46093 469.1289 c 0
 613.5773 465.91683 601.1176 464.63484 588.54102 464.22069 c 1
 588.54102 619.11326 l 1
244.79101 619.11326 m 1
 244.79101 464.22069 l 1
 217.86427 465.1074 191.91927 472.08637 169.27148 485.16209 c 0
 146.06575 498.55992 126.48583 518.01005 112.16992 541.66599 c 1
 119.03984 553.01801 126.88469 563.61026 136.06836 572.75388 c 0
 146.02211 582.66424 157.20172 591.20338 169.27148 598.17186 c 0
 181.34124 605.14034 194.31355 610.53808 207.87305 614.20311 c 0
 219.75669 617.41518 232.21443 618.69911 244.79101 619.11326 c 1
638.94337 619.791 m 1
 744.11328 619.791 l 1
 743.70759 607.41838 742.46832 595.10431 739.28516 583.22459 c 0
 736.36007 572.30808 731.48692 562.0129 726.31837 551.89256 c 1
 719.74194 561.92586 712.96146 571.8262 704.61719 580.1328 c 0
 686.20009 598.46676 663.42063 611.34205 638.94337 619.791 c 1
89.220703 619.791 m 1
 194.39063 619.791 l 1
 183.99715 616.20343 173.54553 612.65275 164.0625 607.17772 c 0
 151.21243 599.75872 139.31367 590.68184 128.7168 580.1328 c 0
 120.37252 571.8262 113.59205 561.92586 107.01562 551.89256 c 1
 96.222448 573.02622 89.999277 596.04897 89.220703 619.791 c 1
628.22852 744.791 m 1
 744.79102 744.791 l 1
 744.79102 630.20897 l 1
 588.54102 630.20897 l 1
 588.54102 665.44725 l 1
 628.22852 744.791 l 1
588.54102 744.791 m 1
 616.56445 744.791 l 1
 588.54102 688.74804 l 1
 588.54102 744.791 l 1
216.76953 744.791 m 1
 244.79101 744.791 l 1
 244.79101 688.74804 l 1
 216.76953 744.791 l 1
88.541016 744.791 m 1
 205.10547 744.791 l 1
 244.79101 665.41795 l 1
 244.79101 630.20897 l 1
 88.541016 630.20897 l 1
 88.541016 744.791 l 1
669.89453 828.12498 m 1
 744.79102 828.12498 l 1
 744.79102 755.20897 l 1
 633.43555 755.20897 l 1
 669.89453 828.12498 l 1
588.54102 828.12498 m 1
 658.23046 828.12498 l 1
 621.77149 755.20897 l 1
 588.54102 755.20897 l 1
 588.54102 828.12498 l 1
175.10352 828.12498 m 1
 244.79101 828.12498 l 1
 244.79101 755.20897 l 1
 211.56055 755.20897 l 1
 175.10352 828.12498 l 1
88.541016 828.12498 m 1
 163.43945 828.12498 l 1
 199.89648 755.20897 l 1
 88.541016 755.20897 l 1
 88.541016 828.12498 l 1
716.82421 921.98436 m 1
 733.33878 897.07266 742.96182 868.46582 743.95117 838.541 c 1
 675.10352 838.541 l 1
 696.34375 881.02147 l 1
 716.82421 921.98436 l 1
116.50977 921.98436 m 1
 136.99023 881.02147 l 1
 158.23047 838.541 l 1
 89.382812 838.541 l 1
 90.372159 868.46582 99.995201 897.07266 116.50977 921.98436 c 1
578.125 977.91795 m 1
 578.125 838.541 l 1
 508.43554 838.541 l 1
 578.125 977.91795 l 1
255.20899 977.91795 m 1
 324.89649 838.541 l 1
 255.20899 838.541 l 1
 255.20899 977.91795 l 1
588.54102 994.1953 m 1
 636.34337 992.62718 680.92206 970.19161 710.39453 932.42772 c 1
 663.43945 838.541 l 1
 588.54102 838.541 l 1
 588.54102 994.1953 l 1
244.79101 994.1953 m 1
 244.79101 838.541 l 1
 169.89453 838.541 l 1
 122.9375 932.42772 l 1
 152.40998 970.19161 196.98867 992.62718 244.79101 994.1953 c 1
505.20899 994.791 m 1
 574.89649 994.791 l 1
 505.20899 855.41405 l 1
 505.20899 994.791 l 1
338.54102 994.791 m 1
 494.79102 994.791 l 1
 494.79102 838.541 l 1
 338.54102 838.541 l 1
 338.54102 994.791 l 1
258.43554 994.791 m 1
 328.125 994.791 l 1
 328.125 855.41405 l 1
 258.43554 994.791 l 1
EndSplineSet
Validated: 524289
EndChar

StartChar: P
Encoding: 18 80 18
Width: 833
VWidth: 1024
HStem: 5.20896 7.73047<166.266 192.064> 171.875 72.916<88.541 163.439> 255.209 62.5<147.597 154.08 168.836 205.105> 327.582 0.54296<182.482 185.768> 338.541 114.584<88.541 244.791> 463.541 156.25<194.391 244.791 255.209 267.605 399.061 434.271 565.729 578.125 588.541 662.541> 630.209 114.582<88.541 205.105 628.229 744.791> 755.209 72.916<88.541 163.439 211.561 244.791 588.541 621.771 669.895 744.791> 838.541 156.25<194.418 244.791 338.541 494.791 588.541 662.131>
VStem: 88.541 156.25<131.534 161.459 338.541 453.125 464.221 475.914 596.049 619.113 630.209 665.418 838.541 854.178> 255.209 72.916<463.541 498.752> 338.541 156.25<463.541 498.752 838.541 994.791> 505.209 72.916<463.541 498.779> 588.541 156.25<596.049 619.113 630.209 665.447 838.541 868.466>
LayerCount: 2
Fore
SplineSet
118.0293 57.72655 m 1
 133.44793 39.06773 151.92699 23.53746 173.12305 12.93943 c 0
 179.87676 9.56257 187.2648 7.67389 194.41797 5.20896 c 1
 91.769531 5.20896 l 1
 117.56641 56.80271 l 1
 118.0293 57.72655 l 1
88.541016 109.24021 m 1
 93.911258 94.14848 101.39405 79.83709 110.83984 66.67771 c 1
 110.56836 66.10741 l 1
 95.324219 35.64452 l 1
 88.541016 22.08202 l 1
 88.541016 109.24021 l 1
169.89453 161.45896 m 1
 244.79101 161.45896 l 1
 244.79101 5.80467 l 1
 196.98867 7.37278 152.40998 29.80838 122.9375 67.57225 c 1
 169.89453 161.45896 l 1
89.382812 161.45896 m 1
 158.23047 161.45896 l 1
 136.99023 118.97851 l 1
 116.50977 78.01562 l 1
 99.995201 102.92731 90.372159 131.53414 89.382812 161.45896 c 1
195.88281 213.40623 m 1
 237.41406 171.87498 l 1
 175.10352 171.87498 l 1
 195.88281 213.40623 l 1
211.56055 244.79101 m 1
 244.79101 244.79105 l 1
 244.79101 179.25393 l 1
 200.79297 223.25389 l 1
 211.56055 244.79101 l 1
179.25391 244.79101 m 1
 199.89648 244.79101 l 1
 193.00586 231.03905 l 1
 179.25391 244.79101 l 1
88.541016 244.79101 m 1
 164.49609 244.79097 l 1
 188.09766 221.19139 l 1
 163.43945 171.87498 l 1
 88.541016 171.87498 l 1
 88.541016 244.79101 l 1
124.97266 284.34178 m 1
 154.08008 255.20896 l 1
 95.837891 255.20896 l 1
 104.73343 265.73277 114.09708 275.82438 124.97266 284.34178 c 1
244.79101 311.25194 m 1
 244.79101 255.20896 l 1
 216.76953 255.20896 l 1
 244.79101 311.25194 l 1
88.541016 320.74608 m 1
 117.07812 292.23626 l 1
 117.67578 291.61131 l 1
 106.88864 283.03851 97.47236 272.98359 88.541016 262.50584 c 1
 88.541016 320.74608 l 1
240.83203 326.6328 m 1
 205.10547 255.20896 l 1
 168.83594 255.20896 l 1
 133.6543 290.39256 l 1
 149.87001 301.7839 167.15977 311.50766 185.76367 317.70897 c 0
 203.40571 323.58965 222.08021 325.7653 240.83203 326.6328 c 1
95.919922 328.12498 m 1
 185.81832 328.12498 l 1
 184.74355 327.78553 183.5516 327.93841 182.48238 327.58202 c 0
 162.32811 320.86392 143.49855 310.51835 126.00391 298.01366 c 1
 125.48828 298.55663 l 1
 95.919922 328.12498 l 1
88.541016 453.12498 m 1
 244.79101 453.12498 l 1
 244.79101 338.54101 l 1
 88.541016 338.54101 l 1
 88.541016 453.12498 l 1
107.01562 531.43944 m 1
 113.59205 521.40615 120.37252 511.50776 128.7168 503.20116 c 0
 139.31367 492.65212 151.21243 483.57523 164.0625 476.15623 c 0
 173.54553 470.6812 183.99715 467.12856 194.39063 463.54099 c 1
 89.220703 463.54099 l 1
 89.626439 475.91361 90.865653 488.22962 94.048828 500.10936 c 0
 96.973905 511.02586 101.84707 521.31911 107.01562 531.43944 c 1
88.541016 569.49804 m 1
 91.756914 560.14474 95.069702 550.81945 99.88086 542.10155 c 1
 99.636719 541.66599 l 1
 99.88086 541.23241 l 1
 95.069702 532.51451 91.756914 523.18726 88.541016 513.83397 c 1
 88.541016 569.49804 l 1
588.54102 619.11326 m 1
 601.1176 618.69909 613.5773 617.41518 625.46093 614.20311 c 0
 665.09038 603.49156 699.40216 577.62587 721.16406 541.66599 c 1
 692.87644 494.92287 643.05787 466.01595 588.54102 464.22069 c 1
 588.54102 619.11326 l 1
244.79101 619.11326 m 1
 244.79101 464.22069 l 1
 217.86427 465.1074 191.91927 472.08637 169.27148 485.16209 c 0
 146.06575 498.55992 126.48583 518.01005 112.16992 541.66599 c 1
 119.03984 553.01801 126.88469 563.61026 136.06836 572.75388 c 0
 155.97587 592.57459 180.75406 606.87305 207.87305 614.20311 c 0
 219.75669 617.41518 232.21443 618.69911 244.79101 619.11326 c 1
638.94337 619.791 m 1
 744.11328 619.791 l 1
 743.33467 596.04897 737.11155 573.02622 726.31837 551.89256 c 1
 719.74194 561.92586 712.96146 571.8262 704.61719 580.1328 c 0
 686.20009 598.46676 663.42063 611.34205 638.94337 619.791 c 1
565.72852 619.791 m 1
 578.125 619.791 l 1
 578.125 463.54094 l 1
 505.20899 463.54094 l 1
 505.20899 498.77929 l 1
 565.72852 619.791 l 1
505.20899 619.791 m 1
 554.06445 619.791 l 1
 505.20899 522.08202 l 1
 505.20899 619.791 l 1
445.93554 619.791 m 1
 494.79102 619.791 l 1
 494.79102 522.08202 l 1
 445.93554 619.791 l 1
399.06054 619.791 m 1
 434.27149 619.791 l 1
 494.79102 498.75189 l 1
 494.79102 463.54094 l 1
 338.54102 463.54094 l 1
 338.54102 498.77929 l 1
 399.06054 619.791 l 1
338.54102 619.791 m 1
 387.39649 619.791 l 1
 338.54102 522.08202 l 1
 338.54102 619.791 l 1
279.26953 619.791 m 1
 328.125 619.791 l 1
 328.125 522.08202 l 1
 279.26953 619.791 l 1
255.20899 619.791 m 1
 267.60547 619.791 l 1
 328.125 498.75194 l 1
 328.125 463.54099 l 1
 255.20899 463.54099 l 1
 255.20899 619.791 l 1
89.220703 619.791 m 1
 194.39063 619.791 l 1
 169.91337 611.34205 147.1339 598.46676 128.7168 580.1328 c 0
 120.37252 571.8262 113.59205 561.92586 107.01562 551.89256 c 1
 96.222448 573.02622 89.999277 596.04897 89.220703 619.791 c 1
628.22852 744.791 m 1
 744.79102 744.791 l 1
 744.79102 630.20897 l 1
 588.54102 630.20897 l 1
 588.54102 665.44725 l 1
 628.22852 744.791 l 1
588.54102 744.791 m 1
 616.56445 744.791 l 1
 588.54102 688.74804 l 1
 588.54102 744.791 l 1
216.76953 744.791 m 1
 244.79101 744.791 l 1
 244.79101 688.74804 l 1
 216.76953 744.791 l 1
88.541016 744.791 m 1
 205.10547 744.791 l 1
 244.79101 665.41795 l 1
 244.79101 630.20897 l 1
 88.541016 630.20897 l 1
 88.541016 744.791 l 1
669.89453 828.12498 m 1
 744.79102 828.12498 l 1
 744.79102 755.20897 l 1
 633.43555 755.20897 l 1
 669.89453 828.12498 l 1
588.54102 828.12498 m 1
 658.23046 828.12498 l 1
 621.77149 755.20897 l 1
 588.54102 755.20897 l 1
 588.54102 828.12498 l 1
175.10352 828.12498 m 1
 244.79101 828.12498 l 1
 244.79101 755.20897 l 1
 211.56055 755.20897 l 1
 175.10352 828.12498 l 1
88.541016 828.12498 m 1
 163.43945 828.12498 l 1
 199.89648 755.20897 l 1
 88.541016 755.20897 l 1
 88.541016 828.12498 l 1
716.82421 921.98436 m 1
 733.33878 897.07266 742.96182 868.46582 743.95117 838.541 c 1
 675.10352 838.541 l 1
 696.34375 881.02147 l 1
 716.82421 921.98436 l 1
116.50977 921.98436 m 1
 136.99023 881.02147 l 1
 158.23047 838.541 l 1
 89.382812 838.541 l 1
 89.899777 854.17766 91.917932 869.69714 96.814453 884.3867 c 0
 101.28869 897.80942 108.62459 910.08982 116.50977 921.98436 c 1
578.125 977.91795 m 1
 578.125 838.541 l 1
 508.43554 838.541 l 1
 578.125 977.91795 l 1
255.20899 977.91795 m 1
 324.89649 838.541 l 1
 255.20899 838.541 l 1
 255.20899 977.91795 l 1
88.541016 977.91795 m 1
 110.56836 933.89256 l 1
 110.83984 933.32225 l 1
 101.39406 920.16288 93.911258 905.85149 88.541016 890.75975 c 1
 88.541016 977.91795 l 1
588.54102 994.1953 m 1
 636.34337 992.62718 680.92206 970.19161 710.39453 932.42772 c 1
 663.43945 838.541 l 1
 588.54102 838.541 l 1
 588.54102 994.1953 l 1
244.79101 994.1953 m 1
 244.79101 838.541 l 1
 169.89453 838.541 l 1
 122.9375 932.42772 l 1
 130.10011 941.60537 137.94144 950.15405 146.72852 957.46483 c 0
 174.09821 980.2362 208.60593 993.00828 244.79101 994.1953 c 1
505.20899 994.791 m 1
 574.89649 994.791 l 1
 505.20899 855.41405 l 1
 505.20899 994.791 l 1
338.54102 994.791 m 1
 494.79102 994.791 l 1
 494.79102 838.541 l 1
 338.54102 838.541 l 1
 338.54102 994.791 l 1
258.43554 994.791 m 1
 328.125 994.791 l 1
 328.125 855.41405 l 1
 258.43554 994.791 l 1
91.769531 994.791 m 1
 194.41797 994.791 l 1
 174.79012 988.02739 156.10869 978.79966 140.08203 965.46678 c 0
 131.93716 958.69091 124.88022 950.56405 118.0293 942.27342 c 1
 117.56641 943.19725 l 1
 91.769531 994.791 l 1
EndSplineSet
Validated: 524289
EndChar

StartChar: Q
Encoding: 19 81 19
Width: 833
VWidth: 1024
HStem: 5.20896 7.73047<641.27 667.3> 5.80467 155.654<169.895 244.791 588.541 638.916> 171.875 72.916<88.541 163.439 505.209 578.125 669.895 744.791> 255.209 62.5<147.597 154.08 168.836 205.105> 255.209 29.1328<708.361 716.262> 327.582 0.54296<182.482 185.768> 328.125 5.68434e-14<184.744 185.818> 338.541 114.584<88.541 244.791 482.395 494.791 505.209 517.605 588.541 744.791> 464.221 154.893<194.391 244.791 588.541 638.943 638.943 638.943> 630.209 114.582<88.541 205.105 628.229 744.791> 755.209 72.916<88.541 163.439 211.561 244.791 588.541 621.771 669.895 744.791> 838.541 156.25<171.201 244.791 338.541 494.791 588.541 662.131>
VStem: 88.541 156.25<131.534 161.459 338.541 453.125 464.221 475.914 596.049 619.113 630.209 665.418 838.541 868.466> 338.541 156.25<85.5039 161.459 838.541 994.791> 425.104 69.6875<314.125 328.125 338.541 352.541> 505.209 72.916<5.20896 18.3324 171.875 244.791 338.541 351.794> 588.541 156.25<131.534 161.459 338.541 453.125 464.221 475.914 607.418 619.113 630.209 665.447 838.541 868.466> 669.895 74.8965<149.013 161.459 838.541 849.784>
LayerCount: 2
Fore
SplineSet
715.30469 57.72655 m 1xa1f9
 715.76563 56.80271 l 1
 741.56445 5.20896 l 1
 638.91602 5.20896 l 1
 646.06918 7.67389 653.45723 9.56257 660.21093 12.93943 c 0
 671.989 18.82846 683.0641 26.05934 693.25 34.53318 c 0
 701.39488 41.30906 708.45377 49.43592 715.30469 57.72655 c 1xa1f9
494.79102 70.74607 m 1x21fb
 494.79102 5.20896 l 1
 429.25391 5.20896 l 1
 494.79102 70.74607 l 1x21fb
338.54102 70.74607 m 1xa1fd
 404.08007 5.20896 l 1
 338.54102 5.20896 l 1
 338.54102 70.74607 l 1xa1fd
526.33985 102.29491 m 1
 574.89649 5.20896 l 1
 505.20899 5.20896 l 1
 505.20899 81.16405 l 1
 526.33985 102.29491 l 1
306.99414 102.29491 m 1
 328.125 81.16405 l 1
 328.125 5.20896 l 1
 258.43554 5.20896 l 1
 306.99414 102.29491 l 1
505.20899 144.58592 m 1
 521.42968 112.11327 l 1
 505.20899 95.91991 l 1
 505.20899 144.58592 l 1
328.125 144.58592 m 1
 328.125 95.91986 l 1
 311.90235 112.14256 l 1
 328.125 144.58592 l 1
578.125 154.08006 m 1
 578.125 22.08207 l 1
 534.125 110.10741 l 1
 578.125 154.08006 l 1
255.20899 154.08006 m 1
 299.20703 110.08006 l 1
 255.20899 22.08202 l 1
 255.20899 154.08006 l 1
675.10352 161.45896 m 1
 743.95117 161.45896 l 1
 742.96187 131.53414 733.33878 102.92731 716.82421 78.01562 c 1
 675.10352 161.45896 l 1
588.54102 161.45896 m 1x61f980
 663.43945 161.45896 l 1
 710.39453 67.57225 l 1
 703.23194 58.39462 695.39253 49.84592 686.60546 42.53514 c 0
 667.46918 26.61391 644.87891 15.33243 620.66016 9.57616 c 0
 610.23999 7.0995 599.42631 6.16175 588.54102 5.80467 c 1
 588.54102 161.45896 l 1x61f980
508.43554 161.45896 m 1
 570.74609 161.45896 l 1
 529.21485 119.92771 l 1
 508.43554 161.45896 l 1
338.54102 161.45896 m 1x21fd
 494.79102 161.45896 l 1
 494.79102 85.50389 l 1
 416.66602 7.37889 l 1
 338.54102 85.50389 l 1
 338.54102 161.45896 l 1x21fd
262.58593 161.45896 m 1
 324.89649 161.45896 l 1
 304.11718 119.92771 l 1
 262.58593 161.45896 l 1
169.89453 161.45896 m 1
 244.79101 161.45896 l 1
 244.79101 5.80467 l 1x61f9
 196.98867 7.37278 152.40998 29.80838 122.9375 67.57225 c 1
 169.89453 161.45896 l 1
89.382812 161.45896 m 1
 158.23047 161.45896 l 1
 136.99023 118.97851 l 1
 116.50977 78.01562 l 1
 99.995201 102.92731 90.372159 131.53414 89.382812 161.45896 c 1
637.45117 213.40623 m 1
 658.23046 171.87498 l 1
 595.91992 171.87498 l 1
 637.45117 213.40623 l 1
195.88281 213.40623 m 1
 237.41406 171.87498 l 1
 175.10352 171.87498 l 1
 195.88281 213.40623 l 1
668.83593 244.79101 m 1
 744.79102 244.79105 l 1
 744.79102 171.87502 l 1
 669.89453 171.87502 l 1x21f940
 645.23632 221.21873 l 1
 668.83593 244.79101 l 1
633.43555 244.79101 m 1
 654.08007 244.79101 l 1
 640.32617 231.03905 l 1
 633.43555 244.79101 l 1
588.54102 244.79101 m 1x21f980
 621.77149 244.79101 l 1
 632.54102 223.22459 l 1
 588.54102 179.25389 l 1
 588.54102 244.79101 l 1x21f980
505.20899 244.79101 m 1
 578.125 244.79101 l 1
 578.125 171.87498 l 1
 505.20899 171.87498 l 1
 505.20899 244.79101 l 1
466.76953 244.79101 m 1
 487.41406 244.79101 l 1
 494.79102 244.79101 l 1
 494.79102 237.41405 l 1
 494.79102 188.74803 l 1x21fb
 466.76953 244.79101 l 1
211.56055 244.79101 m 1
 244.79101 244.79105 l 1
 244.79101 179.25393 l 1
 200.79297 223.25389 l 1
 211.56055 244.79101 l 1
179.25391 244.79101 m 1
 199.89648 244.79101 l 1
 193.00586 231.03905 l 1
 179.25391 244.79101 l 1
88.541016 244.79101 m 1
 164.49609 244.79097 l 1
 188.09766 221.19139 l 1
 163.43945 171.87498 l 1
 88.541016 171.87498 l 1
 88.541016 244.79101 l 1
708.36132 284.34178 m 1x29f9
 708.38867 284.34178 l 1
 719.23691 275.82438 728.60056 265.73277 737.49609 255.20896 c 1
 679.25391 255.20896 l 1
 708.36132 284.34178 l 1x29f9
124.97266 284.34178 m 1
 154.08008 255.20896 l 1
 95.837891 255.20896 l 1
 104.73343 265.73277 114.09708 275.82438 124.97266 284.34178 c 1
588.54102 311.25194 m 1x21f980
 616.56445 255.20896 l 1
 588.54102 255.20896 l 1
 588.54102 311.25194 l 1x21f980
244.79101 311.25194 m 1
 244.79101 255.20896 l 1
 216.76953 255.20896 l 1
 244.79101 311.25194 l 1
744.79102 320.74608 m 1
 744.79102 262.50587 l 1
 735.85967 272.98362 726.44534 283.03983 715.6582 291.6406 c 1
 716.25391 292.23631 l 1
 744.79102 320.74608 l 1
578.125 320.74608 m 1
 578.125 255.20896 l 1
 512.58593 255.20896 l 1
 578.125 320.74608 l 1
88.541016 320.74608 m 1
 117.07812 292.23626 l 1
 117.67578 291.61131 l 1
 106.88864 283.03851 97.47236 272.98359 88.541016 262.50584 c 1
 88.541016 320.74608 l 1
592.50195 326.6328 m 1
 631.02796 324.85051 668.08666 312.58627 699.67969 290.39256 c 1
 664.49609 255.20896 l 1
 628.22852 255.20896 l 1
 592.50195 326.6328 l 1
240.83203 326.6328 m 1
 205.10547 255.20896 l 1
 168.83594 255.20896 l 1
 133.6543 290.39256 l 1
 149.87001 301.7839 167.15977 311.50766 185.76367 317.70897 c 0x31f9
 203.40571 323.58965 222.08021 325.7653 240.83203 326.6328 c 1
647.51563 328.12498 m 1x23f9
 737.41403 328.12498 l 1
 707.84567 298.55663 l 1
 707.30274 298.01366 l 1
 688.90938 311.1817 668.84909 321.38713 647.51563 328.12498 c 1x23f9
505.20899 328.12498 m 1
 570.74609 328.12498 l 1
 505.20899 262.58592 l 1
 505.20899 328.12498 l 1
425.10352 328.12498 m 1x23fb
 494.79102 328.12498 l 1
 494.79102 255.20896 l 1
 461.56054 255.20896 l 1
 425.10352 328.12498 l 1x23fb
95.919922 328.12498 m 1
 185.81832 328.12498 l 1x23f9
 184.74355 327.78553 183.5516 327.93841 182.48238 327.58202 c 0x25f9
 162.32811 320.86392 143.49855 310.51835 126.00391 298.01366 c 1
 125.48828 298.55663 l 1
 95.919922 328.12498 l 1
588.54102 453.12498 m 1x21f980
 744.79102 453.12498 l 1
 744.79102 338.54101 l 1
 595.91992 338.54101 l 1
 588.54102 338.54101 l 1
 588.54102 345.91991 l 1
 588.54102 453.12498 l 1x21f980
505.20899 453.12498 m 1
 517.60548 453.12498 l 1
 574.89649 338.54101 l 1
 505.20899 338.54101 l 1
 505.20899 453.12498 l 1
482.39453 453.12498 m 1
 494.79102 453.12498 l 1
 494.79102 338.54101 l 1
 425.10352 338.54101 l 1x21fb
 482.39453 453.12498 l 1
362.60352 453.12498 m 1
 470.73047 453.12498 l 1
 416.66602 344.99803 l 1
 362.60352 453.12498 l 1
88.541016 453.12498 m 1
 244.79101 453.12498 l 1
 244.79101 338.54101 l 1
 88.541016 338.54101 l 1
 88.541016 453.12498 l 1
726.31837 531.43944 m 1
 731.48692 521.31911 736.36007 511.02586 739.28516 500.10936 c 0
 742.46832 488.22962 743.70755 475.91361 744.11328 463.54099 c 1
 638.94337 463.54099 l 1
 674.51059 475.81791 705.22677 499.26113 726.31837 531.43944 c 1
107.01562 531.43944 m 1
 113.59205 521.40615 120.37252 511.50776 128.7168 503.20116 c 0
 139.31367 492.65212 151.21243 483.57523 164.0625 476.15623 c 0
 173.54553 470.6812 183.99715 467.12856 194.39063 463.54099 c 1
 89.220703 463.54099 l 1
 89.626439 475.91361 90.865653 488.22962 94.048828 500.10936 c 0
 96.973905 511.02586 101.84707 521.31911 107.01562 531.43944 c 1
744.79102 569.49804 m 1
 744.79102 513.83397 l 1
 741.57512 523.18726 738.26428 532.51451 733.45313 541.23241 c 1
 733.69727 541.66599 l 1
 733.45313 542.10155 l 1
 738.26428 550.81945 741.57512 560.14474 744.79102 569.49804 c 1
88.541016 569.49804 m 1
 91.756914 560.14474 95.069702 550.81945 99.88086 542.10155 c 1
 99.636719 541.66599 l 1
 99.88086 541.23241 l 1
 95.069702 532.51451 91.756914 523.18726 88.541016 513.83397 c 1
 88.541016 569.49804 l 1
588.54102 619.11326 m 1
 601.1176 618.69909 613.5773 617.41518 625.46093 614.20311 c 0
 665.09038 603.49156 699.40216 577.62587 721.16406 541.66599 c 1
 714.29414 530.31398 706.4493 519.72369 697.26563 510.58006 c 0
 687.31188 500.6697 676.13227 492.13056 664.0625 485.16209 c 0
 651.99274 478.19361 639.02043 472.79392 625.46093 469.1289 c 0
 613.5773 465.91683 601.1176 464.63484 588.54102 464.22069 c 1
 588.54102 619.11326 l 1
244.79101 619.11326 m 1
 244.79101 464.22069 l 1
 217.86427 465.1074 191.91927 472.08637 169.27148 485.16209 c 0
 157.20172 492.13056 146.02211 500.6697 136.06836 510.58006 c 0
 126.88469 519.72369 119.03984 530.31398 112.16992 541.66599 c 1
 119.03984 553.01801 126.88469 563.61026 136.06836 572.75388 c 0
 155.97587 592.57459 180.75406 606.87305 207.87305 614.20311 c 0
 219.75669 617.41518 232.21443 618.69911 244.79101 619.11326 c 1
638.94337 619.791 m 1
 744.11328 619.791 l 1
 743.70759 607.41838 742.46832 595.10431 739.28516 583.22459 c 0
 736.36007 572.30808 731.48692 562.0129 726.31837 551.89256 c 1
 719.74194 561.92586 712.96146 571.8262 704.61719 580.1328 c 0
 694.02031 590.68184 682.12156 599.75872 669.27149 607.17772 c 0
 659.78846 612.65275 649.33684 616.20343 638.94337 619.791 c 1
89.220703 619.791 m 1
 194.39063 619.791 l 1
 183.99715 616.20343 173.54553 612.65275 164.0625 607.17772 c 0
 151.21243 599.75872 139.31367 590.68184 128.7168 580.1328 c 0
 120.37252 571.8262 113.59205 561.92586 107.01562 551.89256 c 1
 96.222448 573.02622 89.999277 596.04897 89.220703 619.791 c 1
628.22852 744.791 m 1
 744.79102 744.791 l 1
 744.79102 630.20897 l 1
 588.54102 630.20897 l 1
 588.54102 665.44725 l 1
 628.22852 744.791 l 1
588.54102 744.791 m 1
 616.56445 744.791 l 1
 588.54102 688.74804 l 1
 588.54102 744.791 l 1
216.76953 744.791 m 1
 244.79101 744.791 l 1
 244.79101 688.74804 l 1
 216.76953 744.791 l 1
88.541016 744.791 m 1
 205.10547 744.791 l 1
 244.79101 665.41795 l 1
 244.79101 630.20897 l 1
 88.541016 630.20897 l 1
 88.541016 744.791 l 1
669.89453 828.12498 m 1
 744.79102 828.12498 l 1
 744.79102 755.20897 l 1
 633.43555 755.20897 l 1
 669.89453 828.12498 l 1
588.54102 828.12498 m 1x21f980
 658.23046 828.12498 l 1
 621.77149 755.20897 l 1
 588.54102 755.20897 l 1
 588.54102 828.12498 l 1x21f980
175.10352 828.12498 m 1
 244.79101 828.12498 l 1
 244.79101 755.20897 l 1
 211.56055 755.20897 l 1
 175.10352 828.12498 l 1
88.541016 828.12498 m 1
 163.43945 828.12498 l 1
 199.89648 755.20897 l 1
 88.541016 755.20897 l 1
 88.541016 828.12498 l 1
716.82421 921.98436 m 1
 733.33878 897.07266 742.96182 868.46582 743.95117 838.541 c 1
 675.10352 838.541 l 1
 696.34375 881.02147 l 1
 716.82421 921.98436 l 1
116.50977 921.98436 m 1
 136.99023 881.02147 l 1
 158.23047 838.541 l 1
 89.382812 838.541 l 1
 90.372159 868.46582 99.995201 897.07266 116.50977 921.98436 c 1
578.125 977.91795 m 1
 578.125 838.541 l 1
 508.43554 838.541 l 1
 578.125 977.91795 l 1
255.20899 977.91795 m 1
 324.89649 838.541 l 1
 255.20899 838.541 l 1
 255.20899 977.91795 l 1
588.54102 994.1953 m 1
 636.34337 992.62718 680.92206 970.19161 710.39453 932.42772 c 1
 663.43945 838.541 l 1
 588.54102 838.541 l 1
 588.54102 994.1953 l 1
244.79101 994.1953 m 1
 244.79101 838.541 l 1
 169.89453 838.541 l 1
 122.9375 932.42772 l 1
 152.40998 970.19161 196.98867 992.62718 244.79101 994.1953 c 1
505.20899 994.791 m 1
 574.89649 994.791 l 1
 505.20899 855.41405 l 1
 505.20899 994.791 l 1
338.54102 994.791 m 1x21fd
 494.79102 994.791 l 1
 494.79102 838.541 l 1
 338.54102 838.541 l 1
 338.54102 994.791 l 1x21fd
258.43554 994.791 m 1
 328.125 994.791 l 1
 328.125 855.41405 l 1
 258.43554 994.791 l 1
EndSplineSet
Validated: 524289
EndChar

StartChar: R
Encoding: 20 82 20
Width: 833
VWidth: 1024
HStem: 5.20896 7.73047<166.266 192.064 641.27 667.068> 5.80467 155.654<194.418 244.791 588.541 638.916> 171.875 72.916<88.541 163.439 505.209 578.125> 255.209 62.5<147.597 154.08 168.836 205.105> 327.582 0.54296<182.482 185.768> 328.125 5.68434e-14<184.744 185.818> 338.541 114.584<88.541 244.791 482.395 494.791 505.209 517.605> 463.541 156.25<194.391 244.791 255.209 267.605 399.061 434.271 565.729 578.125 588.541 662.541> 630.209 114.582<88.541 205.105 628.229 744.791> 755.209 72.916<88.541 163.439 211.561 244.791 588.541 621.771 669.895 744.791> 838.541 156.25<194.418 244.791 338.541 494.791 588.541 662.131>
VStem: 88.541 156.25<131.534 161.459 338.541 453.125 464.221 475.914 596.049 619.113 630.209 665.418 838.541 854.178> 255.209 72.916<463.541 498.752> 338.541 156.25<463.541 498.752 838.541 994.791> 425.104 69.6875<314.125 328.125 338.541 352.541> 505.209 72.916<171.875 244.791 338.541 351.794 463.541 498.779> 588.541 156.25<596.049 619.113 630.209 665.447 838.541 868.466>
LayerCount: 2
Fore
SplineSet
715.30469 57.72655 m 1xb3f980
 741.56445 5.20896 l 1
 638.91602 5.20896 l 1
 646.06918 7.67389 653.45723 9.56257 660.21093 12.93943 c 0
 681.407 23.53746 699.88605 39.06773 715.30469 57.72655 c 1xb3f980
118.0293 57.72655 m 1
 133.44793 39.06773 151.92699 23.53746 173.12305 12.93943 c 0
 179.87676 9.56257 187.2648 7.67389 194.41797 5.20896 c 1
 91.769531 5.20896 l 1
 117.56641 56.80271 l 1
 118.0293 57.72655 l 1
88.541016 109.24021 m 1
 93.911258 94.14848 101.39405 79.83709 110.83984 66.67771 c 1
 110.56836 66.10741 l 1
 95.324219 35.64452 l 1
 88.541016 22.08202 l 1
 88.541016 109.24021 l 1
578.125 154.08006 m 1
 578.125 22.08202 l 1
 534.125 110.08006 l 1
 578.125 154.08006 l 1
588.54102 161.45896 m 1
 663.43945 161.45896 l 1
 710.39453 67.57225 l 1
 703.23194 58.39462 695.39253 49.84592 686.60546 42.53514 c 0
 677.03732 34.57453 666.60827 27.7758 655.54492 22.24413 c 0
 634.96149 11.95241 612.0762 6.57671 588.54102 5.80467 c 1x73f980
 588.54102 161.45896 l 1
508.43554 161.45896 m 1
 570.74609 161.45896 l 1
 529.21485 119.92771 l 1
 508.43554 161.45896 l 1
169.89453 161.45896 m 1
 244.79101 161.45896 l 1
 244.79101 5.80467 l 1
 221.25583 6.57671 198.37249 11.95241 177.78906 22.24413 c 0
 166.72571 27.7758 156.29665 34.57453 146.72852 42.53514 c 0
 137.94144 49.84592 130.10011 58.39462 122.9375 67.57225 c 1
 169.89453 161.45896 l 1
89.382812 161.45896 m 1
 158.23047 161.45896 l 1
 136.99023 118.97851 l 1
 116.50977 78.01562 l 1
 99.995201 102.92731 90.372159 131.53414 89.382812 161.45896 c 1
637.45117 213.40623 m 1
 658.23046 171.87498 l 1
 595.91992 171.87498 l 1
 637.45117 213.40623 l 1
195.88281 213.40623 m 1
 237.41406 171.87498 l 1
 175.10352 171.87498 l 1
 195.88281 213.40623 l 1
588.54102 244.79101 m 1
 621.77149 244.79101 l 1
 632.54102 223.25389 l 1
 588.54102 179.25389 l 1
 588.54102 244.79101 l 1
505.20899 244.79101 m 1
 578.125 244.79101 l 1
 578.125 171.87498 l 1
 505.20899 171.87498 l 1
 505.20899 244.79101 l 1
466.76953 244.79101 m 1
 487.41406 244.79101 l 1
 494.79102 244.79101 l 1
 494.79102 237.41405 l 1
 494.79102 188.74803 l 1x33fd80
 466.76953 244.79101 l 1
211.56055 244.79101 m 1
 244.79101 244.79105 l 1
 244.79101 179.25393 l 1
 200.79297 223.25389 l 1
 211.56055 244.79101 l 1
179.25391 244.79101 m 1
 199.89648 244.79101 l 1
 193.00586 231.03905 l 1
 179.25391 244.79101 l 1
88.541016 244.79101 m 1
 164.49609 244.79097 l 1
 188.09766 221.19139 l 1
 163.43945 171.87498 l 1
 88.541016 171.87498 l 1
 88.541016 244.79101 l 1
124.97266 284.34178 m 1
 154.08008 255.20896 l 1
 95.837891 255.20896 l 1
 104.73343 265.73277 114.09708 275.82438 124.97266 284.34178 c 1
588.54102 311.25194 m 1
 616.56445 255.20896 l 1
 588.54102 255.20896 l 1
 588.54102 311.25194 l 1
244.79101 311.25194 m 1
 244.79101 255.20896 l 1
 216.76953 255.20896 l 1
 244.79101 311.25194 l 1
578.125 320.74608 m 1
 578.125 255.20896 l 1
 512.58593 255.20896 l 1
 578.125 320.74608 l 1
88.541016 320.74608 m 1
 117.07812 292.23626 l 1
 117.67578 291.61131 l 1
 106.88864 283.03851 97.47236 272.98359 88.541016 262.50584 c 1
 88.541016 320.74608 l 1
240.83203 326.6328 m 1
 205.10547 255.20896 l 1
 168.83594 255.20896 l 1
 133.6543 290.39256 l 1
 149.87001 301.7839 167.15977 311.50766 185.76367 317.70897 c 0
 203.40571 323.58965 222.08021 325.7653 240.83203 326.6328 c 1
505.20899 328.12498 m 1x37f980
 570.74609 328.12498 l 1
 505.20899 262.58592 l 1
 505.20899 328.12498 l 1x37f980
425.10352 328.12498 m 1x37fb80
 494.79102 328.12498 l 1
 494.79102 255.20896 l 1
 461.56054 255.20896 l 1
 425.10352 328.12498 l 1x37fb80
95.919922 328.12498 m 1
 185.81832 328.12498 l 1x37f980
 184.74355 327.78553 183.5516 327.93841 182.48238 327.58202 c 0x3bf980
 162.32811 320.86392 143.49855 310.51835 126.00391 298.01366 c 1
 125.48828 298.55663 l 1
 95.919922 328.12498 l 1
505.20899 453.12498 m 1
 517.60548 453.12498 l 1
 574.89649 338.54101 l 1
 505.20899 338.54101 l 1
 505.20899 453.12498 l 1
482.39453 453.12498 m 1
 494.79102 453.12498 l 1
 494.79102 338.54101 l 1x33fd80
 425.10352 338.54101 l 1
 482.39453 453.12498 l 1
362.60352 453.12498 m 1
 470.73047 453.12498 l 1
 416.66602 344.99803 l 1
 362.60352 453.12498 l 1
88.541016 453.12498 m 1
 244.79101 453.12498 l 1
 244.79101 338.54101 l 1
 88.541016 338.54101 l 1
 88.541016 453.12498 l 1
107.01562 531.43944 m 1
 113.59205 521.40615 120.37252 511.50776 128.7168 503.20116 c 0
 139.31367 492.65212 151.21243 483.57523 164.0625 476.15623 c 0
 173.54553 470.6812 183.99715 467.12856 194.39063 463.54099 c 1
 89.220703 463.54099 l 1
 89.626439 475.91361 90.865653 488.22962 94.048828 500.10936 c 0
 96.973905 511.02586 101.84707 521.31911 107.01562 531.43944 c 1
88.541016 569.49804 m 1
 91.756914 560.14474 95.069702 550.81945 99.88086 542.10155 c 1
 99.636719 541.66599 l 1
 99.88086 541.23241 l 1
 95.069702 532.51451 91.756914 523.18726 88.541016 513.83397 c 1
 88.541016 569.49804 l 1
588.54102 619.11326 m 1
 601.1176 618.69909 613.5773 617.41518 625.46093 614.20311 c 0
 639.02043 610.53808 651.99274 605.14034 664.0625 598.17186 c 0
 676.13227 591.20338 687.31188 582.66424 697.26563 572.75388 c 0
 706.4493 563.61026 714.29414 553.01801 721.16406 541.66599 c 1
 692.87644 494.92287 643.05787 466.01595 588.54102 464.22069 c 1
 588.54102 619.11326 l 1
244.79101 619.11326 m 1
 244.79101 464.22069 l 1
 217.86427 465.1074 191.91927 472.08637 169.27148 485.16209 c 0
 157.20172 492.13056 146.02211 500.6697 136.06836 510.58006 c 0
 126.88469 519.72369 119.03984 530.31398 112.16992 541.66599 c 1
 119.03984 553.01801 126.88469 563.61026 136.06836 572.75388 c 0
 146.02211 582.66424 157.20172 591.20338 169.27148 598.17186 c 0
 191.91927 611.24758 217.86427 618.22655 244.79101 619.11326 c 1
638.94337 619.791 m 1
 744.11328 619.791 l 1
 743.33467 596.04897 737.11155 573.02622 726.31837 551.89256 c 1
 705.22677 584.07087 674.51059 607.51408 638.94337 619.791 c 1
565.72852 619.791 m 1
 578.125 619.791 l 1
 578.125 463.54094 l 1
 524.06054 463.54094 l 1
 505.20899 463.54094 l 1
 505.20899 498.77929 l 1
 565.72852 619.791 l 1
505.20899 619.791 m 1
 554.06445 619.791 l 1
 505.20899 522.08202 l 1
 505.20899 619.791 l 1
445.93554 619.791 m 1
 494.79102 619.791 l 1
 494.79102 522.08202 l 1
 445.93554 619.791 l 1
399.06054 619.791 m 1
 434.27149 619.791 l 1
 494.79102 498.75189 l 1
 494.79102 463.54094 l 1
 487.60352 463.54094 l 1
 475.93945 463.54094 l 1
 345.73047 463.54094 l 1
 338.54102 463.54094 l 1
 338.54102 498.77929 l 1
 399.06054 619.791 l 1
338.54102 619.791 m 1
 387.39649 619.791 l 1
 338.54102 522.08202 l 1
 338.54102 619.791 l 1
279.26953 619.791 m 1
 328.125 619.791 l 1
 328.125 522.08202 l 1
 279.26953 619.791 l 1
255.20899 619.791 m 1
 267.60547 619.791 l 1
 328.125 498.75194 l 1
 328.125 463.54099 l 1
 255.20899 463.54099 l 1
 255.20899 619.791 l 1
89.220703 619.791 m 1
 194.39063 619.791 l 1
 169.91337 611.34205 147.1339 598.46676 128.7168 580.1328 c 0
 120.37252 571.8262 113.59205 561.92586 107.01562 551.89256 c 1
 96.222448 573.02622 89.999277 596.04897 89.220703 619.791 c 1
628.22852 744.791 m 1
 744.79102 744.791 l 1
 744.79102 630.20897 l 1
 588.54102 630.20897 l 1
 588.54102 665.44725 l 1
 628.22852 744.791 l 1
588.54102 744.791 m 1
 616.56445 744.791 l 1
 588.54102 688.74804 l 1
 588.54102 744.791 l 1
216.76953 744.791 m 1
 244.79101 744.791 l 1
 244.79101 688.74804 l 1
 216.76953 744.791 l 1
88.541016 744.791 m 1
 205.10547 744.791 l 1
 244.79101 665.41795 l 1
 244.79101 630.20897 l 1
 88.541016 630.20897 l 1
 88.541016 744.791 l 1
669.89453 828.12498 m 1
 744.79102 828.12498 l 1
 744.79102 755.20897 l 1
 633.43555 755.20897 l 1
 669.89453 828.12498 l 1
588.54102 828.12498 m 1
 658.23046 828.12498 l 1
 621.77149 755.20897 l 1
 588.54102 755.20897 l 1
 588.54102 828.12498 l 1
175.10352 828.12498 m 1
 244.79101 828.12498 l 1
 244.79101 755.20897 l 1
 211.56055 755.20897 l 1
 175.10352 828.12498 l 1
88.541016 828.12498 m 1
 163.43945 828.12498 l 1
 199.89648 755.20897 l 1
 88.541016 755.20897 l 1
 88.541016 828.12498 l 1
716.82421 921.98436 m 1
 733.33878 897.07266 742.96182 868.46582 743.95117 838.541 c 1
 675.10352 838.541 l 1
 696.34375 881.02147 l 1
 716.82421 921.98436 l 1
116.50977 921.98436 m 1
 136.99023 881.02147 l 1
 158.23047 838.541 l 1
 89.382812 838.541 l 1
 89.899777 854.17766 91.917932 869.69714 96.814453 884.3867 c 0
 101.28869 897.80942 108.62459 910.08982 116.50977 921.98436 c 1
578.125 977.91795 m 1
 578.125 838.541 l 1
 508.43554 838.541 l 1
 578.125 977.91795 l 1
255.20899 977.91795 m 1
 324.89649 838.541 l 1
 255.20899 838.541 l 1
 255.20899 977.91795 l 1
88.541016 977.91795 m 1
 110.56836 933.89256 l 1
 110.83984 933.32225 l 1
 101.39406 920.16288 93.911258 905.85149 88.541016 890.75975 c 1
 88.541016 977.91795 l 1
588.54102 994.1953 m 1
 636.34337 992.62718 680.92206 970.19161 710.39453 932.42772 c 1
 663.43945 838.541 l 1
 588.54102 838.541 l 1
 588.54102 994.1953 l 1
244.79101 994.1953 m 1
 244.79101 838.541 l 1
 169.89453 838.541 l 1
 122.9375 932.42772 l 1
 130.10011 941.60537 137.94144 950.15405 146.72852 957.46483 c 0
 165.86479 973.38606 188.45508 984.66753 212.67383 990.42381 c 0
 223.094 992.90046 233.90572 993.83821 244.79101 994.1953 c 1
505.20899 994.791 m 1
 574.89649 994.791 l 1
 505.20899 855.41405 l 1
 505.20899 994.791 l 1
338.54102 994.791 m 1
 494.79102 994.791 l 1
 494.79102 838.541 l 1
 338.54102 838.541 l 1
 338.54102 994.791 l 1
258.43554 994.791 m 1
 328.125 994.791 l 1
 328.125 855.41405 l 1
 258.43554 994.791 l 1
91.769531 994.791 m 1
 194.41797 994.791 l 1
 174.79012 988.02739 156.10869 978.79966 140.08203 965.46678 c 0
 131.93716 958.69091 124.88022 950.56405 118.0293 942.27342 c 1
 117.56641 943.19725 l 1
 91.769531 994.791 l 1
EndSplineSet
Validated: 524289
EndChar

